<svg width="16" height="20" viewBox="0 0 16 20" fill="none" xmlns="http://www.w3.org/2000/svg">
<path d="M0 5.71554C0.226401 5.71554 0.425991 5.71554 0.625582 5.71554C1.70099 5.71554 2.77341 5.71849 3.84882 5.71554C5.01955 5.71259 5.76429 4.97491 5.76429 3.81528C5.76429 2.65564 5.76131 1.49601 5.76131 0.336374C5.76131 0.23605 5.76131 0.132775 5.76131 0.00294271C5.85366 0.00294271 5.93409 0.00294271 6.01154 0.00294271C8.87135 0.00294271 11.7341 0.00294271 14.5939 0.00294271C15.4906 -8.01473e-06 15.997 0.498664 15.997 1.38978C15.997 7.13189 15.997 12.871 15.997 18.6132C15.997 19.5043 15.4936 20.0029 14.591 20.0029C10.188 20.0029 5.78514 20.0029 1.38522 20.0029C0.691119 20.0029 0.202569 19.6666 0.0476634 19.0705C0.00893689 18.9141 0.00297896 18.7489 0.00297896 18.5895C0 14.3818 0 10.1741 0 5.9693C0 5.88964 0 5.81292 0 5.71554ZM8.25768 12.7648C9.66673 12.7648 11.0728 12.7648 12.4818 12.7648C12.5861 12.7648 12.6904 12.7619 12.7917 12.7383C13.2057 12.6379 13.3755 12.1747 13.1283 11.8353C12.9913 11.6465 12.8006 11.5845 12.5682 11.5845C9.69354 11.5875 6.81884 11.5875 3.94414 11.5875C3.8935 11.5875 3.83988 11.5845 3.78924 11.5934C3.34239 11.6524 3.12493 12.154 3.38708 12.514C3.53603 12.7206 3.75051 12.7707 3.99181 12.7707C5.41277 12.7648 6.83374 12.7648 8.25768 12.7648ZM8.25172 9.56624C9.54161 9.56624 10.8315 9.56624 12.1184 9.56624C12.312 9.56624 12.5027 9.57214 12.6963 9.56033C12.9346 9.54853 13.0955 9.4128 13.1908 9.20625C13.2802 9.0115 13.2564 8.82265 13.1283 8.64561C12.9674 8.42136 12.7351 8.3889 12.4789 8.39185C9.66375 8.3948 6.84863 8.39185 4.03351 8.3948C3.94414 8.3948 3.85478 8.3948 3.76839 8.40955C3.33942 8.47447 3.13089 8.94658 3.3692 9.30067C3.5122 9.51017 3.71476 9.57214 3.96202 9.57214C5.39192 9.56328 6.82182 9.56624 8.25172 9.56624ZM6.03538 15.7687C6.76224 15.7687 7.48613 15.7716 8.213 15.7687C8.58835 15.7657 8.85049 15.5119 8.84752 15.1756C8.84454 14.851 8.58239 14.5943 8.22491 14.5913C6.78012 14.5854 5.3383 14.5825 3.8935 14.6002C3.72966 14.6031 3.54198 14.7093 3.41389 14.8215C3.24111 14.972 3.21728 15.1962 3.31856 15.4087C3.43474 15.6477 3.63135 15.7716 3.90244 15.7716C4.61441 15.7687 5.32638 15.7687 6.03538 15.7687Z" fill="black"/>
<path d="M4.08077 0.235913L4.43264 0.591146C4.47896 0.545261 4.50848 0.529843 4.51908 0.525418C4.52096 0.526035 4.52344 0.526941 4.52654 0.528254C4.532 0.530562 4.53591 0.53254 4.53857 0.534026C4.54218 0.544583 4.54963 0.573527 4.54897 0.631476L4.54896 0.631813C4.54495 1.00335 4.5463 1.37791 4.54763 1.74733C4.54828 1.92967 4.54893 2.11076 4.54893 2.28962C4.54893 2.46772 4.54927 2.6448 4.5496 2.82133C4.55026 3.17226 4.55092 3.52102 4.54894 3.87133L4.54894 3.87197C4.5479 4.1091 4.47582 4.25637 4.39119 4.34278C4.30768 4.42806 4.16492 4.50227 3.92755 4.5043L3.92647 4.50431C3.15823 4.51254 2.39044 4.51069 1.61942 4.50883C1.28771 4.50803 0.955397 4.50723 0.622197 4.50723C0.570254 4.50723 0.543163 4.50071 0.532247 4.49717C0.530628 4.49403 0.528516 4.48948 0.526108 4.48319L0.526115 4.48319L0.525122 4.48064C0.524804 4.47982 0.524511 4.47905 0.52424 4.47831C0.525983 4.47536 0.528293 4.47169 0.531321 4.46731C0.541962 4.4519 0.55935 4.43067 0.586798 4.40348C1.86772 3.1347 3.15186 1.86274 4.43305 0.590737L4.08077 0.235913ZM4.08077 0.235913C4.26249 0.0559191 4.47697 -0.0355533 4.72125 0.067722C4.96552 0.170997 5.05191 0.377548 5.04893 0.637212L0.0591734 4.662C-0.0361534 4.41709 0.0591734 4.22234 0.234932 4.04825C1.51589 2.77944 2.79982 1.50767 4.08077 0.235913Z" fill="black"/>
<path d="M4.08077 0.235913L4.43264 0.591146C4.47896 0.545261 4.50848 0.529843 4.51908 0.525418C4.52096 0.526035 4.52344 0.526941 4.52654 0.528254C4.532 0.530562 4.53591 0.53254 4.53857 0.534026C4.54218 0.544583 4.54963 0.573527 4.54897 0.631476L4.54896 0.631813C4.54495 1.00335 4.5463 1.37791 4.54763 1.74733C4.54828 1.92967 4.54893 2.11076 4.54893 2.28962C4.54893 2.46772 4.54927 2.6448 4.5496 2.82133C4.55026 3.17226 4.55092 3.52102 4.54894 3.87133L4.54894 3.87197C4.5479 4.1091 4.47582 4.25637 4.39119 4.34278C4.30768 4.42806 4.16492 4.50227 3.92755 4.5043L3.92647 4.50431C3.15823 4.51254 2.39044 4.51069 1.61942 4.50883C1.28771 4.50803 0.955397 4.50723 0.622197 4.50723C0.570254 4.50723 0.543163 4.50071 0.532247 4.49717C0.530628 4.49403 0.528516 4.48948 0.526108 4.48319L0.526115 4.48319L0.525122 4.48064C0.524804 4.47982 0.524511 4.47905 0.52424 4.47831C0.525983 4.47536 0.528293 4.47169 0.531321 4.46731C0.541962 4.4519 0.55935 4.43067 0.586798 4.40348C1.86772 3.1347 3.15186 1.86274 4.43305 0.590737L4.08077 0.235913ZM4.08077 0.235913C4.26249 0.0559191 4.47697 -0.0355533 4.72125 0.067722C4.96552 0.170997 5.05191 0.377548 5.04893 0.637212L0.0591734 4.662C-0.0361534 4.41709 0.0591734 4.22234 0.234932 4.04825C1.51589 2.77944 2.79982 1.50767 4.08077 0.235913Z" stroke="black"/>
<path d="M4.08077 0.235913L4.43264 0.591146C4.47896 0.545261 4.50848 0.529843 4.51908 0.525418C4.52096 0.526035 4.52344 0.526941 4.52654 0.528254C4.532 0.530562 4.53591 0.53254 4.53857 0.534026C4.54218 0.544583 4.54963 0.573527 4.54897 0.631476L4.54896 0.631813C4.54495 1.00335 4.5463 1.37791 4.54763 1.74733C4.54828 1.92967 4.54893 2.11076 4.54893 2.28962C4.54893 2.46772 4.54927 2.6448 4.5496 2.82133C4.55026 3.17226 4.55092 3.52102 4.54894 3.87133L4.54894 3.87197C4.5479 4.1091 4.47582 4.25637 4.39119 4.34278C4.30768 4.42806 4.16492 4.50227 3.92755 4.5043L3.92647 4.50431C3.15823 4.51254 2.39044 4.51069 1.61942 4.50883C1.28771 4.50803 0.955397 4.50723 0.622197 4.50723C0.570254 4.50723 0.543163 4.50071 0.532247 4.49717C0.530628 4.49403 0.528516 4.48948 0.526108 4.48319L0.526115 4.48319L0.525122 4.48064C0.524804 4.47982 0.524511 4.47905 0.52424 4.47831C0.525983 4.47536 0.528293 4.47169 0.531321 4.46731C0.541962 4.4519 0.55935 4.43067 0.586798 4.40348C1.86772 3.1347 3.15186 1.86274 4.43305 0.590737L4.08077 0.235913ZM4.08077 0.235913C4.26249 0.0559191 4.47697 -0.0355533 4.72125 0.067722C4.96552 0.170997 5.05191 0.377548 5.04893 0.637212L0.0591734 4.662C-0.0361534 4.41709 0.0591734 4.22234 0.234932 4.04825C1.51589 2.77944 2.79982 1.50767 4.08077 0.235913Z" stroke="black" stroke-opacity="0.2"/>
</svg>
