<svg width="18" height="24" viewBox="0 0 18 24" fill="none" xmlns="http://www.w3.org/2000/svg">
<path d="M0 12C0 8.34452 0 4.68144 0 1.02597C0 0.319189 0.336748 0 1.07439 0C6.36615 0 11.6579 0 16.9416 0C17.6633 0 18 0.326789 18 1.01077C18 8.33692 18 15.6631 18 22.9892C18 23.6732 17.6552 24 16.9416 24C11.6419 24 6.34209 24 1.04232 24C0.344766 24 0 23.6656 0 23.0044C0 19.3414 0 15.6707 0 12ZM9.00401 7.73654C7.23207 7.73654 5.46815 7.73654 3.69621 7.73654C3.27127 7.73654 2.95056 7.88854 2.78218 8.25333C2.50156 8.83851 2.96659 9.43889 3.6882 9.43889C5.8049 9.43889 7.9216 9.43889 10.0463 9.43889C11.4735 9.43889 12.9007 9.43889 14.3359 9.43889C14.7448 9.43889 15.0575 9.28689 15.2339 8.9297C15.5225 8.34452 15.0655 7.72894 14.3519 7.72894C12.5559 7.73654 10.7759 7.73654 9.00401 7.73654ZM9.00401 11.1488C7.23207 11.1488 5.46815 11.1488 3.69621 11.1488C3.27127 11.1488 2.95056 11.3008 2.78218 11.6656C2.50156 12.2508 2.96659 12.8512 3.6882 12.8512C5.74878 12.8512 7.80134 12.8512 9.86191 12.8512C11.3532 12.8512 12.8365 12.8512 14.3278 12.8512C14.7367 12.8512 15.0494 12.6992 15.2258 12.342C15.5145 11.7568 15.0575 11.1412 14.3439 11.1412C12.5559 11.1488 10.784 11.1488 9.00401 11.1488ZM8.99599 14.5611C7.22405 14.5611 5.46013 14.5611 3.6882 14.5611C3.26325 14.5611 2.94254 14.7131 2.77416 15.0855C2.50156 15.6707 2.95857 16.2711 3.68018 16.2711C5.9412 16.2711 8.19421 16.2711 10.4552 16.2711C11.7461 16.2711 13.037 16.2711 14.3198 16.2711C14.7287 16.2711 15.0414 16.1191 15.2098 15.7619C15.4904 15.1767 15.0414 14.5687 14.3198 14.5611C12.5559 14.5611 10.7759 14.5611 8.99599 14.5611ZM6.302 4.32426C5.42004 4.32426 4.5461 4.32426 3.66414 4.32426C3.1029 4.32426 2.702 4.68144 2.69399 5.16783C2.68597 5.66181 3.09488 6.0266 3.67216 6.0342C5.42004 6.0342 7.16793 6.0342 8.91581 6.0342C9.4931 6.0342 9.902 5.67701 9.89399 5.17543C9.89399 4.68144 9.48508 4.33186 8.89978 4.32426C8.04187 4.32426 7.17595 4.32426 6.302 4.32426ZM12.596 19.6833C13.1653 19.6833 13.7345 19.6833 14.3038 19.6833C14.9051 19.6833 15.314 19.3262 15.306 18.817C15.298 18.323 14.8971 17.9734 14.3118 17.9734C13.1733 17.9734 12.0347 17.9734 10.8962 17.9734C10.3189 17.9734 9.91002 18.3306 9.91002 18.8246C9.91002 19.3186 10.3109 19.6757 10.8962 19.6833C11.4575 19.6833 12.0267 19.6833 12.596 19.6833Z" fill="black"/>
</svg>
