<svg width="21" height="20" viewBox="0 0 21 20" fill="none" xmlns="http://www.w3.org/2000/svg">
<path d="M0 12.5C0 8.87265 0 5.25052 0 1.62317C0.00977995 1.58664 0.0244499 1.54489 0.0342298 1.50835C0.239609 0.579332 0.914425 0 1.79951 0C7.25183 0 12.7042 0 18.1565 0C19.2176 0 19.9902 0.835073 19.9902 1.96242C19.9902 5.40188 19.9902 8.83612 19.9902 12.2756C19.9902 12.3486 19.9902 12.4217 19.9902 12.4896C18.7922 12.4896 17.6235 12.4896 16.4401 12.4896C16.4401 12.4113 16.4401 12.3434 16.4401 12.2756C16.4401 11.7537 16.4401 11.2317 16.4401 10.715C16.4352 10.261 16.2005 10.0104 15.7702 10.0052C15.6186 10.0052 15.4719 10.0052 15.3203 10.0052C14.934 10.0052 14.9389 10 14.7873 9.61378C14.7384 9.49374 14.7677 9.42589 14.846 9.34238C15.022 9.16493 15.1932 8.98225 15.3545 8.79958C15.6039 8.52296 15.6186 8.17328 15.3692 7.9071C14.8264 7.31211 14.2738 6.72234 13.7115 6.13779C13.4572 5.87683 13.1345 5.89248 12.8753 6.15344C12.7579 6.27349 12.6455 6.39875 12.5281 6.51879C12.2347 6.83194 12.2347 6.83716 11.8631 6.64405C11.8093 6.61273 11.7506 6.51879 11.7506 6.44572C11.7359 6.18476 11.7506 5.91858 11.7457 5.6524C11.7359 5.2714 11.5012 5.00522 11.1443 5C10.3765 4.98956 9.6088 4.98956 8.84108 5C8.48411 5.00522 8.2445 5.26618 8.23472 5.64196C8.22983 5.82985 8.23472 6.01775 8.23472 6.20564C8.23472 6.59708 8.22983 6.59186 7.89242 6.74843C7.77017 6.80585 7.69682 6.79019 7.6088 6.6858C7.44743 6.49791 7.27628 6.31524 7.10024 6.13779C6.85086 5.88726 6.52323 5.87161 6.27873 6.12735C5.71638 6.7119 5.15892 7.30689 4.61125 7.91232C4.37164 8.17328 4.3912 8.52296 4.63081 8.78914C4.75306 8.92484 4.8802 9.05532 5.00245 9.1858C5.26161 9.46242 5.25183 9.4572 5.1198 9.82777C5.0709 9.96347 5.00733 10.0052 4.87531 9.99478C4.65037 9.98434 4.42054 9.98956 4.19071 9.99478C3.79951 10.0052 3.5599 10.2557 3.55501 10.6733C3.55012 11.096 3.55501 11.5188 3.55501 11.9415C3.55501 12.119 3.55501 12.2965 3.55501 12.4896C2.35208 12.5 1.17848 12.5 0 12.5ZM17.6088 4.37891C17.5746 3.33507 16.8753 2.52088 15.8631 2.51044C14.8998 2.5 14.1174 3.26722 14.1076 4.35804C14.0978 5.4071 14.8362 6.22129 15.8533 6.24217C16.802 6.26305 17.599 5.39666 17.6088 4.37891Z" fill="black"/>
<path d="M0 13.7526C6.65526 13.7526 13.3056 13.7526 19.9609 13.7526C20.2005 15.2036 19.3545 16.2474 18.176 16.2474C12.7139 16.2526 7.24694 16.2526 1.78484 16.2474C0.919315 16.2474 0.244499 15.6576 0.0440098 14.7599C0.0342298 14.713 0.0195599 14.666 0.00488998 14.6242C0 14.3372 0 14.0449 0 13.7526Z" fill="black"/>
<path d="M6.44572 17.5104C8.81735 17.5104 11.1743 17.5104 13.546 17.5104C13.6584 17.8653 13.7758 18.2202 13.8785 18.5752C13.9176 18.7109 13.9714 18.7578 14.1083 18.7578C14.6755 18.7474 15.2379 18.7526 15.8051 18.7526C16.1817 18.7526 16.4408 19.0136 16.4359 19.3841C16.431 19.7443 16.1768 20 15.81 20C11.9323 20 8.05452 20 4.17677 20C3.81002 20 3.55574 19.7443 3.55085 19.3841C3.54596 19.0136 3.80513 18.7526 4.18166 18.7526C4.74889 18.7526 5.31613 18.7474 5.87848 18.7578C6.0154 18.7578 6.06919 18.7109 6.10831 18.5752C6.21589 18.2202 6.33325 17.8653 6.44572 17.5104Z" fill="black"/>
<path d="M7.14025 12.4996C6.40675 12.4996 5.69281 12.4996 4.97887 12.4996C4.90063 12.4996 4.82728 12.4996 4.73438 12.4996C4.73438 12.0873 4.73438 11.6854 4.73438 11.2522C4.92019 11.2522 5.1109 11.2522 5.30161 11.2522C5.76616 11.2522 5.93242 11.1113 6.07912 10.6416C6.16714 10.3545 6.27961 10.0727 6.40675 9.80131C6.62191 9.34724 6.60235 9.14891 6.26005 8.78357C6.12802 8.64265 5.9911 8.50173 5.86885 8.37647C6.15247 8.07898 6.42142 7.79192 6.71971 7.47355C6.84196 7.60925 6.98866 7.77626 7.13536 7.93284C7.42386 8.24077 7.63413 8.26165 7.99599 8.07898C8.29428 7.92762 8.59746 7.79192 8.91042 7.67188C9.25761 7.5414 9.4092 7.34307 9.4092 6.95163C9.41409 6.72198 9.4092 6.49756 9.4092 6.25748C9.8004 6.25748 10.1769 6.25748 10.5779 6.25748C10.5779 6.46103 10.5779 6.66457 10.5779 6.86812C10.5779 7.35873 10.7099 7.53618 11.1354 7.68754C11.4288 7.79714 11.7124 7.92762 11.996 8.07376C12.3481 8.25643 12.5632 8.23555 12.842 7.93806C12.9936 7.77626 13.1403 7.60925 13.2723 7.45789C13.5608 7.76582 13.8297 8.05288 14.1231 8.37125C13.9862 8.51217 13.8249 8.66874 13.6733 8.83054C13.4043 9.11759 13.3848 9.34724 13.5461 9.71258C13.6928 10.0414 13.82 10.3859 13.9373 10.7251C14.0547 11.0644 14.2454 11.2314 14.5877 11.2366C14.8077 11.2418 15.0278 11.2366 15.2527 11.2366C15.2527 11.6541 15.2527 12.056 15.2527 12.4683C14.4557 12.4683 13.6586 12.4683 12.8517 12.4683C13.0473 11.3618 12.7686 10.4067 12.0253 9.62386C11.4385 9.00277 10.7099 8.7105 9.88842 8.74181C8.08401 8.83054 6.76372 10.6259 7.14025 12.4996Z" fill="black"/>
<path d="M9.98509 12.5002C9.4912 12.5002 8.99732 12.495 8.50343 12.5054C8.38607 12.5054 8.33717 12.4689 8.30294 12.3436C8.13668 11.6599 8.29316 11.0597 8.74793 10.5639C9.20758 10.0628 9.78949 9.88536 10.4301 10.068C11.3983 10.3446 11.9508 11.3728 11.6868 12.3488C11.6526 12.4793 11.5988 12.5054 11.4863 12.5054C10.9826 12.5002 10.4839 12.5002 9.98509 12.5002Z" fill="black"/>
<path d="M15.8525 3.75223C16.185 3.75223 16.4393 4.03406 16.4344 4.38897C16.4295 4.73344 16.1703 4.99962 15.8476 4.99962C15.5151 4.99962 15.2608 4.71778 15.2657 4.36287C15.2706 4.02363 15.5298 3.75223 15.8525 3.75223Z" fill="black"/>
</svg>
