<svg width="20" height="21" viewBox="0 0 20 21" fill="none" xmlns="http://www.w3.org/2000/svg">
<path d="M20.0007 12.6983C19.9067 13.0219 19.7815 13.3403 19.4735 13.5073C19.27 13.6221 19.0299 13.7317 18.8055 13.737C17.9808 13.763 17.151 13.7474 16.3263 13.7474C16.3055 13.7474 16.2898 13.7422 16.2481 13.7317C16.2481 13.6534 16.2481 13.5699 16.2481 13.4864C16.2481 10.6942 16.2481 7.90188 16.2481 5.1096C16.2481 4.25365 15.7366 3.74217 14.8754 3.74217C12.0831 3.74217 9.29085 3.74217 6.49857 3.74217C6.42028 3.74217 6.34721 3.74217 6.24805 3.74217C6.24805 3.62735 6.24805 3.52296 6.24805 3.4238C6.24805 2.72965 6.24805 2.03027 6.24805 1.33612C6.24805 0.652401 6.56642 0.224426 7.21882 0.0313152C7.23448 0.026096 7.25014 0.0104384 7.26057 0C11.1698 0 15.0737 0 18.9829 0C19.1395 0.0730689 19.3013 0.13048 19.4474 0.219207C19.7554 0.412317 19.9015 0.720251 19.9954 1.05428C20.0007 4.93737 20.0007 8.81524 20.0007 12.6983Z" fill="black"/>
<path d="M13.7526 13.1261C13.7526 14.9737 13.7526 16.8265 13.7526 18.6741C13.7526 19.4779 13.2255 20.005 12.4217 20.005C8.73173 20.005 5.03653 20.005 1.34656 20.005C0.521921 19.9998 0 19.4831 0 18.6637C0 14.9633 0 11.2681 0 7.56765C0 6.77433 0.52714 6.24719 1.32046 6.24719C5.0261 6.24719 8.73173 6.24719 12.4321 6.24719C13.2098 6.24719 13.7474 6.77955 13.7474 7.55721C13.7526 9.41525 13.7526 11.2733 13.7526 13.1261ZM10 11.2628C10 11.0541 10.0052 10.8453 10 10.6365C9.99478 10.2764 9.73382 10.005 9.3737 9.9998C8.95616 9.99458 8.54384 9.99458 8.1263 9.9998C7.77662 10.005 7.50522 10.266 7.5 10.6157C7.49478 11.0384 7.49478 11.4612 7.5 11.8839C7.50522 12.2336 7.77662 12.4946 8.1263 12.4998C8.54384 12.505 8.95616 12.505 9.3737 12.4998C9.73382 12.4946 9.99478 12.2284 10 11.863C10.0052 11.6647 10 11.4612 10 11.2628ZM4.98956 16.2524C5.19311 16.2524 5.39144 16.2524 5.59499 16.2524C5.98121 16.2472 6.24739 15.9914 6.25261 15.6052C6.25783 15.2033 6.25783 14.8015 6.25261 14.3944C6.24739 14.0186 5.98643 13.7524 5.61587 13.7472C5.20877 13.742 4.79645 13.742 4.38935 13.7472C4.02401 13.7524 3.75783 14.0134 3.75261 14.3735C3.74739 14.791 3.74739 15.2033 3.75261 15.6209C3.75783 15.981 4.02401 16.242 4.38935 16.2472C4.58768 16.2576 4.78601 16.2524 4.98956 16.2524ZM8.74217 16.2524C8.95094 16.2524 9.15971 16.2576 9.36848 16.2524C9.7286 16.2472 10 15.9862 10.0052 15.6261C10.0104 15.2086 10.0104 14.7962 10.0052 14.3787C10 14.0186 9.73382 13.7576 9.36848 13.7524C8.96138 13.7472 8.54906 13.7472 8.14196 13.7524C7.77662 13.7576 7.51044 14.0186 7.50522 14.3787C7.5 14.7962 7.5 15.2086 7.50522 15.6261C7.51044 15.9862 7.77662 16.2472 8.14196 16.2524C8.33507 16.2576 8.53862 16.2524 8.74217 16.2524ZM6.25261 11.2576C6.25261 11.0541 6.25261 10.8557 6.25261 10.6522C6.24739 10.266 5.98643 9.9998 5.60543 9.9998C5.20355 9.99458 4.80167 9.99458 4.39457 9.9998C4.01879 10.005 3.75261 10.266 3.75261 10.6365C3.74739 11.0436 3.74739 11.456 3.75261 11.863C3.75783 12.2232 4.01879 12.4946 4.37891 12.4998C4.79645 12.505 5.20877 12.505 5.6263 12.4998C5.98643 12.4946 6.24217 12.2284 6.25261 11.863C6.25261 11.6647 6.25261 11.4612 6.25261 11.2576Z" fill="black"/>
</svg>
