<svg width="24" height="24" viewBox="0 0 24 24" fill="none" xmlns="http://www.w3.org/2000/svg">
<path d="M11.7116 24.0001C11.2195 23.9187 10.7209 23.8623 10.2353 23.7496C8.59698 23.3738 7.12059 22.6411 5.77371 21.6765C3.55913 20.0857 1.83667 18.1003 0.768232 15.6264C0.107742 14.0857 -0.183651 12.4887 0.120693 10.8164C0.282577 9.92708 0.619298 9.10662 1.13085 8.35505C1.35749 8.02311 1.53233 7.98554 1.87552 8.19848C3.50085 9.18804 4.80888 10.4845 5.89674 12.0064C5.90969 12.0252 5.92265 12.044 5.9356 12.0628C6.29822 12.4699 6.49248 12.8707 6.24642 13.4532C6.02625 13.9667 6.17519 14.5367 6.41477 15.0502C7.10117 16.5346 8.20846 17.568 9.87263 17.9688C10.3453 18.0816 10.818 18.044 11.2713 17.8561C11.4785 17.7684 11.6534 17.7935 11.8412 17.9062C13.6672 19.021 15.163 20.449 16.3416 22.1964C16.5423 22.4907 16.497 22.6912 16.1926 22.8853C15.2343 23.4866 14.1917 23.8498 13.0521 23.9563C12.9873 23.9626 12.929 23.9813 12.8643 24.0001C12.4887 24.0001 12.1002 24.0001 11.7116 24.0001Z" fill="black"/>
<path d="M11.5616 13.4596C11.186 13.04 10.8493 12.658 10.5126 12.2822C7.82531 9.26339 8.05843 4.82289 11.0371 2.07967C15.285 -1.83473 22.2007 0.0379213 23.7418 5.51182C24.8945 9.62038 22.0518 13.9607 17.7132 14.7248C16.6383 14.9127 15.5764 14.8876 14.5144 14.6496C14.4108 14.6246 14.2554 14.6559 14.1647 14.7185C13.4654 15.1945 12.6883 15.4513 11.8336 15.4638C11.4386 15.4701 11.1472 15.301 10.9788 14.9628C10.804 14.6058 10.8752 14.2801 11.1342 13.9857C11.3091 13.779 11.471 13.5724 11.5616 13.4596ZM12.8502 4.04627C12.6819 4.07759 12.5459 4.08385 12.4164 4.12769C11.866 4.32185 11.3026 5.28009 11.4256 5.8375C11.4515 5.9565 11.5098 6.0755 11.5746 6.18197C11.6523 6.30723 11.7688 6.4137 11.853 6.5327C11.8983 6.59533 11.9242 6.68301 11.9242 6.75817C11.9242 7.1089 11.8724 7.4659 11.9178 7.81036C11.9501 8.07967 11.866 8.24878 11.6976 8.43041C11.3415 8.82498 11.3091 9.25086 11.5681 9.70807C11.6199 9.80201 11.6782 9.89596 11.7365 9.9899C12.125 10.635 12.4228 10.7665 13.1934 10.6538C13.3165 10.635 13.4719 10.6851 13.5884 10.7415C13.8798 10.8918 14.1453 11.0922 14.4432 11.2237C14.6892 11.3239 14.8317 11.4617 14.9029 11.706C15.0195 12.0943 15.285 12.3761 15.7059 12.4325C16.062 12.4763 16.4311 12.4763 16.7873 12.4325C17.1887 12.3824 17.4607 12.1193 17.5708 11.7498C17.655 11.468 17.8169 11.3114 18.0953 11.2049C18.3543 11.1047 18.6004 10.9607 18.8205 10.7916C19.0083 10.6475 19.1767 10.6162 19.3969 10.6663C19.766 10.7477 20.1609 10.7352 20.407 10.4346C20.6725 10.1089 20.8991 9.73938 21.0546 9.35734C21.2164 8.96276 20.9898 8.61203 20.7049 8.32393C20.5883 8.20494 20.5624 8.08594 20.5689 7.9231C20.5883 7.5661 20.5883 7.20911 20.5689 6.85212C20.5624 6.69554 20.5948 6.58281 20.6984 6.45128C20.8473 6.26339 20.9963 6.05045 21.0546 5.83124C21.21 5.2613 20.6013 4.278 20.0185 4.12143C19.8178 4.07132 19.5846 4.09011 19.3774 4.11517C19.1767 4.14022 19.0213 4.13395 18.8464 4.00243C18.5939 3.81454 18.309 3.65796 18.0176 3.5327C17.7974 3.43876 17.6809 3.3135 17.6032 3.10055C17.4089 2.53688 17.0528 2.31141 16.4376 2.30514C16.3016 2.30514 16.1656 2.30514 16.0232 2.30514C15.4533 2.31141 15.0907 2.54314 14.9029 3.06297C14.8187 3.30097 14.7087 3.47007 14.4432 3.54523C14.2813 3.58907 14.1324 3.67675 13.9964 3.7707C13.6467 4.00243 13.3035 4.29053 12.8502 4.04627Z" fill="black"/>
<path d="M7.95043 10.6525C7.9051 11.1222 7.74322 11.523 7.45183 11.8738C7.19281 12.1807 7.05035 12.1744 6.83019 11.8425C5.69051 10.1828 4.2724 8.79236 2.56937 7.67127C2.48519 7.61491 2.39453 7.5648 2.31035 7.50217C2.10961 7.36439 2.09666 7.20781 2.27797 7.03871C2.84781 6.50635 3.7997 6.34977 4.50552 6.71929C5.8783 7.43954 6.94674 8.47294 7.69142 9.80697C7.8274 10.0638 7.86625 10.3706 7.95043 10.6525Z" fill="black"/>
<path d="M18.1226 20.4605C18.0708 20.9552 17.9089 21.3811 17.5916 21.7444C17.365 22.0137 17.2096 22.0012 17.0088 21.7131C16.2188 20.5419 15.2864 19.4897 14.1856 18.5878C13.6675 18.1682 13.1171 17.7861 12.5667 17.3978C12.2429 17.1724 12.217 17.0346 12.5408 16.7966C13.2078 16.2955 13.946 16.1828 14.6906 16.5711C16.0505 17.2788 17.106 18.3122 17.8441 19.6212C17.9866 19.878 18.0319 20.1786 18.1226 20.4605Z" fill="black"/>
<path d="M19.7215 9.90889C19.4884 9.86505 19.3136 9.84 19.1452 9.80242C18.9315 9.75858 18.7697 9.82121 18.5884 9.94647C18.2128 10.197 17.8178 10.4225 17.4034 10.6104C17.1897 10.7106 17.0472 10.8233 16.9695 11.0362C16.6975 11.7628 16.8529 11.65 16.0176 11.6625C15.8493 11.6625 15.7262 11.6062 15.6938 11.4433C15.5902 10.9172 15.2729 10.6166 14.7355 10.4538C14.4441 10.3661 14.1916 10.1531 13.9455 9.96526C13.7512 9.81495 13.5634 9.75858 13.3239 9.80242C12.6116 9.94021 12.5533 9.90889 12.2813 9.2638C12.2425 9.17611 12.2619 9.00701 12.3266 8.95064C12.7346 8.59365 12.8512 8.18029 12.7411 7.65419C12.6763 7.3473 12.7475 7.00284 12.7864 6.67716C12.8123 6.483 12.7864 6.32016 12.6439 6.18238C12.631 6.16985 12.6245 6.15732 12.6116 6.1448C12.1065 5.54981 12.1194 5.74396 12.5274 5.03624C12.6116 4.89219 12.7281 4.81703 12.8835 4.8734C13.4145 5.05503 13.8354 4.9235 14.2498 4.56651C14.483 4.36609 14.8067 4.25336 15.1046 4.14062C15.3248 4.0592 15.4607 3.94021 15.5255 3.72726C15.532 3.71474 15.532 3.69595 15.5384 3.68342C15.778 3.03833 15.7975 3.01954 16.5162 3.10096C16.6198 3.11348 16.7752 3.21996 16.7947 3.30138C16.9177 3.83373 17.235 4.13436 17.7789 4.30346C18.0574 4.39115 18.3164 4.59156 18.5495 4.77945C18.7502 4.94229 18.9445 4.9924 19.1906 4.94856C19.9547 4.81077 19.7863 4.76693 20.1813 5.39323C20.2914 5.56234 20.2979 5.71265 20.1424 5.8567C20.1295 5.86922 20.123 5.88175 20.1101 5.89428C19.741 6.1949 19.6568 6.56442 19.7539 7.02163C19.8187 7.34104 19.7669 7.69177 19.7215 8.01745C19.6892 8.25545 19.728 8.43707 19.8899 8.6187C20.4015 9.20743 20.3885 9.00075 19.9417 9.74605C19.8964 9.82747 19.7798 9.87131 19.7215 9.90889ZM18.7049 7.3473C18.6984 6.01954 17.5976 4.95482 16.2248 4.96108C14.8456 4.96108 13.7383 6.04459 13.7448 7.37862C13.7512 8.70012 14.8715 9.76484 16.2443 9.75858C17.6106 9.74605 18.7114 8.67507 18.7049 7.3473Z" fill="black"/>
<path d="M17.8773 7.36611C17.8708 8.26173 17.1326 8.96319 16.2002 8.95066C15.2936 8.9444 14.5619 8.22415 14.5684 7.34106C14.5749 6.45171 15.3195 5.74399 16.2455 5.75651C17.1585 5.76904 17.8838 6.48302 17.8773 7.36611Z" fill="black"/>
</svg>
