<svg width="19" height="21" viewBox="0 0 19 21" fill="none" xmlns="http://www.w3.org/2000/svg">
<path d="M6.3677 11.0088C6.39244 11.1213 6.40818 11.2315 6.44416 11.3372C6.57011 11.7083 6.83323 11.9737 7.14584 12.1918C7.64061 12.5381 8.19835 12.7293 8.78308 12.8395C9.85584 13.0397 10.9151 12.9902 11.9519 12.6281C12.4017 12.4707 12.8177 12.2503 13.1551 11.9062C13.3979 11.6588 13.5599 11.3687 13.5824 10.9931C13.805 11.0268 14.0209 11.0448 14.2301 11.0966C16.6072 11.67 18.1365 13.1274 18.7887 15.4843C18.9979 16.24 19.0293 17.0136 18.8854 17.7895C18.6987 18.7926 18.0983 19.4178 17.1312 19.7101C16.506 19.8991 15.8606 19.9643 15.2129 19.9778C14.4077 19.9958 13.6004 19.998 12.7952 20.0003C10.2831 20.0025 7.77105 20.0048 5.26121 19.9958C4.5258 19.9935 3.79264 19.953 3.07297 19.7776C2.58945 19.6607 2.13966 19.4717 1.77083 19.1277C1.33228 18.7206 1.12088 18.1966 1.04666 17.6186C0.68008 14.8164 2.42078 12.0951 5.11728 11.2607C5.49735 11.1438 5.89767 11.0921 6.28899 11.0088C6.31597 11.0066 6.34071 11.0088 6.3677 11.0088Z" fill="black"/>
<path d="M9.98367 0.000152182C12.426 0.000152182 14.5086 1.78358 14.8729 4.18772C15.0011 5.03557 14.9021 5.86994 14.6773 6.69081C14.3152 8.01769 13.7169 9.22314 12.8084 10.2644C12.3586 10.7794 11.8413 11.2157 11.2116 11.4991C10.276 11.9219 9.36296 11.8544 8.47462 11.3574C7.72347 10.9368 7.14549 10.3274 6.65746 9.6302C5.84109 8.46299 5.31483 7.17658 5.09893 5.76873C4.7436 3.4613 5.94454 1.28656 8.06981 0.382475C8.67928 0.121596 9.32023 -0.00209678 9.98367 0.000152182ZM7.0128 2.7034C6.94983 2.77762 6.90035 2.83834 6.84862 2.89681C6.32012 3.49504 5.99177 4.19221 5.8141 4.96361C5.74663 5.25822 5.67242 5.55059 5.72864 5.86094C5.9333 6.98092 6.3471 8.01769 6.97681 8.96675C7.37938 9.57397 7.85616 10.116 8.47462 10.5163C9.31573 11.0628 10.1973 11.1707 11.1194 10.7277C11.6591 10.4691 12.1022 10.0845 12.4868 9.6302C13.3661 8.59343 13.9216 7.39923 14.1937 6.07234C14.3039 5.53709 14.2095 5.01083 13.9531 4.52506C13.7169 4.07977 13.2762 3.88186 12.7926 3.96507C11.7221 4.14948 10.6449 4.23944 9.55862 4.13824C9.08409 4.09551 8.61631 4.0078 8.17326 3.82338C7.73246 3.64122 7.35689 3.38034 7.12974 2.94629C7.08926 2.88107 7.06003 2.8091 7.0128 2.7034Z" fill="black"/>
</svg>
