<svg width="23" height="20" viewBox="0 0 23 20" fill="none" xmlns="http://www.w3.org/2000/svg">
<path d="M3.19856 14.4255C3.19856 14.2602 3.19856 14.1421 3.19856 14.024C3.19856 11.5971 3.19856 9.17605 3.19856 6.74912C3.19856 5.62719 3.90032 4.72964 4.96464 4.49344C5.16932 4.4462 5.39155 4.4462 5.60207 4.4462C9.87108 4.4462 14.1401 4.46391 18.4091 4.43439C19.836 4.42258 20.8301 5.5209 20.8126 6.87903C20.7775 9.26462 20.8009 11.6502 20.8009 14.0358C20.8009 14.1539 20.8009 14.2661 20.8009 14.4255C21.1401 14.4255 21.4559 14.4255 21.7717 14.4255C22.5202 14.4314 22.9763 14.8684 22.988 15.6242C22.9997 16.321 23.0056 17.0178 22.988 17.7146C22.9588 19.0609 22.0524 19.9644 20.7132 19.9998C20.6547 19.9998 20.5962 19.9998 20.5377 19.9998C14.8418 19.9998 9.14008 19.9998 3.44418 19.9998C2.99388 19.9998 2.54944 19.9466 2.15178 19.7164C1.48511 19.3266 1.06406 18.7538 1.02897 17.9685C0.988037 17.1536 0.993885 16.3387 1.01143 15.5238C1.02897 14.8743 1.49681 14.4373 2.14593 14.4255C2.48511 14.4196 2.82429 14.4255 3.19856 14.4255ZM11.9822 14.4255C13.9354 14.4255 15.8886 14.4196 17.8418 14.4314C18.1225 14.4314 18.3682 14.3783 18.5085 14.1126C18.6605 13.8291 18.5611 13.587 18.3857 13.3508C17.3272 11.91 16.2746 10.4633 15.2161 9.02252C14.8652 8.54422 14.4559 8.53832 14.105 9.00481C13.2512 10.1267 12.4032 11.2487 11.5494 12.3706C11.1869 12.8489 10.8126 12.8548 10.4208 12.3942C9.91201 11.786 9.41494 11.1719 8.91201 10.5637C8.52605 10.0913 8.16347 10.0913 7.78921 10.5696C7.06406 11.4908 6.35061 12.4238 5.62546 13.3449C5.44418 13.5752 5.32722 13.8055 5.46757 14.0949C5.60792 14.3783 5.85353 14.4432 6.14593 14.4432C8.0933 14.4255 10.0407 14.4255 11.9822 14.4255Z" fill="black"/>
<path d="M4.31506 2.20834C4.28582 0.991922 5.31506 0.00579824 6.61331 0.00579824C9.29752 -0.000106689 11.9817 0.00579824 14.6601 0.00579824C15.5841 0.00579824 16.508 -0.000106689 17.432 0.00579824C18.6893 0.0176081 19.6952 0.997827 19.6835 2.20834C14.5665 2.20834 9.45541 2.20834 4.31506 2.20834Z" fill="black"/>
</svg>
