<svg width="18" height="21" viewBox="0 0 18 21" fill="none" xmlns="http://www.w3.org/2000/svg">
<path d="M8.92509 19.9999C6.61868 19.9999 4.31228 19.9999 2.00587 19.9999C0.668822 19.9999 -0.0164146 19.3488 0.000298533 18.0132C0.0170116 16.8446 -0.0665538 15.6426 0.200856 14.5241C0.752388 12.1201 2.37356 10.6509 4.76353 10.0666C5.01423 9.99986 5.3652 10.1 5.59918 10.2336C7.85545 11.6192 10.095 11.6192 12.368 10.267C12.6354 10.1 13.0532 10.0332 13.3541 10.1167C16.0783 10.7511 17.9 13.0216 17.9836 15.8095C18.0003 16.5942 18.0003 17.3621 17.9836 18.1468C17.9502 19.3321 17.2816 19.9999 16.095 20.0166C13.7217 19.9999 11.3318 19.9999 8.92509 19.9999Z" fill="black"/>
<path d="M9.0429 -0.000188348C11.8674 0.0332006 14.1738 2.38712 14.1571 5.1918C14.1237 7.99647 11.7504 10.3337 8.95934 10.3003C6.15154 10.2669 3.77828 7.86292 3.84513 5.10833C3.89527 2.25357 6.2351 -0.0335773 9.0429 -0.000188348Z" fill="black"/>
</svg>
