<svg width="22" height="16" viewBox="0 0 22 16" fill="none" xmlns="http://www.w3.org/2000/svg">
<path d="M0 12.3962C0 11.8049 0 11.208 0 10.6167C0.0430604 10.3098 0.0861207 10.003 0.129181 9.70177C0.473664 7.31971 1.42637 5.22773 3.04652 3.5151C5.87236 0.519397 9.3118 -0.52938 13.2626 0.246045C15.1465 0.619811 16.842 1.45102 18.2684 2.78431C20.6367 4.99343 21.8693 7.77715 21.9931 11.0741C22.0415 12.4409 21.8262 13.7909 21.6378 15.1465C21.5463 15.7769 21.2341 16 20.6421 16C14.1453 15.9888 7.6486 15.9944 1.15186 15.9944C1.08189 15.9944 1.00654 16 0.936563 15.9944C0.656671 15.9721 0.484429 15.8438 0.441369 15.5649C0.312188 14.7839 0.193772 14.0029 0.0807382 13.2219C0.0430604 12.9429 0.0269127 12.6696 0 12.3962ZM11.0127 6.8511C10.8835 7.13003 10.7759 7.33644 10.6844 7.54843C10.1461 8.7813 9.60246 10.0086 9.08574 11.2526C8.83814 11.8439 8.9727 12.4018 9.36563 12.8927C10.0546 13.7574 11.2603 13.9415 12.1699 13.3223C12.9504 12.7923 13.2034 12.0392 12.8804 11.1355C12.7405 10.745 12.5898 10.3656 12.4229 9.98627C11.9654 8.96539 11.5025 7.93893 11.0127 6.8511ZM4.50519 5.71307C4.50519 6.41597 4.98962 6.96268 5.614 6.96268C6.20608 6.96268 6.60977 6.50523 6.61515 5.84138C6.62053 5.14405 6.13072 4.59177 5.51173 4.58619C4.89273 4.58619 4.50519 5.02132 4.50519 5.71307ZM4.39216 11.4256C4.39216 10.7394 3.97232 10.2987 3.31565 10.2931C2.6536 10.2875 2.20146 10.7505 2.20684 11.4256C2.21223 12.1006 2.6536 12.5524 3.30488 12.5524C3.95617 12.5524 4.38678 12.1061 4.39216 11.4256ZM18.7097 12.5524C19.361 12.5469 19.8024 12.095 19.8024 11.42C19.8024 10.7394 19.3503 10.2819 18.6882 10.2931C18.0315 10.2987 17.6117 10.745 17.6171 11.4311C17.6171 12.1117 18.0531 12.5524 18.7097 12.5524ZM12.0892 3.43142C12.0838 2.75083 11.6478 2.30455 10.9965 2.30455C10.3345 2.31013 9.90388 2.76757 9.90927 3.45932C9.92003 4.14548 10.3453 4.57504 11.0127 4.56946C11.6694 4.56388 12.0946 4.11201 12.0892 3.43142ZM17.5148 5.78559C17.5094 5.16079 17.0896 4.69776 16.5083 4.69219C15.9323 4.68661 15.4156 5.22215 15.4156 5.83022C15.4156 6.43829 15.9216 6.96825 16.5083 6.96268C17.1111 6.96268 17.5202 6.48849 17.5148 5.78559Z" fill="black"/>
</svg>
