<svg width="20" height="20" viewBox="0 0 10 17" fill="none" xmlns="http://www.w3.org/2000/svg">
<path d="M9.21925 9H7.14141H2.8598H2.65831C2.03286 9 1.40741 9.00471 0.781956 9C0.47133 9 0.223667 9.12712 0.0809469 9.44256C-0.0617733 9.758 -0.00720406 10.0593 0.177492 10.3371C1.57951 12.4369 2.98573 14.5414 4.39614 16.6365C4.48429 16.7683 4.62281 16.8813 4.76133 16.9425C5.08455 17.0885 5.39938 16.9519 5.64284 16.5847C6.89374 14.7156 8.14884 12.8465 9.39135 10.968C9.56765 10.709 9.74815 10.4548 9.89927 10.177C10.0504 9.90395 10.0252 9.61676 9.86569 9.3484C9.71457 9.09416 9.4879 9 9.21925 9Z" fill="#FF1F00"/>
<rect x="6.5" y="8" width="3" height="8" rx="1.5" transform="rotate(-180 6.5 8)" fill="#FF1F00"/>
</svg>
