<svg width="10" height="17" viewBox="0 0 10 17" fill="none" xmlns="http://www.w3.org/2000/svg">
<path d="M0.780753 8H2.85859H7.1402H7.34169C7.96714 8 8.59259 7.99529 9.21804 8C9.52867 8 9.77633 7.87288 9.91905 7.55744C10.0618 7.242 10.0072 6.94068 9.82251 6.66291C8.42049 4.56311 7.01427 2.4586 5.60386 0.363507C5.51571 0.231681 5.37719 0.118687 5.23867 0.0574819C4.91545 -0.0884684 4.60062 0.0480657 4.35716 0.415295C3.10626 2.2844 1.85116 4.1535 0.608649 6.03203C0.432347 6.29097 0.251848 6.54521 0.100732 6.82298C-0.0503834 7.09605 -0.0251974 7.38324 0.134314 7.6516C0.285429 7.90584 0.512103 8 0.780753 8Z" fill="#16D194"/>
<rect x="3.5" y="9" width="3" height="8" rx="1.5" fill="#16D194"/>
</svg>
