<svg width="16" height="17" viewBox="0 0 16 17" fill="none" xmlns="http://www.w3.org/2000/svg">
  <path d="M15.9951 15.1511C15.9805 15.195 15.9611 15.2339 15.9464 15.2777C15.7128 15.9934 14.8461 16.2368 14.2765 15.7451C14.2278 15.7062 14.184 15.6575 14.1402 15.6137C12.1441 13.6175 10.1431 11.6165 8.14692 9.62039C8.1031 9.57657 8.06902 9.52301 8.02034 9.45972C7.95218 9.52301 7.90836 9.56683 7.86454 9.60578C5.8538 11.6165 3.83819 13.6321 1.82745 15.6477C1.49639 15.9788 1.11177 16.0859 0.673593 15.9301C-0.00314522 15.6867 -0.217364 14.8444 0.250023 14.2991C0.298709 14.2456 0.347395 14.192 0.40095 14.1433C2.39708 12.1472 4.39808 10.1462 6.39422 8.15006C6.43804 8.10625 6.49159 8.07217 6.57436 8.00887C6.49159 7.94558 6.4283 7.90663 6.38448 7.86282C4.37861 5.85208 2.36787 3.84134 0.357132 1.8306C-0.139467 1.334 -0.115123 0.603709 0.430162 0.219088C0.585957 0.111978 0.790439 0.0730292 0.970578 0C1.0144 0 1.05334 0 1.09716 0C1.47691 0.0486862 1.73982 0.277511 1.99786 0.540416C3.95017 2.50247 5.91223 4.45965 7.86941 6.41684C7.90836 6.45579 7.95218 6.49473 8.03007 6.56776C8.06902 6.50934 8.09823 6.45092 8.14205 6.4071C10.0944 4.44992 12.0516 2.4976 14.0039 0.540416C14.2619 0.28238 14.5248 0.0486862 14.9046 0C14.9484 0 14.9873 0 15.0311 0C15.221 0.0778979 15.4206 0.131453 15.5959 0.238562C15.8296 0.379752 15.9221 0.628052 16 0.876351C16 0.993198 16 1.10518 16 1.22202C15.9221 1.53848 15.7176 1.76731 15.4937 1.99126C13.5267 3.95332 11.5647 5.92024 9.59777 7.88229C9.55395 7.92611 9.49553 7.94558 9.41763 7.99427C9.515 8.07703 9.55882 8.11112 9.59777 8.15006C11.5647 10.117 13.5316 12.0888 15.5034 14.0508C15.7225 14.2699 15.9221 14.4987 15.9951 14.8103C15.9951 14.9223 15.9951 15.0343 15.9951 15.1511Z" fill="black" />
</svg>

