<svg width="30" height="30" viewBox="0 0 30 30" fill="none" xmlns="http://www.w3.org/2000/svg">
<path d="M16.2986 4.47743C15.5493 4.08633 14.52 4.08045 13.7654 4.47016C10.5421 6.13484 7.62125 8.04212 5.0638 10.1554C4.72276 10.4372 4.49708 10.8316 4.50094 11.2824C4.50479 11.7317 4.7356 12.1217 5.07551 12.3996C7.61239 14.4739 10.5365 16.3835 13.7012 18.0352C14.4506 18.4263 15.4799 18.4322 16.2345 18.0425C19.4578 16.3778 22.3786 14.4705 24.9361 12.3572C25.2771 12.0754 25.5028 11.681 25.4989 11.2302C25.4951 10.7809 25.2643 10.3909 24.9244 10.113C22.3875 8.03868 19.4634 6.12914 16.2986 4.47743Z" fill="black"/>
<path d="M26.1975 17.1643C26.6367 16.8901 26.7704 16.3118 26.4962 15.8726C26.222 15.4334 25.6437 15.2996 25.2045 15.5738L17.5705 20.3399C16.8904 20.7645 15.9665 21.0012 14.9997 21.0013C14.0329 21.0013 13.1089 20.7647 12.4287 20.3402L4.87832 15.628C4.43908 15.3539 3.86077 15.4878 3.58664 15.927C3.31251 16.3663 3.44636 16.9446 3.88561 17.2187L11.436 21.9309C12.4721 22.5775 13.7574 22.8764 14.9998 22.8763C16.2422 22.8762 17.5275 22.5772 18.5634 21.9304L26.1975 17.1643Z" fill="black"/>
<path d="M26.1976 21.8577C26.6367 21.5834 26.7704 21.0051 26.4962 20.5659C26.2219 20.1267 25.6436 19.993 25.2044 20.2673L18.5933 24.3959C17.6272 24.9992 16.3349 25.3253 14.9997 25.3254C13.6644 25.3255 12.372 24.9995 11.4057 24.3963L4.87841 20.3215C4.4392 20.0473 3.86088 20.1811 3.5867 20.6203C3.31252 21.0595 3.4463 21.6378 3.88551 21.912L10.4128 25.9868C11.7351 26.8122 13.3889 27.2005 14.9998 27.2004C16.6107 27.2003 18.2644 26.8118 19.5864 25.9862L26.1976 21.8577Z" fill="black"/>
</svg>
