<svg width="16" height="20" viewBox="0 0 16 20" fill="none" xmlns="http://www.w3.org/2000/svg">
<g clip-path="url(#clip0)">
<path d="M11.4072 20C8.80081 20 6.19851 20 3.59213 20C3.56349 19.9877 3.53485 19.9714 3.50211 19.9673C1.82454 19.6972 0.699332 18.4165 0.69524 16.7185C0.682965 13.257 0.691149 9.79133 0.691149 6.32979C0.691149 5.84289 0.957106 5.58511 1.44401 5.58511C5.47838 5.58511 9.51685 5.58511 13.5512 5.58511C13.633 5.58511 13.7231 5.58921 13.8008 5.60966C14.1363 5.69559 14.3041 5.94927 14.3041 6.36662C14.3041 9.06711 14.3041 11.7676 14.3041 14.4722C14.3041 15.2782 14.3286 16.0884 14.2918 16.8944C14.2345 18.1588 13.6167 19.0876 12.4915 19.6563C12.1601 19.8241 11.7713 19.8854 11.4072 20ZM4.22634 12.7946C4.22634 13.7971 4.22634 14.7995 4.22634 15.802C4.22634 15.9002 4.23043 15.9984 4.2468 16.0925C4.30817 16.4689 4.61914 16.7431 4.99966 16.7676C5.39655 16.7922 5.74025 16.5589 5.84254 16.1825C5.87527 16.0597 5.88346 15.9247 5.88346 15.7979C5.88755 13.793 5.88346 11.7881 5.88346 9.78315C5.88346 9.68495 5.87936 9.58675 5.863 9.49264C5.79344 9.07529 5.41701 8.78479 4.99557 8.81752C4.52912 8.85434 4.23043 9.20623 4.22634 9.72996C4.22634 10.7488 4.22634 11.7717 4.22634 12.7946ZM10.773 12.7946C10.773 11.7922 10.773 10.7897 10.773 9.78724C10.773 9.68904 10.7689 9.59084 10.7525 9.49673C10.6911 9.11212 10.3802 8.83798 9.98739 8.81343C9.61504 8.78888 9.26316 9.03029 9.16087 9.39444C9.12814 9.5131 9.11995 9.63994 9.11995 9.76269C9.11586 11.7799 9.11586 13.7971 9.11995 15.8142C9.11995 15.9124 9.12405 16.0106 9.14041 16.1048C9.1977 16.4607 9.50457 16.7349 9.86464 16.7635C10.3966 16.8044 10.773 16.4362 10.773 15.8593C10.7771 14.8404 10.773 13.8175 10.773 12.7946Z" fill="black"/>
<path d="M4.94667 1.04746C4.95486 1.00655 4.96304 0.994272 4.96304 0.981997C4.99987 0.237316 5.24946 0 5.99005 0C7.01705 0 8.04815 0 9.07515 0C9.74209 0 10.0203 0.274141 10.0408 0.945172C10.0408 0.969722 10.0449 0.998363 10.0531 1.05155C10.1226 1.05155 10.1922 1.05155 10.2576 1.05155C11.1292 1.05155 12.0007 1.05155 12.8763 1.05155C14.1243 1.05565 14.9999 1.93126 15.004 3.17512C15.004 3.55155 15.008 3.93208 15.004 4.30851C14.9999 4.64812 14.8362 4.80769 14.4966 4.80769C9.8362 4.80769 5.17171 4.80769 0.511322 4.80769C0.171715 4.80769 0.00395734 4.64403 0.00395734 4.30851C0.008049 3.78887 -0.0165009 3.26514 0.0448739 2.74959C0.15944 1.81669 1.0146 1.0761 1.95568 1.05974C2.88039 1.04337 3.8051 1.05565 4.72982 1.05155C4.79528 1.04746 4.86893 1.04746 4.94667 1.04746Z" fill="black"/>
</g>
<defs>
<clipPath id="clip0">
<rect width="15.0041" height="20" fill="white"/>
</clipPath>
</defs>
</svg>
