<svg className="email-icon" width="21" height="15" viewBox="0 0 21 15" fill="none" xmlns="http://www.w3.org/2000/svg">
                          <path fillRule="evenodd" clipRule="evenodd" d="M0.819122 4.06547C0.529106 6.39135 0.542033 9.07386 0.945595 11.3903C1.16889 12.672 2.38082 13.6547 3.87682 13.7669L5.44028 13.8842C8.7003 14.1288 11.9788 14.1288 15.2388 13.8842L16.8023 13.7669C18.2983 13.6547 19.5102 12.672 19.7335 11.3903C20.137 9.07385 20.15 6.3915 19.86 4.06561C19.8225 3.79596 19.7803 3.52668 19.7335 3.25784C19.5102 1.97611 18.2983 0.99349 16.8023 0.881241L15.2388 0.763931C11.9788 0.519323 8.7003 0.519323 5.44028 0.763931L3.87682 0.881241C2.38082 0.99349 1.16889 1.97611 0.945595 3.25784C0.898768 3.52663 0.856611 3.79587 0.819122 4.06547ZM5.57476 2.09926C8.7453 1.86137 11.9338 1.86137 15.1043 2.09926L16.6678 2.21657C17.4487 2.27516 18.0813 2.78809 18.1979 3.45716C18.21 3.52664 18.2218 3.59616 18.2332 3.6657L12.4762 6.42636C11.1474 7.06358 9.53161 7.06358 8.20278 6.42636L2.44586 3.66573C2.45731 3.59618 2.46909 3.52665 2.48119 3.45716C2.59776 2.78809 3.23038 2.27516 4.0113 2.21657L5.57476 2.09926ZM18.4232 5.1079C18.624 7.13431 18.5489 9.176 18.1979 11.191C18.0813 11.86 17.4487 12.373 16.6678 12.4316L15.1043 12.5489C11.9338 12.7868 8.7453 12.7868 5.57476 12.5489L4.0113 12.4316C3.23039 12.373 2.59776 11.86 2.48119 11.191C2.13015 9.17601 2.05504 7.13434 2.25584 5.10794L7.44864 7.59805C9.24647 8.46016 11.4325 8.46017 13.2304 7.59805L18.4232 5.1079Z" fill="#C4C4C4" />
                        </svg>