<svg width="196" height="11" viewBox="0 0 196 11" fill="none" xmlns="http://www.w3.org/2000/svg">
<path d="M29.0182 -2.32633L29.5067 -2.47132L28.5562 -2.6792L29.0118 -2.83136C29.4687 -2.82997 30.0607 -2.60197 30.3828 -2.72312C30.4221 -2.84042 29.9246 -2.87806 29.7977 -2.97152C29.6853 -3.06731 29.5937 -3.16247 29.5237 -3.25588C29.7725 -3.25487 30.0461 -3.23228 30.3281 -3.18943C30.7075 -3.11944 31.0796 -3.08542 31.4034 -3.09112C32.0655 -3.07222 32.7051 -3.09108 33.4249 -3.08692L33.1854 -3.36922L34.1131 -3.30318C34.2115 -3.28167 34.3286 -3.31626 34.4253 -3.28965C35.2292 -3.06454 35.5694 -3.18721 35.9554 -3.28892C36.0345 -3.31524 36.1299 -3.33489 36.2389 -3.34736C37.3114 -3.29344 38.2785 -2.9779 39.2444 -2.81592C39.4262 -2.77456 39.6006 -2.72148 39.7551 -2.66042C40.0911 -2.54173 40.4648 -2.44483 40.842 -2.37858C41.2193 -2.31232 41.588 -2.27884 41.9146 -2.28118C42.6368 -2.2838 43.4526 -2.20529 44.2833 -2.05326C44.5303 -2.00318 44.7774 -1.97015 45.009 -1.95626C45.2406 -1.94237 45.4515 -1.94793 45.6283 -1.97259L46.1899 -1.81144C46.4333 -1.87683 46.742 -1.91271 47.0972 -1.91689C47.4524 -1.92108 47.8466 -1.89348 48.2561 -1.83579C48.6925 -1.7732 49.1357 -1.73101 49.5884 -1.66483C50.5236 -1.53832 51.4338 -1.46095 52.2906 -1.43513C53.5667 -1.35859 54.8134 -1.29942 56.1006 -1.204C56.906 -1.15794 57.6906 -1.13261 58.4499 -1.12813C59.3594 -1.11012 60.3432 -1.02291 61.3539 -0.870708C61.306 -0.72791 60.8628 -0.770097 60.5654 -0.774929C59.6059 -0.798663 58.6238 -0.860167 57.6367 -0.906369C57.192 -0.924403 56.7595 -0.931235 56.3418 -0.926812C55.6435 -0.932731 54.9073 -0.97078 54.1459 -1.04031C52.9431 -1.11681 51.7787 -1.15359 50.6646 -1.15026C50.5773 -1.1446 50.4973 -1.13458 50.4259 -1.12036C50.411 -1.10804 50.4081 -1.09251 50.4174 -1.07525C50.4267 -1.05799 50.4479 -1.03958 50.479 -1.02179C50.5101 -1.004 50.55 -0.987427 50.595 -0.973645C50.64 -0.959863 50.6885 -0.949337 50.7359 -0.943082C51.1783 -0.846309 51.6536 -0.74237 52.0708 -0.727747C52.087 -0.726655 52.1041 -0.72416 52.1211 -0.720441C52.1382 -0.716722 52.1546 -0.711872 52.1692 -0.706243C53.1033 -0.501943 53.8713 -0.536516 54.5989 -0.503277C55.807 -0.413443 56.9716 -0.371481 58.075 -0.378027C58.2418 -0.377582 58.4219 -0.365904 58.6087 -0.343415C59.7644 -0.252253 60.8451 -0.242056 61.8001 -0.313288C62.1931 -0.331334 62.5585 -0.371845 62.9809 -0.372524C63.2411 -0.375312 63.4676 -0.401163 63.6467 -0.448533C63.8259 -0.495901 63.954 -0.563808 64.0234 -0.648167C64.2016 -0.603752 64.3825 -0.56417 64.5641 -0.529892C64.6726 -0.510293 64.7766 -0.505087 64.8552 -0.515343C64.9337 -0.525599 64.9809 -0.55055 64.9873 -0.585151C65.0198 -0.682049 64.7723 -0.730711 64.5575 -0.772205C64.6871 -0.792987 64.833 -0.805211 64.9919 -0.808586C65.8868 -0.830728 66.8467 -0.804595 67.8507 -0.730763C68.6302 -0.642389 69.2524 -0.71432 70.0725 -0.589692C70.1709 -0.568187 70.2518 -0.599751 70.3423 -0.60733C70.5783 -0.647242 70.8723 -0.656211 71.1987 -0.633456C71.5252 -0.610705 71.8743 -0.556913 72.2159 -0.476748C72.6412 -0.695759 73.5599 -0.445558 74.2384 -0.423073C74.4473 -0.311694 74.2076 -0.331275 74.1973 -0.300675C74.187 -0.270076 74.1973 -0.300682 74.1153 -0.318603C73.4379 -0.160871 72.5099 -0.126478 71.4613 -0.220255C71.2674 -0.219867 71.0827 -0.21268 70.9088 -0.198769C70.6455 -0.179075 70.3486 -0.181043 70.0312 -0.20458C69.6844 -0.221869 69.3658 -0.213658 69.0908 -0.180346C68.9326 -0.180889 68.7988 -0.1642 68.7018 -0.131818C68.6048 -0.0994355 68.5478 -0.0524085 68.5361 0.00489075C68.6417 0.0490646 68.7589 0.0894838 68.8829 0.124544C69.5307 0.262977 70.1766 0.320279 70.6936 0.285172C71.5935 0.224687 72.6643 0.283714 73.6211 0.263063C74.2679 0.254697 74.9562 0.278526 75.673 0.334103C75.673 0.334103 75.6541 0.390201 75.6524 0.395301C75.7372 0.41959 75.8263 0.439078 75.9146 0.45265C75.9146 0.45265 75.9146 0.45265 75.9232 0.427151C75.8839 0.402663 75.8306 0.379625 75.7696 0.360708L75.5565 0.314112C75.7013 0.301985 75.8366 0.265883 75.9875 0.287939C76.3055 0.328922 76.6093 0.346221 76.8809 0.338815C77.1524 0.331408 77.386 0.299441 77.5675 0.244835C77.8893 0.174851 78.2895 0.143025 78.7423 0.151413C79.0892 0.143771 79.4236 0.12735 79.7438 0.102229C79.7438 0.102229 79.7644 0.0410361 79.916 0.0085102C79.7724 -0.0316053 79.6226 -0.064364 79.4736 -0.0882597C78.8252 -0.147961 78.1751 -0.202562 77.5379 -0.24338C77.3032 -0.247789 77.0826 -0.240951 76.8802 -0.222997C76.3196 -0.201987 75.6898 -0.231805 75.0274 -0.310713C75.0274 -0.310713 74.8963 -0.339385 74.8308 -0.353722C75.0167 -0.488246 75.6575 -0.353571 75.9167 -0.444675C76.0745 -0.443015 76.3521 -0.431561 76.3426 -0.455545C76.321 -0.48755 76.3184 -0.517282 76.335 -0.542608C76.3517 -0.567935 76.3871 -0.588229 76.4388 -0.602036C76.4905 -0.615842 76.5572 -0.622822 76.6341 -0.622468C76.711 -0.622112 76.7962 -0.61443 76.8836 -0.599984C77.613 -0.521825 78.3001 -0.500089 78.9027 -0.536109C79.1311 -0.535414 79.3872 -0.512249 79.6139 -0.506453C79.7527 -0.499473 79.8794 -0.503356 79.9872 -0.517886C80.535 -0.6249 81.2721 -0.632715 82.0879 -0.540158C82.4822 -0.506881 82.8506 -0.502431 83.1741 -0.527035C83.4043 -0.531439 83.5019 -0.455355 83.6658 -0.419512L84.3616 -0.343957L83.4679 -0.249285C83.659 -0.0323238 83.8109 0.0392157 84.123 0.0527329C84.5783 0.0731445 85.0216 0.0823647 85.4506 0.0803393C85.7678 0.0785554 86.0298 0.0318317 86.4593 0.114822C86.5351 0.128357 86.6082 0.132738 86.6662 0.127231C87.1691 0.0535541 87.7748 0.0366442 88.4419 0.0776575C88.7872 -0.0603079 89.3755 0.0738299 89.9197 0.181909C90.0953 0.0779845 89.7771 0.0302804 89.5873 -0.0331297C90.0425 -0.0266399 90.5011 -0.0303451 90.9709 -0.015171C91.1123 -0.0206953 91.2738 -0.0112448 91.4429 0.0124353C91.6119 0.0361154 91.7839 0.0733789 91.9454 0.12131C92.0241 0.152281 92.1189 0.175589 92.2103 0.186397C92.3016 0.197203 92.3825 0.194684 92.436 0.179355C92.6799 0.134151 93.0705 0.175787 93.272 0.0994298C93.3436 0.0818695 93.4461 0.0794176 93.5609 0.0925039C93.6758 0.10559 93.7956 0.133367 93.8989 0.170856C93.7858 0.182552 93.6851 0.200972 93.5991 0.225706C93.2907 0.306057 93.4039 0.440314 93.7958 0.635502C94.3975 0.624766 95.0121 0.627816 95.5698 0.591029C95.8806 0.558006 96.2615 0.568329 96.6696 0.620839C97.0777 0.673349 97.4969 0.765963 97.8799 0.888267C98.0185 0.935298 98.1765 0.967869 98.3226 0.979519C98.4686 0.991169 98.5919 0.98104 98.668 0.951139C98.7153 0.916559 98.73 0.872795 98.7108 0.823641L98.3175 0.737623C98.3175 0.737623 98.3329 0.691724 98.3363 0.681524L98.9017 0.673812C99.2009 0.673545 99.513 0.687065 99.7957 0.683214C100.211 0.657598 100.685 0.671876 101.189 0.72516C101.654 0.779798 102.11 0.821097 102.555 0.848696C102.985 0.877101 103.297 0.786546 103.706 0.772083C104.016 0.761184 104.356 0.772832 104.715 0.806577C105.334 0.866424 105.903 0.866535 106.368 0.806898C106.911 1.12821 107.175 1.18045 107.679 1.09363L107.916 1.06883L107.981 1.13775L108.162 1.12259C108.501 1.10909 108.84 1.0956 109.193 1.09078C109.685 1.1206 110.215 1.20083 110.733 1.32363C110.832 1.34513 110.965 1.4182 111.052 1.4754C111.138 1.53261 111.326 1.70518 111.465 1.81752C111.314 1.89953 111.147 1.97795 111.027 2.07223C111.015 2.08833 111.017 2.10754 111.031 2.1283C111.045 2.14906 111.072 2.1708 111.109 2.19177C111.147 2.21274 111.194 2.23235 111.246 2.24903C111.299 2.26571 111.356 2.279 111.412 2.28782C111.523 2.30683 111.631 2.31951 111.734 2.32532C112.24 2.33535 112.725 2.3279 113.184 2.30303C113.351 2.26796 113.581 2.26462 113.835 2.29357C114.09 2.32252 114.356 2.38208 114.59 2.46282C115.19 2.41435 115.888 2.42867 116.634 2.50478C117.424 2.45849 118.378 2.55211 119.115 2.45068C119.098 2.50168 119.174 2.58948 119.28 2.64007C119.448 2.71691 119.638 2.78813 119.843 2.8507L121.403 2.97286C121.461 3.03568 121.534 3.09927 121.62 3.16281C121.68 3.213 121.783 3.26211 121.908 3.29973C122.033 3.33735 122.171 3.36054 122.292 3.36435C122.602 3.38297 122.862 3.34134 123.232 3.44418C122.662 3.54139 121.894 3.52848 121.063 3.40774C120.283 3.31591 119.533 3.27002 118.84 3.27177C118.611 3.27107 118.31 3.27643 118.239 3.33198C118.081 3.48897 117.667 3.46415 117.184 3.43519C116.805 3.40349 116.458 3.40705 116.173 3.44557C115.888 3.4841 115.672 3.55649 115.544 3.65679C115.512 3.75368 115.589 3.83639 115.922 3.89278L117.306 4.11887C117.51 4.0898 117.704 4.05539 117.886 4.01579C118.194 3.96318 118.573 3.94874 118.995 3.97359C119.416 3.99844 119.87 4.06192 120.319 4.15907C120.548 4.20925 120.777 4.25942 120.944 4.23558C121.09 4.20819 121.224 4.1754 121.346 4.13745C121.371 4.11202 121.38 4.08274 121.375 4.05075C121.463 4.06563 121.552 4.08497 121.637 4.1081C122.321 4.378 122.85 4.37333 123.331 4.30332C123.461 4.28251 123.56 4.24944 123.692 4.22353C123.824 4.19762 123.87 4.16399 123.99 4.17378C124.945 4.26229 125.221 3.96664 126.026 3.97851C126.065 3.96697 126.089 3.9497 126.097 3.92831C126.104 3.90692 126.093 3.8821 126.067 3.85612C126.01 3.83266 125.944 3.81249 125.875 3.79746C125.807 3.78243 125.737 3.77302 125.674 3.7701C125.303 3.73216 124.976 3.74379 124.748 3.80301C124.586 3.82721 124.415 3.84649 124.236 3.86075L123.43 3.4326C124.211 3.47185 124.949 3.47159 125.629 3.43184C125.777 3.40951 126.028 3.44798 126.236 3.45529L127.771 3.4953C128.087 3.49862 128.355 3.4315 128.795 3.58796C128.795 3.58796 129.086 3.61319 129.163 3.59183C129.241 3.57046 129.585 3.4376 129.79 3.35104C130.028 3.37572 130.357 3.44231 130.505 3.41999C130.764 3.36515 130.988 3.29485 131.174 3.21035L132.101 3.33098C132.1 3.43814 132.066 3.53895 132 3.63188C131.927 3.7215 131.93 3.82908 132.007 3.94582C132.084 4.06256 132.233 4.18515 132.443 4.30357L133.358 4.93076C133.507 4.97276 133.667 5.00103 133.814 5.01174C133.962 5.02244 134.09 5.01506 134.182 4.9906C134.576 4.91797 135.017 4.86119 135.411 4.78856C135.919 4.89967 135.789 5.07914 136.158 5.23656L137.354 5.4982C137.537 5.74066 137.723 5.97292 137.168 6.05409C137.057 6.06828 137.132 6.16119 137.031 6.19937C137.462 6.38133 137.937 6.43579 138.374 6.54787C138.546 6.62846 138.691 6.71378 138.8 6.7997C138.919 6.92906 139.162 7.0612 139.475 7.16759C139.788 7.27398 140.147 7.34608 140.473 7.36832C141.021 7.43643 141.582 7.53873 142.131 7.67064C142.318 7.71651 142.511 7.74993 142.696 7.76865C142.881 7.78736 143.054 7.79094 143.203 7.77915C143.734 7.75838 144.183 7.68696 144.522 7.56953C144.857 7.46988 145.308 7.42186 145.835 7.4298C146.737 7.62694 146.919 7.92398 147.464 8.18561L146.522 8.21494C146.488 8.31694 146.55 8.44555 146.164 8.44319C145.778 8.44084 145.974 8.53843 146.099 8.63699C146.143 8.68656 146.229 8.73756 146.343 8.78135C146.456 8.82513 146.59 8.85901 146.722 8.87725L147.524 9.0034C147.808 9.05141 148.083 9.07191 148.319 9.06265C148.555 9.05339 148.743 9.01473 148.861 8.95092C148.996 8.89033 149.184 8.84934 149.411 8.83047C149.701 8.78104 149.94 8.70752 150.118 8.6127L151.25 8.75085C151.298 8.65556 151.454 8.58876 151.69 8.56171C151.927 8.53467 152.23 8.54905 152.549 8.60243L153.312 8.68723C154.16 8.77974 154.346 8.74928 154.595 8.48065L153.577 8.0008C153.725 7.87441 153.868 7.76331 154.011 7.65222C153.757 7.49413 153.419 7.34461 153.031 7.21884C152.668 7.08369 152.295 6.9528 151.913 6.82667C151.499 6.69778 151.062 6.5857 150.548 6.44041C150.458 6.3934 150.328 6.31014 150.161 6.22991C149.994 6.15195 149.82 6.07554 149.64 6.00096C149.674 5.89896 149.705 5.80716 149.639 5.68876C149.956 5.72654 150.283 5.79261 150.591 5.88103C150.899 5.96945 151.178 6.07742 151.404 6.19522C151.442 6.21611 151.488 6.23573 151.54 6.25276C151.592 6.26979 151.648 6.28383 151.705 6.29392C152.261 6.3663 152.527 6.51751 152.799 6.70291C152.982 6.79768 153.218 6.88185 153.475 6.94372C153.966 7.05125 154.448 7.18938 154.918 7.30862C155.062 7.34836 155.211 7.38106 155.36 7.40539C155.852 7.48275 156.346 7.59091 156.819 7.72439C156.973 7.75831 157.121 7.80321 157.25 7.85532C157.38 7.90743 157.487 7.96523 157.563 8.02392C157.446 8.08822 157.382 8.16939 157.377 8.26252C157.356 8.32371 157.702 8.44847 157.865 8.5389C158.028 8.62933 157.708 8.58672 157.599 8.59581C157.154 8.61331 157.071 8.64997 157.338 8.85066C157.427 8.91377 157.486 8.97692 157.512 9.03618C157.537 9.09543 157.529 9.14953 157.486 9.19513C157.423 9.38383 157.23 9.53876 157.098 9.72331C157.303 9.84489 157.647 9.97474 157.684 10.1253C157.702 10.1586 157.74 10.194 157.795 10.2288C157.851 10.2636 157.922 10.297 158.004 10.3265C158.219 10.3902 158.415 10.4664 158.577 10.5491C158.738 10.6319 158.86 10.719 158.934 10.8037C158.958 10.8388 159.016 10.8759 159.097 10.9078C159.178 10.9397 159.275 10.9638 159.369 10.9755C159.481 10.9898 159.582 10.9879 159.65 10.9702C159.718 10.9525 159.749 10.9204 159.735 10.8804C159.738 10.8053 159.723 10.727 159.691 10.6462C159.709 10.5901 159.728 10.534 159.654 10.4411C159.99 10.475 160.342 10.543 160.673 10.6376C161.005 10.7322 161.301 10.8498 161.532 10.9777C161.786 11.1101 162.021 11.249 162.304 11.4038C162.245 11.5772 162.245 11.5772 162.846 11.8838L166.033 12.0333L166.686 12.2363C167.295 12.4133 167.44 12.4012 167.822 12.3097L168.08 12.2237C168.62 12.342 169.243 12.4782 169.581 12.2565C169.691 12.401 169.763 12.4495 169.738 12.4714C169.577 12.6846 169.296 12.8655 168.907 13.0069C168.808 13.04 168.739 13.0904 168.623 13.1199C168.251 13.2864 168.165 13.5436 168.382 13.839C168.49 13.9697 168.646 14.1036 168.847 14.2363C168.553 14.4204 168.165 14.573 167.692 14.6899C167.29 14.7803 166.959 14.9014 166.709 15.0497C166.484 15.1993 166.148 15.3117 165.718 15.3805C165.501 15.4098 165.342 15.4675 165.258 15.548C165.233 15.7658 165.29 15.999 165.429 16.2424C165.455 16.3165 165.53 16.3965 165.646 16.4761C165.763 16.5558 165.919 16.633 166.102 16.7016C166.102 16.7016 166.19 16.7537 166.232 16.7848C166.267 17.0486 166.135 17.281 165.845 17.4665C165.798 17.5192 165.7 17.5572 165.563 17.5765C165.427 17.5958 165.256 17.5957 165.07 17.5761C164.676 17.5447 164.307 17.5408 163.926 17.5231C163.516 17.4982 163.154 17.5179 162.879 17.5801C162.605 17.6424 162.427 17.7449 162.365 17.8769C162.361 17.9143 162.349 17.9501 162.329 17.984C162.318 18.0015 162.311 18.0203 162.31 18.0401L163.186 18.4724L162.195 18.6445C162.137 18.8179 162.613 18.9219 162.851 19.0506L162.704 19.1224C162.514 19.1631 162.259 19.0853 162.027 19.0403L161.798 18.9901L161.771 19.0717C161.628 19.1828 161.107 19.0579 160.904 19.1393C160.7 19.2208 160.845 19.3127 161.15 19.4012C161.362 19.467 161.589 19.5195 161.815 19.5546C162.041 19.5898 162.259 19.6068 162.454 19.6043C162.57 19.5956 162.667 19.5757 162.737 19.5459C163.148 19.4188 163.602 19.3096 164.096 19.219C164.474 19.1376 164.948 19.103 165.485 19.1176C165.642 19.1114 165.832 19.1307 166.02 19.172C166.209 19.2133 166.385 19.2739 166.517 19.3434L166.795 19.3548C166.795 19.3548 166.946 19.4263 166.925 19.4381C166.819 19.65 166.942 19.9091 167.275 20.177L166.985 20.2013C166.572 20.1764 166.834 20.3379 166.772 20.4174C166.478 20.4024 166.096 20.3352 165.957 20.4361L165.748 20.4288L165.83 20.4467L165.929 20.4136L166.318 20.5645C166.134 20.5898 166 20.6208 165.837 20.6345C165.747 20.6463 165.676 20.6673 165.627 20.6961C165.578 20.7249 165.553 20.7609 165.552 20.8021C165.553 20.8653 165.504 20.9186 165.412 20.9567C165.319 20.9949 165.185 21.0166 165.022 21.02C164.828 21.0213 164.717 21.0901 164.603 21.1145L165.097 21.5291C165.097 21.5291 164.852 21.4754 164.985 21.5484L165.002 21.4974L165.302 21.6012C165.518 21.6922 165.668 21.7143 165.796 21.6491C165.923 21.5839 165.894 21.6706 165.955 21.6456C165.933 21.7119 165.794 21.7582 165.676 21.7979C165.538 21.8291 165.383 21.8521 165.213 21.8664C165.52 22.158 165.534 22.1666 165.086 22.2438C164.638 22.321 164.793 22.4369 164.418 22.4535C164.043 22.47 164.469 22.6672 164.72 22.7057C164.906 22.731 165.096 22.7704 165.276 22.8212C165.456 22.8719 165.623 22.9329 165.765 22.9999L165.689 23.2243C165.579 23.2057 165.469 23.1815 165.362 23.1526C164.998 23.0294 164.668 22.9133 164.345 22.985L164.499 23.1555L163.371 23.0566C163.4 23.1844 163.572 23.3299 163.85 23.4625C163.808 23.5354 163.783 23.6121 163.773 23.692C163.755 23.7481 163.643 23.7129 163.571 23.7189C163.313 23.7283 163.101 23.7663 162.954 23.8296C162.807 23.8929 162.729 23.9796 162.728 24.082C162.699 24.1686 163.096 24.3485 163.344 24.3426C163.964 24.3599 164.634 24.4266 165.319 24.5391C165.736 24.5537 165.795 24.3257 166.481 24.4814C166.495 24.5866 166.407 24.6719 166.231 24.7242C166.055 24.7765 165.8 24.7931 165.504 24.7714C165.672 25.0051 166.602 25.0661 166.643 25.3105C166.411 25.2932 166.164 25.2526 165.925 25.1926C165.686 25.1327 165.464 25.0554 165.28 24.9686C165.24 24.9472 165.191 24.9275 165.135 24.9112C165.08 24.895 165.021 24.8828 164.964 24.8757C164.906 24.8686 164.853 24.867 164.808 24.8708C164.763 24.8747 164.727 24.8839 164.706 24.8977C164.834 24.9861 164.976 25.0882 165.137 25.1838C165.299 25.2793 165.338 25.3206 165.454 25.3406C166.323 25.5306 166.736 25.8727 167.487 26.0973C167.684 26.1403 167.708 26.277 167.537 26.2616C167.375 26.2461 167.228 26.2481 167.113 26.2674C166.998 26.2867 166.919 26.3224 166.885 26.3707C166.759 26.427 166.602 26.4718 166.418 26.504C167.189 26.8551 168.108 27.1653 169.088 27.4055C169.274 27.453 169.468 27.4819 169.641 27.4881C170.189 27.4885 170.77 27.5163 171.372 27.5711C171.586 27.5861 171.784 27.5847 171.954 27.567C172.514 27.5251 172.958 27.6168 173.364 27.8752L174.035 28.2849C174.013 28.3512 173.9 28.4251 173.813 28.5265L174.338 28.7453L178.342 28.2415L179.146 28.7293L180.298 28.7022C180.387 28.7163 180.475 28.7357 180.56 28.7595C180.794 28.9036 180.976 29.042 181.229 29.1794C181.482 29.3168 181.933 29.3335 182.248 29.4955C182.563 29.6575 182.879 29.6608 183.269 29.757C183.306 29.8824 183.268 29.9952 183.158 30.0885C183.122 30.1956 182.924 30.2617 182.889 30.3637C182.893 30.4668 182.819 30.5544 182.675 30.6184C182.531 30.6824 182.32 30.7209 182.063 30.7304C181.341 30.9499 180.471 31.1061 179.479 31.1945C179.392 31.2009 179.32 31.2158 179.267 31.2381C179.214 31.2604 179.182 31.2898 179.172 31.3244C179.173 31.4244 179.107 31.5109 178.978 31.5774C178.849 31.6439 178.661 31.6889 178.427 31.7089C178.365 31.7129 178.318 31.7255 178.292 31.745C178.203 31.7576 178.139 31.7817 178.104 31.815C178.07 31.8483 178.067 31.8897 178.096 31.9351C178.125 31.9805 178.185 32.0284 178.27 32.0743C178.354 32.1201 178.461 32.1623 178.58 32.1967C178.752 32.2522 178.928 32.3053 179.107 32.3558C179.097 32.3864 178.919 32.3914 178.945 32.4189C179.015 32.5069 179.032 32.5894 178.993 32.6597C178.954 32.7301 178.861 32.7864 178.721 32.8243L179.678 33.5372C180.259 33.636 180.829 33.8034 181.279 34.0078C181.28 34.0413 181.254 34.0694 181.204 34.0892C181.154 34.1091 181.082 34.12 180.995 34.1209C180.762 34.1355 180.541 34.1638 180.289 34.18C180.135 34.192 180.007 34.2185 179.913 34.2579C179.818 34.2974 179.758 34.3489 179.737 34.4096L180.299 34.6748C180.119 34.7394 179.986 34.7704 179.867 34.8101C179.934 34.8935 180.05 34.9797 180.205 35.0621C180.361 35.1445 180.551 35.2209 180.763 35.2853C180.819 35.2986 180.877 35.3083 180.933 35.3139C180.988 35.3194 181.04 35.3207 181.086 35.3177C181.521 35.2267 182.03 35.3873 182.524 35.5392C183.019 35.6911 183.287 35.7827 183.652 35.9008L184.35 35.9167C184.527 35.9726 184.685 36.0384 184.811 36.1087C184.937 36.1791 185.028 36.2521 185.076 36.3218C185.039 36.434 184.708 36.3725 184.51 36.3841C184.042 36.4539 183.426 36.439 182.765 36.3419C182.601 36.306 182.433 36.335 182.274 36.3384C181.93 36.3524 181.599 36.3751 181.284 36.4065C181.076 36.4357 180.881 36.4718 180.702 36.5147C180.654 36.6575 181.409 36.7678 180.98 36.8383C181.128 36.8706 181.183 36.9155 181.259 36.8992C181.745 36.992 182.223 37.0378 182.639 37.0315C183.438 37.0118 184.344 37.0768 185.285 37.2213C186.3 37.371 187.273 37.4339 188.125 37.4047C188.45 37.403 188.813 37.4337 189.186 37.4944C189.627 37.5784 190.065 37.6313 190.471 37.6495C190.605 37.6501 190.755 37.6644 190.908 37.6912C191.061 37.718 191.213 37.7566 191.351 37.8037C191.339 37.8394 191.208 37.8653 191.237 37.8827C191.657 38.1499 191.828 38.428 192.475 38.7009C192.918 38.7977 193.426 38.9088 193.715 38.7805C194.004 38.6522 193.901 38.5419 193.325 38.2134C193.45 38.2087 193.6 38.2241 193.75 38.2568C193.9 38.2896 194.039 38.3376 194.144 38.3927L194.642 38.6384L195.091 38.8734C195.052 38.9907 195.021 39.0825 194.988 39.1794C194.937 39.2824 194.993 39.4076 195.15 39.5377C195.244 39.6087 195.326 39.6797 195.395 39.7501C195.676 40.0316 195.757 40.2977 195.63 40.5186C195.386 40.8361 195.046 41.1282 194.615 41.3916C194.16 41.6478 193.911 41.971 193.536 42.2503C193.344 42.3774 193.112 42.4914 192.841 42.591C192.327 42.8125 191.763 43.0232 191.248 43.2498C190.732 43.4764 190.149 43.6392 189.577 43.8259C188.724 44.0476 187.802 44.239 186.816 44.3991C186.206 44.5394 185.58 44.6761 185.015 44.8374C184.349 45.0192 183.566 45.1497 182.686 45.2257C181.909 45.3168 181.215 45.4514 180.616 45.6271C180.554 45.6461 180.504 45.6702 180.469 45.6989C180.362 45.878 180.06 46.0043 179.61 46.0583C179.637 46.1108 179.672 46.1641 179.715 46.2181C179.777 46.2824 179.79 46.3426 179.752 46.3909C179.714 46.4392 179.626 46.4733 179.501 46.4888C179.141 46.5332 178.842 46.6085 178.617 46.7115C178.534 46.7374 178.483 46.775 178.467 46.8212C178.452 46.8674 178.472 46.9207 178.528 46.9767C178.576 47.0343 178.58 47.0873 178.538 47.1289C178.496 47.1704 178.41 47.1985 178.291 47.2097C177.987 47.2642 177.66 47.3081 177.315 47.341C176.579 47.4136 175.724 47.4127 174.8 47.3384C174.702 47.3169 174.603 47.35 174.488 47.3249C173.835 47.2417 173.228 47.2288 172.741 47.2878C172.171 47.3108 171.574 47.3062 170.973 47.317C170.103 47.3098 169.301 47.3536 168.589 47.4472C167.775 47.3567 167.318 47.514 166.631 47.517C165.997 47.5331 165.395 47.5719 164.833 47.6329C163.926 47.7137 163.023 47.7844 162.129 47.8791C161.291 47.9242 160.519 48.0105 159.827 48.1364C159.561 48.1933 159.081 48.1047 158.9 48.2239C158.719 48.3431 158.355 48.329 158.06 48.3686L157.13 48.4663C156.97 48.4895 156.794 48.5043 156.605 48.5102C155.741 48.5182 155.142 48.6774 154.339 48.7099L154.257 48.692C152.832 48.9286 151.202 49.0585 149.414 49.0778C148.369 49.1504 147.227 49.1469 146.118 49.2001C145.854 49.3065 145.229 49.1754 144.898 49.2726C144.566 49.3697 144.025 49.306 143.597 49.322C143.169 49.338 142.752 49.378 142.295 49.3766C141.898 49.377 141.563 49.4204 141.32 49.5028C140.766 49.639 140.09 49.7191 139.323 49.7394C138.309 49.7748 137.349 49.8551 136.317 49.8375C136.332 49.9367 136.269 50.0212 136.134 50.0821C135.999 50.1431 135.798 50.1783 135.55 50.1842C134.447 50.2221 133.446 50.3208 132.328 50.35L132.029 50.3503L128.685 50.4072C127.785 50.4182 126.916 50.4364 125.998 50.4489C125.653 50.3736 125.645 50.5032 125.407 50.4785C125.341 50.4147 125.262 50.3866 125.145 50.4212L125.119 50.4977L121.303 50.5992C119.809 50.6734 118.237 50.6956 116.602 50.6657C116.214 50.6732 115.851 50.6986 115.521 50.7414C115.214 50.757 114.895 50.7639 114.564 50.762C114.117 50.7428 113.68 50.7331 113.255 50.7329C112.137 50.7621 110.963 50.7464 109.739 50.725C108.515 50.7036 107.587 50.7416 106.498 50.7387C105.76 50.736 105.025 50.7232 104.262 50.693C103.897 50.6789 103.448 50.6025 103.07 50.5747C102.692 50.5468 102.569 50.5472 102.519 50.5911C102.355 50.7139 101.942 50.6345 101.611 50.6225C100.967 50.6021 100.876 50.5601 100.701 50.2427L101.491 50.1418C101.685 50.1093 101.928 50.1035 102.199 50.1252C102.469 50.1469 102.756 50.1952 103.033 50.2655C103.142 50.2957 103.256 50.3195 103.368 50.3356C103.481 50.3517 103.589 50.3598 103.687 50.3594C104.485 50.3422 105.271 50.3061 106.037 50.2766L106.149 50.2573L106.156 49.9742C106.055 49.9464 105.95 49.9234 105.845 49.9061L102.001 49.7224C101.119 49.6773 100.204 49.5756 99.3381 49.534C98.4725 49.4925 98.006 49.4672 97.3344 49.4243C97.051 49.3998 96.762 49.3677 96.4696 49.3282C96.4865 49.3009 96.4962 49.2719 96.4987 49.2415C96.5141 49.1956 96.5346 49.1344 96.4103 49.0853C96.2747 49.016 96.0936 48.9569 95.903 48.9196C95.724 48.895 95.5504 48.8811 95.3891 48.8784C94.6097 48.8547 93.7193 48.7051 92.908 48.4616L92.6248 48.6241C91.4065 48.5329 90.1701 48.4431 88.8975 48.3564C88.6427 48.3327 88.3752 48.2873 88.1153 48.2236C87.8367 48.1627 87.5803 48.0354 87.2871 47.9658C86.9973 47.9157 86.7095 47.8766 86.429 47.8493C86.505 47.8075 86.6051 47.7741 86.7262 47.7501C86.8454 47.7417 86.9323 47.7156 86.9742 47.6755C87.0161 47.6355 87.0109 47.5836 86.9593 47.5274C86.8685 47.4309 86.8287 47.34 87.026 47.3285C87.2084 47.3065 87.3389 47.2588 87.4021 47.1912C87.4653 47.1235 87.4586 47.0387 87.3828 46.9466C87.3496 46.8929 87.3262 46.8402 87.3126 46.789L87.2307 46.771C86.9604 46.5805 86.4206 46.5118 86.0332 46.3559C85.8503 46.3106 85.661 46.2847 85.495 46.282C85.0665 46.2484 84.6493 46.2338 84.2061 46.1916C83.9944 46.1722 83.773 46.1368 83.5549 46.0875C83.2436 46.0194 83.2108 46.0123 83.03 45.7647C83.3108 45.769 83.5333 45.7321 83.6601 45.66C83.7868 45.588 83.81 45.4853 83.7256 45.3694C83.494 45.1162 83.2493 44.8492 82.2015 44.6693C82.5432 44.6604 82.8721 44.6428 83.1867 44.6165C83.2782 44.6109 83.3468 44.5923 83.3831 44.5632C83.4195 44.5342 83.422 44.4961 83.3902 44.454C83.3584 44.4119 83.2938 44.3679 83.2052 44.3278C83.1166 44.2877 83.0082 44.2534 82.8944 44.2296C82.3413 44.0864 81.7643 43.9905 81.2282 43.9528C80.7765 43.9361 80.3687 43.9455 79.8411 43.945L79.2184 43.8088C79.2287 43.7782 79.1372 43.7363 79.1604 43.7195C79.3187 43.5625 79.4933 43.4091 79.673 43.2404C79.3859 43.1493 79.1372 43.0393 78.9553 42.9231C78.7735 42.8068 78.6658 42.689 78.6447 42.583C78.6292 42.5511 78.6333 42.522 78.6566 42.4977C78.6799 42.4735 78.7219 42.4548 78.7797 42.4429C78.9436 42.4224 79.0702 42.3832 79.1496 42.3285C79.229 42.2737 79.259 42.2048 79.2376 42.127L78.7533 41.8404C77.2952 41.6359 75.8633 41.4898 74.4842 41.4048L73.2392 41.3406C73.089 41.2639 73.1355 41.2303 73.2768 41.2284C73.4182 41.2264 73.8157 41.2477 74.0933 41.2591C74.333 41.2742 74.546 41.2643 74.7114 41.2305C74.8769 41.1966 74.9892 41.14 75.0376 41.0661L74.6196 40.7392C74.6401 40.678 74.6692 40.5913 74.8959 40.5971C75.0509 40.59 75.165 40.5592 75.22 40.5097C75.2749 40.4601 75.2674 40.3947 75.1988 40.3239C75.1883 40.2728 75.204 40.2262 75.245 40.1862C75.5803 40.1829 75.9139 40.1847 76.2182 40.1692C76.3599 40.164 76.4795 40.1451 76.569 40.1136C76.6585 40.0822 76.7157 40.039 76.7367 39.987C76.7476 39.9362 76.7209 39.8784 76.6586 39.8182C76.5963 39.7579 76.5002 39.697 76.3781 39.6403C75.9012 39.5701 75.465 39.5692 75.1651 39.6378C75.0582 39.6915 74.8865 39.7209 74.6726 39.722C74.4587 39.7231 74.2126 39.6959 73.9669 39.644C73.6855 39.5841 73.4047 39.5578 73.175 39.5698C72.9452 39.5817 72.7817 39.6312 72.7137 39.7093C72.4248 39.6789 72.1687 39.6558 71.9161 39.6224C71.618 39.5803 71.3363 39.5679 71.1013 39.5865C70.7254 39.5997 70.3203 39.592 69.8953 39.5636C68.6701 39.4927 67.4432 39.427 66.257 39.3974C65.9432 39.389 65.6717 39.4117 65.3613 39.3931C65.0509 39.3745 64.8054 39.4248 64.4172 39.3235C64.3433 39.3078 64.2689 39.2976 64.1999 39.294C64.1309 39.2903 64.0692 39.2931 64.0197 39.3023C63.3381 39.3824 62.5388 39.3937 61.669 39.3356C60.4776 39.3213 59.2422 39.281 58.0491 39.2719C57.6992 39.2798 57.3685 39.3008 57.0605 39.3349C56.8261 39.3555 56.5806 39.3694 56.3252 39.3766C56.1296 39.3831 55.9424 39.3641 55.9755 39.4753C56.0085 39.5865 55.7152 39.5169 55.5462 39.4964C54.9656 39.4424 54.3721 39.3694 53.7725 39.2781C53.1816 39.1789 52.6027 39.1212 52.0704 39.1084C51.6859 39.101 51.2894 39.1292 50.7951 38.9773C50.8139 38.9212 50.8327 38.8651 50.9403 38.8065C50.5372 38.6453 50.0772 38.5067 49.5985 38.402C49.1197 38.2972 48.636 38.2295 48.1872 38.2044L47.5683 37.8993C47.416 37.8635 47.2604 37.8374 47.1111 37.8226C46.9619 37.8079 46.822 37.8047 46.7 37.8134C46.6058 37.8178 46.4909 37.8065 46.3765 37.7815C46.2621 37.7565 46.1559 37.7194 46.0773 37.6772C45.9598 37.6235 45.8162 37.5772 45.6647 37.544C45.5131 37.5109 45.3602 37.4924 45.2251 37.4908C44.7999 37.4577 44.346 37.3811 43.9099 37.2689C43.7968 37.2031 43.7259 37.1352 43.7059 37.0734C43.686 37.0117 43.718 36.9588 43.7979 36.9214C43.9268 36.8553 43.9991 36.7711 44.0105 36.6738C44.022 36.5766 43.9724 36.4684 43.8646 36.3557C43.8095 36.2865 43.791 36.2211 43.8104 36.1632C43.8299 36.1054 43.8867 36.0564 43.9776 36.0191C44.3168 35.847 44.2261 35.7505 43.6711 35.4649C43.5809 35.4173 43.4722 35.3727 43.3519 35.3342C43.2316 35.2956 43.1024 35.2638 42.9723 35.2409C42.667 35.1943 42.366 35.1597 42.0746 35.1376C41.9107 35.1018 41.7427 35.1307 41.5538 35.1168C40.6097 35.0471 40.4715 34.9348 40.1658 34.6927L39.9429 34.5181C39.5297 34.3766 39.0777 34.2591 38.6195 34.1741C38.1614 34.089 37.7085 34.0385 37.2935 34.0262C37.1286 34.0253 36.9389 34.0011 36.7537 33.9574C36.1508 33.8238 35.5403 33.7313 34.9626 33.6861C34.6025 33.6607 34.2144 33.5949 33.8449 33.4966C33.4754 33.3983 33.1401 33.2716 32.8793 33.132C32.6451 33.0061 32.3387 32.8932 32.0027 32.8088C31.6094 32.7228 31.573 32.6218 31.7926 32.5439C32.0122 32.466 32.3801 32.3659 32.7066 32.284C32.8202 32.2562 32.8906 32.2109 32.9099 32.1533C32.9293 32.0957 32.8968 32.0279 32.8161 31.9576C32.7643 31.8373 32.7553 31.7231 32.7894 31.6178C32.8076 31.5741 32.795 31.5239 32.7526 31.4707C32.7101 31.4175 32.6386 31.3626 32.5431 31.3095C32.4475 31.2564 32.3301 31.2065 32.1987 31.1631C32.0672 31.1197 31.9249 31.0838 31.7812 31.0579C31.1748 30.9253 30.5848 30.7962 29.9665 30.6993C29.7074 30.6537 29.4485 30.597 29.1963 30.5309C28.68 30.3672 28.1276 30.2315 27.5712 30.1316C27.3072 30.087 27.049 30.0089 26.8526 29.9143C26.2332 29.6593 25.6624 29.3913 25.1506 29.115C25.0273 29.0293 24.8659 28.9457 24.6766 28.8695C24.4873 28.7932 24.2741 28.7259 24.0505 28.6719C23.8702 28.6324 23.7234 28.5456 23.5845 28.4878C23.4836 28.3541 23.4728 28.2303 23.5532 28.1282C23.6336 28.0261 23.8026 27.949 24.0443 27.9041C24.2734 27.8502 24.4879 27.7876 24.686 27.7215C24.9248 27.668 25.2087 27.6359 25.5272 27.6263C25.9043 27.5976 26.1832 27.5155 26.3275 27.3907C25.295 27.1649 24.3132 26.8407 23.4083 26.9165L22.7207 26.7114C22.748 26.6298 22.772 26.5584 22.7943 26.4921C22.9578 26.3714 23.0089 26.2192 22.9432 26.0484C22.889 25.9657 22.8939 25.8906 22.9573 25.8304C23.0208 25.7703 23.1405 25.7273 23.3044 25.7059C24.2754 25.4858 25.3983 25.3372 26.3089 25.0875C26.5944 25.0406 26.9286 25.0193 27.2975 25.0245C27.6543 25.0095 27.6394 24.8967 27.2287 24.7576C26.9982 24.685 26.7633 24.6153 26.5248 24.5489C25.473 24.5379 25.0446 24.8712 23.8444 24.7784L23.2881 24.3392C23.1377 24.3324 22.9917 24.3297 22.851 24.3312L20.8386 24.5096C20.671 24.5186 20.5405 24.5491 20.462 24.5977C20.3835 24.6464 20.3601 24.7112 20.3944 24.7848C20.4081 24.8748 20.3803 24.9574 20.3123 25.0295C20.2684 25.0801 20.2965 25.1472 20.3903 25.2163C20.6019 25.3721 20.3304 25.3948 20.159 25.434C20.1152 25.4378 20.0646 25.4374 20.0103 25.4328C19.956 25.4282 19.899 25.4194 19.8426 25.4071C19.7862 25.3947 19.7315 25.3791 19.6817 25.3609C19.632 25.3428 19.5881 25.3225 19.5526 25.3013C19.2506 25.1532 18.9864 24.9968 18.6894 24.8334C18.9002 24.6769 18.6522 24.4201 18.9811 24.2786C19.0179 24.2503 19.0327 24.2159 19.0244 24.1773C19.0162 24.1388 18.9851 24.097 18.9332 24.0546C18.7992 23.945 18.7354 23.8381 18.7482 23.7448C18.761 23.6515 18.8499 23.575 19.006 23.5231L19.0248 23.467C18.6132 23.2784 18.7223 23.1107 18.5606 22.9111L18.1646 22.7807C17.1793 22.4667 17.1776 22.4718 16.3294 22.4833C16.1584 22.3638 16.3756 22.3456 16.5385 22.332L17.9028 22.1979C18.7948 22.1083 19.7128 22.0463 20.7092 22.0124C21.7057 21.9786 22.8165 21.8657 23.8465 21.7844C23.8986 21.7781 23.9384 21.7657 23.9627 21.7481C23.9869 21.7306 23.9949 21.7084 23.9859 21.6835C23.945 21.6566 23.8914 21.6306 23.8291 21.6075C23.7668 21.5844 23.6974 21.5648 23.6261 21.5501C23.2983 21.4784 22.962 21.4322 22.6128 21.3722L21.9616 21.2682L21.7613 21.1313C21.6309 21.048 21.5419 20.9464 21.3684 20.8866C21.2255 20.842 21.0704 20.8081 20.9192 20.7885C20.768 20.7689 20.6262 20.7643 20.5087 20.7752C20.183 20.8025 19.8882 20.842 19.5771 20.878C19.266 20.914 19.0945 20.9531 18.8248 20.9708C18.2766 20.9788 17.7469 21 17.2379 21.0343C16.8092 21.1154 16.4126 21.2115 16.0507 21.322C15.825 21.3657 15.6138 21.4181 15.2284 21.3612C15.0455 21.3095 14.8878 21.2417 14.7831 21.1697C14.6785 21.0977 14.6337 21.0262 14.6567 20.9679C14.6774 20.9222 14.736 20.886 14.8269 20.8628C14.9178 20.8395 15.038 20.83 15.1762 20.8352C15.5631 20.8268 15.9209 20.7985 16.2424 20.7508C16.6898 20.6646 17.2345 20.6274 17.8447 20.6414C18.0516 20.6538 18.1903 20.6075 18.3713 20.5924C18.5523 20.5772 18.7056 20.5396 18.9074 20.5673C19.5343 20.6387 19.8349 20.5293 20.2105 20.4582C20.3377 20.4267 20.4165 20.3757 20.4382 20.3109C20.46 20.2461 20.4238 20.17 20.3338 20.091C20.1604 19.9336 19.9483 19.7753 19.7008 19.6186C19.5734 19.5416 19.4102 19.4684 19.2239 19.4049C19.0377 19.3414 18.8335 19.2892 18.6274 19.2525C18.5041 19.1561 18.4383 19.0613 18.436 18.9767C18.4336 18.892 18.4949 18.8203 18.6142 18.7678C18.9182 18.6482 19.1877 18.5265 19.8689 18.5934C20.1892 18.6189 20.4906 18.6238 20.7611 18.6079C21.3613 18.586 22.0535 18.6338 22.7727 18.7467C22.9587 18.7757 23.1416 18.7954 23.3159 18.8053C24.5592 18.8747 25.7437 18.9093 26.9317 18.9337C27.561 18.9455 28.1955 18.9419 28.8524 18.9761C30.3931 19.0503 31.7956 19.0122 33.2827 19.0363C34.0615 19.0488 34.7586 18.9988 35.3374 18.889C35.4502 18.8523 35.547 18.8093 35.6268 18.7607C35.2432 18.6332 34.8218 18.5323 34.4031 18.4675C33.9844 18.4028 33.5823 18.3764 33.2354 18.391C33.0447 18.4267 32.7982 18.4332 32.5234 18.4098C32.2486 18.3865 31.9563 18.3341 31.6791 18.2586L32.485 18.2159C33.0194 18.1959 33.5668 18.1898 34.0865 18.1611C34.9123 18.1118 35.6775 18.0328 36.5326 18.0009C37.223 17.9715 37.8407 17.8964 38.3665 17.7779C38.7464 17.6915 39.1802 17.6302 39.6592 17.5953C39.9996 17.5767 39.9996 17.5767 40.2173 17.3998C40.0446 17.2854 39.8213 17.2694 39.611 17.2672C38.3499 17.1953 37.1498 17.1826 36.0351 17.2296C35.4727 17.2338 34.9737 17.2823 34.5622 17.3728C34.4614 17.411 34.2036 17.3929 33.9967 17.3805C33.348 17.3616 32.728 17.3671 32.1442 17.3969C31.337 17.4465 30.438 17.4347 29.4821 17.3621C29.3008 17.2731 29.5094 17.2805 29.5197 17.2499C30.2601 17.1928 30.9858 17.1271 31.7408 17.0787C31.9472 17.0615 32.1678 17.053 32.4002 17.0532C33.2677 17.0832 33.9907 17.0002 34.4677 16.8157C34.4917 16.7443 34.8055 16.7527 34.9441 16.7064C35.0124 16.6663 35.0578 16.6191 35.0791 16.5662C34.8771 16.4344 34.6486 16.4337 34.4728 16.4336C33.9625 16.4483 33.4716 16.4762 33.0024 16.5171C32.5662 16.556 32.0834 16.5664 31.5671 16.548C31.186 16.5304 30.8602 16.5577 30.4757 16.5502C30.2672 16.5345 30.0513 16.5094 29.8325 16.4752C30.0761 16.3834 30.4073 16.3269 30.8027 16.3097C31.1026 16.2549 31.4776 16.2383 31.5255 16.0955C31.3838 15.9934 31.2261 15.9917 31.0994 16.0023C30.8357 16.0019 30.5809 16.0084 30.3365 16.0216C29.8183 16.0507 29.2572 16.051 28.665 16.0228C28.3532 16.0123 28.0573 16.0154 27.7823 16.0323C27.1591 16.0547 26.5618 16.1048 25.9912 16.1278C24.8223 16.1513 23.7562 16.2356 22.633 16.2801C22.3831 16.2912 22.159 16.3297 21.8295 16.2632C21.5 16.1966 21.4854 16.1879 21.4465 16.1465C21.3543 16.0775 21.3264 16.0107 21.3685 15.9598C21.4338 15.9122 21.5611 15.8857 21.7277 15.8851C22.7317 15.8094 23.684 15.7032 24.5786 15.567C24.9724 15.5398 25.3173 15.4841 25.6015 15.4021C25.8269 15.3455 26.0942 15.3081 26.3951 15.291C26.8328 15.2501 27.2891 15.2202 27.7622 15.2013C27.9823 15.1911 28.1694 15.1609 28.3126 15.1123C28.4558 15.0637 28.5521 14.9977 28.5959 14.9183L28.016 14.6546C27.9249 14.6423 27.8345 14.6317 27.7452 14.6228L22.932 14.8127L22.4553 14.818C21.9328 14.8022 21.8052 14.7633 21.3096 14.4579C22.4406 14.386 23.3296 14.1766 23.8882 13.8504C23.754 13.8153 23.6164 13.7852 23.4785 13.7608C22.5747 13.6836 21.7203 13.6631 20.9483 13.7C20.4897 13.7038 20.0181 13.6937 19.5448 13.6887C19.6832 13.5383 20.2135 13.5831 20.5591 13.5492C21.3849 13.4962 22.1151 13.3866 22.7264 13.224C22.9371 13.1606 23.2008 13.1201 23.5054 13.1042C23.8101 13.0988 24.0647 13.0604 24.2469 12.9925C24.4291 12.9245 24.5335 12.829 24.5509 12.7143C24.5796 12.6105 24.6415 12.514 24.7356 12.4263C24.5691 12.3018 24.3048 12.1826 23.9922 12.0911C23.6796 11.9995 23.3403 11.9419 23.0378 11.929C22.3922 11.8778 21.7225 11.7939 21.0459 11.6795C20.7088 11.6218 20.3783 11.5887 20.0758 11.5823C19.8091 11.5774 19.5059 11.5357 19.2125 11.4636C18.919 11.3916 18.6515 11.293 18.4508 11.1831C18.1797 11.0472 17.9268 10.9097 17.6739 10.7723C17.421 10.6349 17.1275 10.4612 16.8322 10.2926C16.5719 10.2662 16.3184 10.2493 16.0752 10.242C15.886 10.2482 15.6652 10.2298 15.4389 10.189C15.2126 10.1483 14.9901 10.0868 14.7979 10.0119C14.9107 9.93803 15.0381 9.87284 15.1724 9.78725C14.9881 9.67422 14.8545 9.55896 14.7796 9.44848C14.7048 9.338 14.6904 9.23462 14.7372 9.14464C14.7646 9.06304 14.5642 8.92616 14.495 8.81795C14.4059 8.72468 14.3892 8.63762 14.447 8.56821C14.5048 8.4988 14.6345 8.45028 14.8191 8.429C15.048 8.38971 15.2343 8.33056 15.3704 8.25396C15.4154 8.23407 15.4383 8.20684 15.437 8.17475C15.4357 8.14265 15.4103 8.10673 15.363 8.07026C15.3158 8.03379 15.2482 7.99793 15.1665 7.96596C15.0848 7.934 14.9916 7.90695 14.8953 7.8873C14.6006 7.83156 14.3078 7.79544 14.0339 7.781C13.562 7.75443 13.1102 7.73774 12.6786 7.73093C12.2013 7.72068 11.6702 7.65741 11.1394 7.54756C10.6641 7.44362 10.2381 7.35043 10.0057 7.1518C9.77329 6.95317 9.40175 6.9595 9.11606 6.8149C9.27654 6.68455 9.56179 6.59399 9.943 6.55234C10.1925 6.53748 10.4007 6.49846 10.5543 6.43779C10.708 6.37713 10.8037 6.29615 10.8352 6.20006L9.96786 5.79686C9.27517 5.60704 8.89192 5.75314 8.14347 5.67703L8.91465 5.52819C8.93014 5.51348 8.93594 5.4962 8.93177 5.47719C8.85689 5.17615 8.73776 5.11178 7.94944 4.94483L7.50699 4.84806L6.8067 4.73322C6.69454 4.67152 6.61698 4.60719 6.58174 4.54664C6.54649 4.4861 6.5548 4.43147 6.60586 4.38821C6.70846 4.31547 6.73966 4.22252 6.69658 4.11791C6.62866 4.04862 6.62306 3.98474 6.68073 3.93736C6.73841 3.88997 6.85572 3.86208 7.01232 3.85852C7.13731 3.85301 7.14659 3.77292 7.21458 3.72758C7.28214 3.66507 7.39777 3.61711 7.55359 3.58696C7.70941 3.5568 7.90173 3.54515 8.11755 3.55282C8.75382 3.55907 9.35154 3.53561 9.9001 3.48284L9.80178 3.46134C10.3735 3.50766 10.9081 3.51328 11.3794 3.47792C11.8517 3.43341 12.4578 3.46196 12.9594 3.43482C13.3678 3.44105 13.6787 3.37945 13.8262 3.2631C13.969 3.15201 14.488 3.17794 14.8855 3.19917C15.121 3.21291 15.3485 3.21873 15.5657 3.21656C15.8573 3.19142 16.2219 3.21512 16.5986 3.28372C16.7117 3.3048 16.823 3.31596 16.922 3.31612C17.8798 3.34496 18.8359 3.37889 19.7807 3.39394C19.9988 3.38527 20.2546 3.40512 20.5179 3.45115C20.6286 3.47114 20.7363 3.47942 20.8266 3.47488C22.3196 3.42916 24.0043 3.54581 25.4679 3.48272C25.6453 3.46782 25.8417 3.46473 26.0515 3.47351C26.523 3.51057 26.9325 3.48672 27.2177 3.40558C27.3716 3.36243 27.5689 3.33865 27.797 3.33576C28.0251 3.33287 28.2791 3.35093 28.5426 3.3888C28.9812 3.43894 29.3866 3.44438 29.7159 3.40454C30.358 3.36773 31.0333 3.3526 31.7364 3.35925C31.9519 3.3657 32.1413 3.35139 32.2899 3.31745C32.4386 3.28352 32.5425 3.23085 32.5937 3.16354C32.421 3.04913 32.2322 3.03521 32.0529 3.04527C31.358 3.0192 30.6649 2.98803 29.9829 2.97574C29.3726 2.94065 28.7869 2.92992 28.2346 2.94371C27.9604 2.95928 27.6182 2.92379 27.2827 2.845C26.8715 2.74521 26.448 2.69563 26.0979 2.7063C25.8383 2.70894 25.5642 2.70035 25.2797 2.68064C25.0976 2.65687 24.911 2.61604 24.7389 2.56236C24.6707 2.53905 24.5963 2.51944 24.5208 2.50481C24.4452 2.49017 24.37 2.48083 24.3 2.47736C24.23 2.4739 24.1666 2.47638 24.1141 2.48468C24.0616 2.49298 24.021 2.5069 23.9949 2.52554C23.7315 2.68143 23.1425 2.60188 22.6382 2.58463C21.8824 2.32079 21.3199 2.47695 20.6135 2.32793C20.5576 2.31806 20.5026 2.31207 20.4517 2.31036C20.4009 2.30865 20.3553 2.31125 20.3177 2.318C18.9507 2.40769 17.3575 2.33294 15.9223 2.36392C15.764 2.36844 15.5803 2.35292 15.392 2.31911C14.1616 2.09531 12.9786 2.03177 12.0744 2.14093C11.9643 2.15075 11.8392 2.15118 11.7046 2.14216C11.0863 2.05322 10.4951 2.01775 9.9802 2.03874C9.17331 2.03196 8.39748 2.03745 7.57762 2.01689C7.01246 1.98764 6.51667 2.01889 6.13991 2.10754C6.12793 2.14324 5.87696 2.10477 5.68472 2.10105C5.57415 2.01117 5.4783 1.93 5.36431 1.85032C5.26242 1.75175 5.10977 1.652 4.91678 1.55785C4.7238 1.46369 4.49499 1.37733 4.24577 1.3046C3.81969 1.21141 3.77707 1.07618 4.07522 1.02643C4.8437 0.861827 5.81002 0.794457 6.90314 0.829263C7.81692 0.832045 8.74712 0.838417 9.67387 0.854984C10.2144 0.869196 10.7843 0.900762 11.3101 0.90629C11.4876 0.918436 11.6698 0.936334 11.8551 0.959792C12.0824 0.993803 12.303 1.01234 12.5052 1.01439C13.1544 0.985749 13.8789 1.0107 14.6442 1.08806C14.9245 1.10493 15.1936 1.11061 15.4476 1.10503C16.0485 1.08403 16.7 1.09949 17.3847 1.15098C17.8103 1.18002 18.223 1.1952 18.6185 1.19637C18.7581 1.19954 18.8719 1.17515 19.0064 1.19362C20.1905 1.3869 21.0289 1.2473 22.0946 1.32162C22.6125 1.34235 23.1074 1.3424 23.5721 1.3218C24.4792 1.3228 25.4115 1.34399 26.3653 1.38528C27.6267 1.45313 28.7956 1.42959 29.9999 1.4576C30.2377 1.46349 30.4673 1.46249 30.687 1.4546C31.7558 1.40246 32.9167 1.41351 34.1413 1.4875C34.4194 1.49819 34.6691 1.48511 34.8749 1.44912C35.0807 1.41312 35.2381 1.35496 35.3373 1.27829C35.3792 1.22566 35.3521 1.15731 35.261 1.08642C35.1098 0.995882 34.9391 0.907176 34.7517 0.821761L27.9347 0.535141C27.6484 0.520172 27.3692 0.512117 27.0985 0.511001C26.3024 0.508511 25.4817 0.486213 24.6406 0.44422C23.8095 0.404777 23.0156 0.41178 22.2104 0.399902C21.9732 0.395925 21.7298 0.386538 21.4811 0.371771C19.7999 0.254893 18.1605 0.183506 16.5746 0.15812C15.9073 0.154518 15.1865 0.10088 14.5063 0.0834927C13.8261 0.0661076 12.8959 0.0597413 12.089 0.0529649L9.59085 0.0540045C9.09947 0.050546 8.62104 0.0608676 8.14434 0.0660925C7.56585 -0.306773 7.3665 -0.394169 6.59457 -0.557527C6.33048 -0.617787 6.06186 -0.653746 5.8202 -0.661197C5.05391 -0.631721 4.09242 -0.754422 3.36575 -0.738177C2.92726 -0.74619 2.55519 -0.70477 2.28762 -0.618152C2.05535 -0.550175 1.78975 -0.496386 1.49491 -0.457598C0.687243 -0.776575 0.616064 -0.983742 1.22361 -1.06436C1.38822 -1.0831 1.61495 -1.0773 1.73382 -1.117C1.80202 -1.14117 1.89519 -1.155 2.00591 -1.15739C2.11662 -1.15978 2.24182 -1.15067 2.37168 -1.13077C2.78152 -1.07857 3.16566 -1.06629 3.48556 -1.09517C3.78662 -1.1334 4.15565 -1.13187 4.55707 -1.09074C4.85205 -1.02622 5.11133 -1.11732 5.36643 -1.14364C5.62153 -1.16996 5.83088 -1.21724 6.22932 -1.14652C6.30228 -1.13244 6.37472 -1.12398 6.44107 -1.12181C6.50743 -1.11963 6.56594 -1.12379 6.61211 -1.13396C7.04005 -1.17951 7.55071 -1.17473 8.10264 -1.12C8.94914 -1.06614 9.74337 -1.06413 10.4578 -1.11401C10.8854 -1.15766 11.25 -1.23506 11.5374 -1.3432C11.6157 -1.37937 11.732 -1.40106 11.8751 -1.40618C12.5939 -1.38362 13.3744 -1.2987 14.1662 -1.15691C14.4645 -1.10009 14.7624 -1.05515 15.0536 -1.02305C15.652 -0.951717 16.2308 -0.911748 16.7728 -0.904321C17.5604 -0.903144 18.3804 -0.875699 19.2256 -0.822239C19.7471 -0.79247 20.2497 -0.781485 20.7273 -0.789397C21.2182 -0.793128 21.7424 -0.770421 22.2878 -0.721806C22.8303 -0.68219 23.3083 -0.705017 23.6644 -0.787522C23.7816 -0.831982 23.876 -0.884777 23.9459 -0.944921C23.1516 -1.14063 22.3302 -1.2401 21.6469 -1.22328C21.3874 -1.23625 21.1719 -1.22316 20.8985 -1.29939L20.8899 -1.27389C20.8355 -1.25735 20.7534 -1.25344 20.6593 -1.26292C20.5651 -1.27241 20.4656 -1.29461 20.3795 -1.32531C20.412 -1.42221 20.4428 -1.51401 20.4651 -1.58031C20.9856 -1.56861 21.4911 -1.56956 21.9788 -1.58316C22.39 -1.60272 22.9481 -1.43138 23.304 -1.49587C23.9982 -1.41522 24.4401 -1.52658 25.0626 -1.49445C25.6851 -1.46231 26.3707 -1.35616 26.9932 -1.32403C27.5363 -1.30639 28.0637 -1.30256 28.5725 -1.31255C28.748 -1.32656 28.9505 -1.32327 29.1673 -1.30288C29.4721 -1.26452 29.7556 -1.25809 29.9853 -1.28434C30.215 -1.31058 30.3816 -1.36845 30.466 -1.4513C30.3865 -1.52891 30.2794 -1.62897 30.1559 -1.73263C30.3831 -1.8178 30.7282 -1.85367 31.1401 -1.83488L31.722 -1.839C31.8762 -1.83675 31.994 -1.85978 32.0512 -1.90331C32.1084 -1.94685 32.1005 -2.00756 32.0291 -2.0729C30.9258 -2.40181 30.8851 -2.43806 30.0753 -2.22651L29.0001 -2.32481L29.0182 -2.32633ZM43.5615 -1.42282L43.4796 -1.44074L43.5615 -1.42282ZM177.556 33.5712L177.537 33.6273L177.558 33.5661L177.738 33.6055L177.75 33.5698L177.556 33.5712ZM151.383 8.98256C151.128 8.92135 150.871 8.86508 150.613 8.8141C150.545 8.80619 150.482 8.8044 150.429 8.80889C150.375 8.81338 150.333 8.824 150.305 8.83986C150.285 8.90106 150.429 8.94352 150.56 8.97219C150.725 9.01079 150.894 9.03531 151.049 9.04324C151.204 9.05117 151.34 9.04221 151.442 9.0173L151.59 8.99496L151.383 8.98256ZM20.1466 23.8985C20.3143 23.9087 20.4734 23.9104 20.6199 23.9034C21.2697 23.854 21.8919 23.782 22.5582 23.7361C23.3988 23.6197 24.3648 23.5722 25.4199 23.5956C25.8321 23.6071 26.1803 23.5693 26.4239 23.4868C26.5698 23.4425 26.758 23.4166 26.9771 23.4107L29.7664 23.2762C29.9388 23.2483 30.0879 23.2092 30.2101 23.1598C29.9643 23.106 29.8004 23.0702 29.7021 23.0487C29.4981 23.0426 29.3227 23.059 29.1936 23.0962C29.0549 23.1593 28.8205 23.1842 28.5369 23.1661C28.2505 23.1511 27.9713 23.1431 27.7006 23.1419C27.1894 23.1451 26.6748 23.1584 26.1619 23.1667C25.9623 23.342 25.3733 23.2625 24.869 23.2452L24.4794 23.2531C23.2058 23.344 21.9892 23.469 20.8355 23.6276C20.6126 23.6544 20.4205 23.6972 20.2652 23.7547C20.2067 23.7995 20.1879 23.8554 20.2104 23.9179L20.1285 23.9L20.1466 23.8985ZM77.0202 40.6621C77.3292 40.674 77.6509 40.6986 77.9807 40.7353C78.2348 40.7728 78.4827 40.7956 78.7145 40.8027C80.0135 40.8421 81.3672 40.9328 82.7573 41.0738C82.939 41.0952 83.1137 41.1057 83.2746 41.1049L84.4124 41.0691C84.771 41.0489 84.7778 41.0285 84.5168 40.758C84.3002 40.7055 84.0812 40.6575 83.8613 40.6146C83.7302 40.5859 83.5172 40.5393 83.4673 40.5832C83.1633 40.7028 82.6088 40.6253 82.1424 40.5999C80.7923 40.5346 79.3998 40.438 78.0367 40.3589C77.7485 40.3395 77.4693 40.3298 77.2021 40.3296C77.0363 40.3256 76.8851 40.3332 76.7548 40.3522C76.7167 40.3542 76.6848 40.3598 76.6613 40.3689C76.6377 40.3779 76.623 40.39 76.6181 40.4045C76.6133 40.4189 76.6184 40.4354 76.6331 40.4528C76.6478 40.4702 76.6718 40.488 76.7034 40.5052C76.815 40.5655 76.9439 40.6232 77.0858 40.6764L77.0202 40.6621ZM86.9107 1.39052L88.2407 1.35844C88.4002 1.355 88.5355 1.31889 88.7062 1.33433C89.6169 1.38327 90.4601 1.36964 91.2 1.29401C91.452 1.26315 91.7467 1.25698 92.068 1.27584C93.052 1.33173 93.9802 1.33403 94.8275 1.28267C95.3751 1.27237 95.8876 1.23775 96.3574 1.17934C96.3936 1.16578 96.4161 1.14737 96.4235 1.12537C96.4309 1.10336 96.4229 1.07829 96.4002 1.05184C96.3943 1.03513 96.3782 1.01716 96.353 0.999162C96.3279 0.981163 96.2942 0.96356 96.2544 0.947577C96.2146 0.931592 96.1697 0.917606 96.1226 0.906572C96.0755 0.895538 96.0274 0.887717 95.9816 0.88366C95.3882 0.804595 94.8248 0.777051 94.3375 0.803264C93.8858 0.834626 93.3993 0.843803 92.8859 0.830651C92.3945 0.827192 92.0612 0.929457 91.4541 0.851425C91.1973 0.82573 90.9708 0.834188 90.8128 0.875387C90.4947 0.943673 90.051 0.947471 89.5602 0.886105C89.2667 0.855048 88.9861 0.84173 88.7291 0.846658C88.1059 0.869108 87.5103 0.914026 86.9329 0.957428C86.7509 0.967469 86.5559 0.968856 86.351 0.961555L83.4595 0.876567C82.7646 0.850497 82.0714 0.819326 81.3895 0.807038C80.8318 0.780362 80.3128 0.788715 79.8508 0.831809C79.3582 0.877103 78.821 0.89549 78.2493 0.886627C77.3614 0.911412 76.4787 0.920892 75.5123 0.917559C74.8959 0.919609 74.2649 0.912979 73.6209 0.892562C73.2951 0.866285 73.0185 0.887686 72.8444 0.952643C72.7385 1.00612 72.4892 0.962553 72.2823 0.950142C71.1786 0.830522 70.1435 0.802179 69.2494 0.867085C69.1352 0.877661 69.0099 0.88149 68.8761 0.878506C68.0149 0.876277 67.1227 0.86178 66.296 0.861619C66.0783 0.866662 65.8735 0.8805 65.684 0.902957C65.7043 0.939594 65.7622 0.979305 65.8455 1.01385C65.9289 1.0484 66.0315 1.07513 66.1319 1.0885C66.9138 1.19086 67.6687 1.24493 68.365 1.24845C69.524 1.23541 70.738 1.26472 71.9945 1.33608C72.9694 1.40802 73.8583 1.39287 74.5952 1.29177C75.1711 1.21633 75.9204 1.24471 76.7143 1.37205C77.054 1.43286 77.3837 1.45718 77.6584 1.44168C77.9227 1.42134 78.2261 1.42627 78.5507 1.45618C79.2349 1.51305 79.893 1.53943 80.512 1.5348C81.1171 1.51387 81.6816 1.45668 82.3031 1.43933C82.9246 1.42198 83.8712 1.43192 84.6374 1.40244C85.4037 1.37297 86.1615 1.36899 86.9107 1.39052ZM31.7976 -1.59254C31.8678 -1.43485 32.1163 -1.3367 32.3836 -1.29466C33.3053 -1.10795 34.2165 -1.0285 34.9643 -1.06964C35.3682 -1.12703 35.9067 -1.10494 36.4739 -1.00771C37.1344 -0.906651 37.7517 -0.889891 38.2171 -0.960387C38.3311 -0.972706 38.4184 -0.998745 38.4712 -1.03619C38.4815 -1.06679 38.5003 -1.12289 38.5037 -1.13309C38.4548 -1.15896 38.3949 -1.18292 38.3284 -1.20314C38.262 -1.22336 38.191 -1.23929 38.1207 -1.24971L35.0677 -1.43021L34.5357 -1.46994C33.564 -1.574 32.638 -1.61546 31.7976 -1.59254ZM37.8027 0.903305C38.2792 1.1608 38.2809 1.15569 38.525 1.21455C39.7026 1.45905 40.8795 1.59103 41.9155 1.5948C42.1458 1.59405 42.3412 1.5692 42.4852 1.52232C42.5593 1.51597 42.6065 1.49578 42.6164 1.46617C42.6263 1.43655 42.5982 1.3999 42.5382 1.36422L42.1594 1.18282C41.4712 1.10429 40.793 1.04189 40.1288 0.995993C39.3554 0.941801 38.67 0.93971 37.8682 0.917633L37.8027 0.903305ZM76.9631 39.5219C77.407 39.8763 77.4088 39.8712 78.1521 39.9626C78.6701 40.0274 79.1725 40.0654 79.6446 40.0755C80.2213 40.0867 80.8127 40.1066 81.3878 40.1229C81.5282 40.1342 81.6472 40.1248 81.7217 40.0966C81.7962 40.0683 81.8208 40.0233 81.7908 39.9702C81.7154 39.9125 81.5973 39.8567 81.4559 39.8118C81.3145 39.767 81.1579 39.7357 81.0118 39.7231L80.698 39.7147C80.3169 39.6971 79.9211 39.6707 79.553 39.6668C79.3142 39.6815 79.0375 39.6702 78.7446 39.6336C78.4516 39.5971 78.1504 39.5364 77.8646 39.4563L76.9631 39.5219ZM40.1735 -1.12918C40.2921 -1.0678 40.4262 -1.00902 40.5722 -0.954397C41.1377 -0.802989 41.7362 -0.716994 42.2503 -0.713274C42.4935 -0.703894 42.7158 -0.737382 42.9633 -0.688718C43.4073 -0.623691 43.8375 -0.589052 44.2308 -0.586676C44.2308 -0.586676 44.3411 -0.600876 44.3773 -0.603908L44.4526 -0.828304C44.2664 -0.880288 44.0723 -0.922756 43.879 -0.953754C43.2306 -1.01345 42.5935 -1.05427 41.958 -1.10019C41.3226 -1.1461 41.101 -1.1672 40.6855 -1.18692C40.5001 -1.17608 40.3286 -1.15674 40.1735 -1.12918ZM26.132 26.7677L26.9805 27.227C27.2551 27.2669 27.5116 27.2741 27.711 27.2476C27.9104 27.2211 28.0418 27.1622 28.0852 27.0799C28.1551 27.0415 28.1621 26.9845 28.1048 26.9209C28.0474 26.8573 27.9301 26.7921 27.7775 26.7389C27.6307 26.6759 27.463 26.6194 27.285 26.5729C27.1069 26.5265 26.9223 26.491 26.7424 26.4687L26.132 26.7677ZM33.1969 24.4809C32.6419 24.403 32.1111 24.3712 31.645 24.3878C31.3513 24.4334 30.9534 24.4188 30.5328 24.3471C29.768 24.2042 29.0307 24.1647 28.4766 24.2368C28.4766 24.2368 28.456 24.298 28.3621 24.3158C28.2682 24.3336 28.6407 24.3767 28.7226 24.3946C29.3236 24.4385 29.928 24.4721 30.4504 24.4878C30.7747 24.4872 31.1178 24.5016 31.4737 24.531C31.9635 24.5763 32.4279 24.591 32.8488 24.5745C32.8488 24.5745 33.0117 24.5608 33.1952 24.486L33.1969 24.4809ZM92.4671 0.558407C92.202 0.471908 91.9146 0.401607 91.6263 0.352781C91.3381 0.303955 91.0565 0.277875 90.8027 0.276486C90.6083 0.271972 90.4511 0.29481 90.3558 0.341389C90.2605 0.387969 90.2326 0.45563 90.2766 0.533675C90.4732 0.576686 90.7354 0.634031 90.8829 0.66629C91.3941 0.663134 91.8302 0.621657 92.4671 0.558407ZM142.089 7.84763C141.877 7.77799 141.642 7.72476 141.413 7.69399C141.184 7.66322 140.969 7.65618 140.793 7.67364C140.703 7.68122 140.764 7.76034 140.749 7.80624C140.739 7.81665 140.739 7.82959 140.749 7.84372C140.759 7.85784 140.779 7.87263 140.807 7.88653C140.835 7.90042 140.869 7.91292 140.907 7.92271C140.944 7.93249 140.983 7.93921 141.02 7.94215C141.25 7.97215 141.468 7.98108 141.654 7.96814C141.839 7.95521 141.986 7.92082 142.082 7.86803L142.089 7.84763ZM145.414 8.84303C145.381 8.80194 145.311 8.75912 145.217 8.72241C145.122 8.6857 145.01 8.65756 144.901 8.64316C144.707 8.64122 144.531 8.65262 144.379 8.67691C144.215 8.69566 144.333 8.81462 144.556 8.8852C144.65 8.91353 144.751 8.93562 144.85 8.94973C144.949 8.96384 145.044 8.96957 145.127 8.96647C145.21 8.96337 145.279 8.95151 145.328 8.93186C145.377 8.9122 145.405 8.88528 145.411 8.85323L145.414 8.84303ZM48.8046 -0.692141C48.3086 -0.83895 47.9268 -0.802016 47.5068 -0.861023C47.0868 -0.920028 46.9834 -0.926237 47.0396 -0.831816C47.0959 -0.737397 47.3838 -0.756545 47.5641 -0.717119C47.8076 -0.664803 48.0526 -0.634763 48.2717 -0.630351C48.4908 -0.625939 48.6753 -0.647332 48.8046 -0.692141ZM152.169 24.1484C151.906 24.1154 151.649 24.0922 151.4 24.0789C151.368 24.0926 151.347 24.1104 151.34 24.1314C151.333 24.1524 151.34 24.1762 151.359 24.2013C151.359 24.2013 151.528 24.2764 151.626 24.2979C151.988 24.3717 152.006 24.2661 152.169 24.1484ZM189.303 37.8266C189.481 37.9257 189.564 37.9931 189.706 38.0406C189.772 38.0571 189.839 38.0691 189.904 38.0757C189.969 38.0823 190.029 38.0833 190.081 38.0787C190.143 38.0501 190.158 38.0064 190.122 37.9563C190.122 37.9563 189.94 37.8674 189.871 37.8632C189.675 37.8422 189.484 37.8299 189.303 37.8266ZM40.3613 -1.53152C39.9844 -1.61396 39.6239 -1.69282 39.3629 -1.59661C39.9614 -1.49308 39.9614 -1.49307 40.3613 -1.53152ZM46.4661 -0.59048C46.0855 -0.766784 45.8622 -0.782783 45.6795 -0.762526C45.6406 -0.757424 45.6149 -0.746052 45.6063 -0.730137C45.5976 -0.714222 45.6064 -0.69463 45.6314 -0.674319C45.6564 -0.654009 45.6962 -0.634091 45.7447 -0.617575C45.7933 -0.601056 45.848 -0.588842 45.9006 -0.582778C46.0991 -0.577703 46.2884 -0.580281 46.4661 -0.59048ZM66.0547 -0.515928C66.0632 -0.541427 66.0735 -0.572026 65.9752 -0.593532C65.9494 -0.604449 65.9192 -0.613837 65.8876 -0.620758C65.8559 -0.627679 65.824 -0.631883 65.7949 -0.632953C65.7949 -0.632953 65.7847 -0.602352 65.7778 -0.581952L66.0547 -0.515928ZM79.6575 41.8192L79.4386 41.8425L79.5369 41.864L79.7964 41.8769L79.6575 41.8192ZM156.735 8.44514C156.653 8.42722 156.571 8.40929 156.559 8.44499C156.542 8.45052 156.531 8.45851 156.528 8.46826C156.525 8.47802 156.529 8.48928 156.541 8.50109C156.541 8.50109 156.655 8.52618 156.704 8.53694L156.735 8.44514ZM143.974 8.73066C143.92 8.72861 143.872 8.73101 143.831 8.73769L143.821 8.76829L143.985 8.80413L143.974 8.73066ZM32.7641 16.0215C32.7008 16.003 32.6337 15.9883 32.5674 15.9785L32.4855 15.9606C32.4855 15.9606 32.5735 16.0127 32.6227 16.0235C32.6718 16.0342 32.7115 16.021 32.7641 16.0215Z" fill="#00FF47"/>
</svg>
