<svg width="32" height="20" viewBox="0 0 32 20" fill="none" xmlns="http://www.w3.org/2000/svg">
<path d="M31.9959 10.2579C31.6598 10.7657 31.3648 11.3078 30.9959 11.7812C28.9877 14.3457 26.6352 16.4886 23.791 18.0032C21.8484 19.0359 19.8074 19.6899 17.6352 19.9051C13.4221 20.3268 9.60246 19.1478 6.11066 16.7037C3.84016 15.1116 1.95492 13.1151 0.307377 10.8517C-0.102459 10.2923 -0.102459 9.68993 0.307377 9.13055C2.20082 6.52298 4.42213 4.27685 7.13525 2.59871C9.38115 1.22178 11.7828 0.343978 14.3893 0.0858025C18.1762 -0.292855 21.6762 0.636577 24.9303 2.65895C27.6189 4.32849 29.8238 6.57462 31.7008 9.17358C31.8238 9.3457 31.8975 9.55224 31.9877 9.74157C31.9959 9.91369 31.9959 10.0858 31.9959 10.2579ZM16.0615 17.0565C19.8238 16.9963 22.7582 13.8121 22.7172 9.81042C22.6762 6.04966 19.5697 2.89131 15.9549 2.94295C12.1516 3.00319 9.23361 6.16153 9.27459 10.1891C9.30738 13.967 12.4221 17.1082 16.0615 17.0565Z" fill="black"/>
<path d="M19.6191 9.99984C19.6027 12.1083 17.947 13.8208 15.9306 13.795C13.9634 13.7778 12.365 12.048 12.3732 9.97402C12.3814 7.87419 14.0535 6.17884 16.0781 6.19605C18.0289 6.21326 19.6355 7.94304 19.6191 9.99984Z" fill="black"/>
</svg>
