<svg width="20" height="18" viewBox="0 0 20 18" fill="none" xmlns="http://www.w3.org/2000/svg">
<path d="M10.0001 5.79582C8.05557 5.79582 6.47924 7.19027 6.47924 8.9104C6.47924 10.6305 8.05557 12.025 10.0001 12.025C11.9446 12.025 13.5209 10.6305 13.5209 8.9104C13.5209 7.19027 11.9446 5.79582 10.0001 5.79582Z" fill="black"/>
<path fill-rule="evenodd" clip-rule="evenodd" d="M4.33374 0.363477C8.06921 -0.00584337 11.931 -0.00584337 15.6664 0.363477C17.723 0.566811 19.3818 2.00026 19.6232 3.82594C20.0698 7.20407 20.0698 10.6167 19.6232 13.9949C19.3818 15.8205 17.723 17.254 15.6664 17.4573C11.931 17.8266 8.06921 17.8266 4.33374 17.4573C2.27714 17.254 0.618352 15.8205 0.376971 13.9949C-0.0696673 10.6167 -0.0696673 7.20407 0.376971 3.82594C0.618352 2.00026 2.27714 0.566811 4.33374 0.363477ZM15.4167 3.1604C14.8184 3.1604 14.3334 3.58946 14.3334 4.11874C14.3334 4.64801 14.8184 5.07707 15.4167 5.07707C16.0151 5.07707 16.5001 4.64801 16.5001 4.11874C16.5001 3.58946 16.0151 3.1604 15.4167 3.1604ZM4.85424 8.9104C4.85424 6.39636 7.15811 4.35832 10.0001 4.35832C12.842 4.35832 15.1459 6.39636 15.1459 8.9104C15.1459 11.4244 12.842 13.4625 10.0001 13.4625C7.15811 13.4625 4.85424 11.4244 4.85424 8.9104Z" fill="black"/>
</svg>
