<svg width="27" height="19" viewBox="0 0 27 19" fill="none" xmlns="http://www.w3.org/2000/svg">
<path d="M22.8566 2.01345C21.1358 1.3339 19.2904 0.833241 17.3609 0.546491C17.3257 0.540957 17.2906 0.554787 17.2725 0.582448C17.0352 0.945724 16.7723 1.41965 16.5882 1.79215C14.513 1.52477 12.4483 1.52477 10.4156 1.79215C10.2315 1.41137 9.95905 0.945724 9.72065 0.582448C9.70255 0.55571 9.66744 0.54188 9.63231 0.546491C7.7039 0.832324 5.85851 1.33299 4.13655 2.01345C4.12164 2.01898 4.10887 2.02821 4.10039 2.04019C0.600066 6.54065 -0.358819 10.9305 0.111578 15.2659C0.113706 15.2871 0.127541 15.3074 0.146698 15.3203C2.45611 16.7799 4.69317 17.666 6.88869 18.2533C6.92383 18.2625 6.96106 18.2514 6.98342 18.2265C7.50277 17.6162 7.96572 16.9726 8.36266 16.2958C8.38609 16.2562 8.36372 16.2091 8.31585 16.1935C7.58152 15.9537 6.8823 15.6614 6.2097 15.3295C6.15649 15.3028 6.15224 15.2373 6.20118 15.2059C6.34272 15.1147 6.4843 15.0197 6.61945 14.9238C6.6439 14.9063 6.67797 14.9026 6.70672 14.9137C11.1254 16.6499 15.9092 16.6499 20.2758 14.9137C20.3046 14.9017 20.3386 14.9054 20.3642 14.9229C20.4994 15.0188 20.6409 15.1147 20.7835 15.2059C20.8324 15.2373 20.8292 15.3028 20.776 15.3295C20.1034 15.6679 19.4042 15.9537 18.6688 16.1925C18.6209 16.2082 18.5997 16.2562 18.6231 16.2958C19.0285 16.9716 19.4915 17.6152 20.0013 18.2256C20.0226 18.2514 20.0608 18.2625 20.096 18.2533C22.3022 17.666 24.5392 16.7799 26.8486 15.3203C26.8688 15.3074 26.8816 15.288 26.8837 15.2668C27.4467 10.2546 25.9408 5.90076 22.8917 2.04111C22.8843 2.02821 22.8715 2.01898 22.8566 2.01345ZM9.02253 12.6261C7.69219 12.6261 6.59602 11.575 6.59602 10.2841C6.59602 8.99326 7.67093 7.94216 9.02253 7.94216C10.3847 7.94216 11.4703 9.00249 11.449 10.2841C11.449 11.575 10.3741 12.6261 9.02253 12.6261ZM17.9941 12.6261C16.6638 12.6261 15.5676 11.575 15.5676 10.2841C15.5676 8.99326 16.6425 7.94216 17.9941 7.94216C19.3563 7.94216 20.4419 9.00249 20.4206 10.2841C20.4206 11.575 19.3563 12.6261 17.9941 12.6261Z" fill="black"/>
</svg>
