<svg width="94" height="14" viewBox="0 0 94 14" fill="none" xmlns="http://www.w3.org/2000/svg">
<path opacity="0.7" d="M8.751 2.3504C7.821 1.4354 6.606 0.925399 5.301 0.925399C2.616 0.925399 0.395996 3.1454 0.395996 5.8304C0.395996 8.5154 2.616 10.7354 5.301 10.7354C7.956 10.7354 10.191 8.5454 10.191 5.8304C10.191 4.5104 9.696 3.2654 8.766 2.3504H8.751ZM5.301 9.9704C3.036 9.9704 1.161 8.1104 1.161 5.8304C1.161 3.5654 3.036 1.7054 5.301 1.7054C7.566 1.7054 9.426 3.5654 9.426 5.8304C9.426 8.1104 7.566 9.9704 5.301 9.9704ZM2.676 5.8454C2.676 7.3004 3.861 8.4704 5.316 8.4704C6.006 8.4704 6.786 8.1254 7.461 7.4204L6.636 6.5954C6.171 7.0454 5.721 7.2854 5.316 7.2854C4.521 7.2854 3.861 6.6404 3.861 5.8454C3.861 5.0504 4.521 4.3904 5.316 4.3904C5.706 4.3904 6.156 4.6454 6.621 5.1104L7.461 4.2704C6.771 3.5654 6.021 3.2054 5.316 3.2054C3.861 3.2054 2.676 4.3754 2.676 5.8454ZM16.1451 5.4584C16.2891 4.5224 17.0211 3.8384 17.9091 3.8384C18.9051 3.8384 19.7091 4.4504 19.7091 5.4464C19.7091 5.9624 19.1691 6.6824 18.8691 6.9944C18.3891 7.4984 15.1131 10.9304 14.5371 11.4104H21.0651V10.2104H17.3691L19.7091 7.8224C20.5491 7.0184 20.9211 6.1784 20.9211 5.4464C20.9211 3.7904 19.5531 2.6384 17.9091 2.6384C16.3011 2.6384 15.0051 3.8984 14.8971 5.4584H16.1451ZM29.9998 7.0904C29.9998 4.5704 28.1518 2.6384 26.0638 2.6384C23.9758 2.6384 22.1398 4.5704 22.1398 7.0904C22.1398 9.6104 23.9758 11.5544 26.0638 11.5544C28.1518 11.5544 29.9998 9.6104 29.9998 7.0904ZM28.7878 7.0904C28.7878 8.8784 27.5638 10.3424 26.0638 10.3424C24.5638 10.3424 23.3398 8.8784 23.3398 7.0904C23.3398 5.3024 24.5638 3.8504 26.0638 3.8504C27.5638 3.8504 28.7878 5.3024 28.7878 7.0904ZM31.8483 5.4584C31.9923 4.5224 32.7243 3.8384 33.6123 3.8384C34.6083 3.8384 35.4123 4.4504 35.4123 5.4464C35.4123 5.9624 34.8723 6.6824 34.5723 6.9944C34.0923 7.4984 30.8163 10.9304 30.2403 11.4104H36.7683V10.2104H33.0723L35.4123 7.8224C36.2523 7.0184 36.6243 6.1784 36.6243 5.4464C36.6243 3.7904 35.2563 2.6384 33.6123 2.6384C32.0043 2.6384 30.7083 3.8984 30.6003 5.4584H31.8483ZM37.9629 2.7944V3.9944H39.8709V11.4104H41.0709V2.7944H37.9629ZM49.3531 8.2664C51.0331 8.2664 52.1971 7.0304 52.1971 5.5304C52.1971 4.0184 51.0331 2.7944 49.3531 2.7944H46.4491V11.4104H47.6491V8.2664H49.3531ZM49.3531 3.9944C50.3131 3.9944 50.9971 4.6784 50.9971 5.5304C50.9971 6.3824 50.3131 7.0664 49.3531 7.0664H47.6491V3.9944H49.3531ZM52.6571 8.2304C52.6571 10.0664 54.1451 11.5544 55.9691 11.5544C57.7931 11.5544 59.2811 10.0664 59.2811 8.2304C59.2811 6.4184 57.7931 4.9184 55.9691 4.9184C54.1451 4.9184 52.6571 6.4184 52.6571 8.2304ZM53.8331 8.2304C53.8331 7.0544 54.7931 6.1064 55.9691 6.1064C57.1571 6.1064 58.1051 7.0544 58.1051 8.2304C58.1051 9.4184 57.1571 10.3664 55.9691 10.3664C54.7931 10.3664 53.8331 9.4184 53.8331 8.2304ZM60.6734 2.7944V11.4104H61.8734V2.7944H60.6734ZM64.2826 5.0624H62.9746C62.9746 5.0624 65.5066 10.1624 65.4946 10.1624L63.8746 13.3304H65.1826L69.3466 5.0624H68.0266L66.1546 8.8424L64.2826 5.0624ZM69.8828 7.1024C69.8828 9.5624 71.8748 11.5544 74.3348 11.5544C76.7948 11.5544 78.7988 9.5624 78.7988 7.1024C78.7988 4.6424 76.7948 2.6384 74.3348 2.6384C71.8748 2.6384 69.8828 4.6424 69.8828 7.1024ZM71.0828 7.1024C71.0828 5.3024 72.5348 3.8384 74.3348 3.8384C76.1348 3.8384 77.5988 5.3024 77.5988 7.1024C77.5988 8.9024 76.1348 10.3544 74.3348 10.3544C72.5348 10.3544 71.0828 8.9024 71.0828 7.1024ZM81.3859 5.0624H80.1499V11.4104H81.3859V7.9304C81.3859 6.9344 82.0339 6.1184 83.0299 6.1184C84.0379 6.1184 84.6859 6.9344 84.6859 7.9304V11.4104H85.9339V7.9304C85.9339 6.1184 84.6739 4.9184 83.3659 4.9184C82.8739 4.9184 82.1299 4.9784 81.3859 5.7824V5.0624ZM90.624 11.5544C91.68 11.5544 92.688 11.1704 93.564 10.1264L92.664 9.3944C92.1 10.0544 91.308 10.3664 90.624 10.3664C89.64 10.3664 88.584 9.6464 88.452 8.7104H93.876V8.2304C93.876 6.4184 92.376 4.9184 90.564 4.9184C88.74 4.9184 87.252 6.4184 87.252 8.2304C87.252 10.0664 88.8 11.5544 90.624 11.5544ZM90.564 6.1064C91.548 6.1064 92.436 6.7304 92.676 7.7024H88.452C88.716 6.7304 89.58 6.1064 90.564 6.1064Z" fill="black"/>
</svg>
