<svg width="26" height="21" viewBox="0 0 26 21" fill="none" xmlns="http://www.w3.org/2000/svg">
<path d="M25.9748 3.14636C26.0521 3.04714 25.938 2.91903 25.8144 2.96317C24.9364 3.27681 24.0187 3.48843 23.0827 3.59272C24.1249 3.0189 24.9292 2.1454 25.3752 1.11125C25.4206 1.0059 25.2958 0.911821 25.1881 0.966625C24.2194 1.45963 23.1747 1.81464 22.0895 2.01909C22.044 2.02765 21.9972 2.0134 21.9653 1.98239C21.1509 1.19046 20.0789 0.663184 18.9102 0.480975C17.717 0.294938 16.4905 0.479141 15.4232 1.00469C14.3558 1.53024 13.5079 2.36742 13.0124 3.38491C12.5414 4.35236 12.4142 5.43079 12.6466 6.4665C12.6646 6.54686 12.5964 6.62273 12.5075 6.61764C10.396 6.49679 8.33296 5.97922 6.44547 5.09612C4.56277 4.21526 2.8956 2.98985 1.54547 1.49545C1.48555 1.42913 1.37199 1.43771 1.32833 1.51406C0.90822 2.24873 0.688259 3.06758 0.688857 3.89982C0.687151 4.72824 0.907753 5.54419 1.33102 6.27503C1.75429 7.00587 2.36708 7.62891 3.11485 8.08869C2.32184 8.06881 1.54428 7.88814 0.837147 7.56057C0.746016 7.51835 0.636703 7.57846 0.641443 7.67235C0.696586 8.7647 1.13174 9.86134 1.88495 10.7027C2.68648 11.5981 3.799 12.2108 5.03432 12.4373C4.55879 12.5706 4.06509 12.6409 3.56806 12.6461C3.29755 12.6432 3.02756 12.6248 2.75966 12.591C2.66033 12.5785 2.57922 12.6655 2.614 12.7521C2.98245 13.6703 3.63337 14.4716 4.48924 15.0564C5.40425 15.6817 6.50801 16.0286 7.64693 16.0488C5.72373 17.4434 3.3493 18.2045 0.902131 18.2108C0.650676 18.2115 0.399333 18.204 0.148582 18.1883C0.00727684 18.1794 -0.0577117 18.3529 0.0640885 18.4195C2.44845 19.7235 5.17373 20.4128 7.95351 20.4096C10.0059 20.4293 12.0419 20.0718 13.9427 19.3582C15.8435 18.6446 17.5709 17.5891 19.024 16.2533C20.4772 14.9176 21.627 13.3283 22.4063 11.5785C23.1855 9.82864 23.5786 7.95323 23.5625 6.06182V5.47239C23.5625 5.43361 23.5824 5.39714 23.616 5.37377C24.5201 4.74465 25.3153 3.99355 25.9748 3.14636Z" fill="black"/>
</svg>
