<svg width="50" height="37" viewBox="0 0 50 37" fill="none" xmlns="http://www.w3.org/2000/svg">
<path fill-rule="evenodd" clip-rule="evenodd" d="M13.1171 0.648292C21.1598 -0.00752017 29.2394 -0.0075198 37.2821 0.648293L42.6848 1.08883C45.694 1.33421 48.1558 3.68486 48.6533 6.78785C49.8979 14.5518 49.8979 22.4771 48.6533 30.2411C48.1558 33.3441 45.694 35.6947 42.6848 35.9401L37.2821 36.3806C29.2394 37.0364 21.1598 37.0364 13.1171 36.3806L7.7145 35.9401C4.70524 35.6947 2.24342 33.3441 1.74598 30.2411C0.50134 22.4771 0.50134 14.5518 1.74598 6.78785C2.24342 3.68486 4.70524 1.33421 7.7145 1.08883L13.1171 0.648292ZM20.3773 24.7219V12.307C20.3773 11.721 20.9907 11.359 21.4728 11.6605L31.3992 17.868C31.8674 18.1608 31.8674 18.8681 31.3992 19.1609L21.4728 25.3684C20.9907 25.6699 20.3773 25.3079 20.3773 24.7219Z" fill="black"/>
</svg>
