<svg width="14" height="18" viewBox="0 0 14 18" fill="none" xmlns="http://www.w3.org/2000/svg">
<path d="M2.71208 17.1603C2.52848 17.1204 2.33691 17.0924 2.1573 17.0405C0.995867 16.7133 0.261488 15.8152 0.209602 14.5979C0.157717 13.3367 0.293417 12.0955 0.77236 10.9141C1.08367 10.1517 1.53069 9.49319 2.28502 9.09008C2.748 8.84263 3.2469 8.7229 3.76974 8.73487C3.93338 8.73886 4.10899 8.82267 4.25667 8.9025C4.50013 9.03421 4.72364 9.19785 4.95912 9.34153C6.3241 10.1837 7.68909 10.1837 9.05408 9.33754C9.24166 9.22179 9.43723 9.10605 9.61284 8.97434C9.94012 8.73088 10.2993 8.69895 10.6865 8.75482C11.7441 8.91048 12.4905 9.4892 12.9974 10.4152C13.4484 11.2413 13.6479 12.1354 13.7397 13.0613C13.7876 13.5363 13.8076 14.0152 13.8036 14.4902C13.7876 15.915 12.8098 16.9727 11.3929 17.1283C11.357 17.1323 11.3251 17.1483 11.2891 17.1563C8.42746 17.1603 5.56977 17.1603 2.71208 17.1603Z" fill="black"/>
<path d="M6.89026 8.70281C4.70308 8.69083 2.95094 6.92672 2.96691 4.75551C2.98287 2.57233 4.74299 0.840149 6.91021 0.840149C9.04151 0.840149 10.8455 2.60825 10.8256 4.78345C10.8096 6.96663 9.05349 8.71478 6.89026 8.70281Z" fill="black"/>
</svg>
