<svg width="16" height="14" viewBox="0 0 16 14" fill="none" xmlns="http://www.w3.org/2000/svg">
<path d="M0 2.76691C0.072893 2.69637 0.138497 2.61525 0.222324 2.55881C1.50524 1.74757 2.78816 0.936328 4.07108 0.128614C4.359 -0.0512699 4.55946 -0.0406885 4.82187 0.17094C5.74033 0.911638 6.66242 1.65586 7.58088 2.39656C7.61368 2.42478 7.65012 2.44947 7.6975 2.48827C7.9745 2.26606 8.25149 2.04385 8.52849 1.82164C9.20639 1.27493 9.8843 0.731754 10.5622 0.185048C10.8501 -0.0477427 11.036 -0.0583241 11.3494 0.139195C12.6214 0.939855 13.8898 1.74404 15.1618 2.5447C15.2164 2.57997 15.2711 2.61525 15.3148 2.6611C15.4132 2.7528 15.4169 2.85862 15.3294 2.95738C15.2784 3.01734 15.2164 3.06672 15.1545 3.11257C14.2688 3.79684 13.3868 4.4811 12.5012 5.16536C12.4611 5.19358 12.4246 5.22533 12.3736 5.26765C12.4611 5.33819 12.5412 5.40168 12.6214 5.46164C13.4852 6.1318 14.349 6.80196 15.2128 7.47211C15.2638 7.51091 15.3112 7.55676 15.3513 7.60614C15.4169 7.69432 15.4096 7.78955 15.3331 7.87068C15.2857 7.92006 15.2274 7.95886 15.169 7.99765C13.8934 8.80184 12.6214 9.60956 11.3458 10.4137C11.0506 10.6007 10.8501 10.5901 10.5841 10.3749C9.73851 9.69773 8.8966 9.017 8.05104 8.33979C7.79955 8.13521 7.81049 7.99765 8.09477 7.82482C9.45787 7.01006 10.821 6.19529 12.1841 5.38052C12.2387 5.34878 12.2934 5.3135 12.3663 5.27118C12.3153 5.23943 12.2752 5.21122 12.2351 5.18653C10.759 4.30827 9.28293 3.43001 7.81049 2.54823C7.74124 2.50943 7.69386 2.48474 7.61003 2.53412C6.12302 3.42296 4.636 4.30827 3.14898 5.19711C3.11618 5.21827 3.08702 5.23943 3.03964 5.27118C4.59591 6.20234 6.13759 7.12293 7.70115 8.05762C7.395 8.30452 7.11072 8.53731 6.82279 8.7701C6.17404 9.29564 5.52165 9.81766 4.8729 10.3432C4.55581 10.6007 4.38452 10.6113 4.03827 10.3926C2.76629 9.6025 1.5016 8.8089 0.240547 8.01176C0.153075 7.95533 0.0801823 7.87421 0 7.80366C0 7.76486 0 7.72607 0 7.68727C0.0619591 7.62025 0.112984 7.53913 0.185877 7.48269C1.04602 6.80901 1.91344 6.14238 2.77722 5.47223C2.85741 5.40874 2.93759 5.34525 3.02142 5.27823C2.96675 5.23591 2.9303 5.20416 2.89385 5.17242C2.0082 4.48815 1.1262 3.80389 0.240547 3.11963C0.153075 3.05261 0.0801823 2.96443 0 2.88683C0 2.84451 0 2.80571 0 2.76691Z" fill="#0047FF"/>
<path d="M7.70896 8.62897C8.67115 9.39788 9.62605 10.1668 10.5846 10.9322C10.8689 11.1579 11.062 11.172 11.3718 10.9745C11.6889 10.7735 12.006 10.5724 12.3668 10.3467C12.3486 10.643 12.3559 10.9004 12.3158 11.1544C12.2903 11.3237 12.1591 11.4542 12.0024 11.5459C10.5992 12.3607 9.19598 13.1755 7.78914 13.9832C7.7454 14.0079 7.66158 14.0043 7.62149 13.9796C6.22558 13.1719 4.82968 12.3607 3.43742 11.553C3.21874 11.426 3.09482 11.2391 3.08024 10.9957C3.06931 10.7946 3.0766 10.5901 3.0766 10.3678C3.12762 10.3961 3.16772 10.4102 3.20416 10.4349C3.49938 10.6183 3.79095 10.8052 4.08617 10.9922C4.36316 11.1685 4.57091 11.1544 4.82239 10.9498C5.72626 10.2232 6.63378 9.49312 7.53766 8.76653C7.59233 8.71715 7.65064 8.67482 7.70896 8.62897Z" fill="#0047FF"/>
</svg>
