<svg width="18" height="14" viewBox="0 0 18 14" fill="none" xmlns="http://www.w3.org/2000/svg">
<path d="M8.99017 13.9998C6.21146 13.9998 3.43274 13.9998 0.654026 14.0019C0.457461 14.0019 0.293061 13.9352 0.159039 13.7663C0.0589695 13.6371 0.00357391 13.4891 0.00178696 13.314C0.00178696 13.289 0.00178696 13.2661 0.00178696 13.2411C0.00178696 9.07882 0.00178696 4.91863 0 0.75844C0 0.497907 0.0714782 0.281144 0.255535 0.141498C0.346669 0.0727176 0.461034 0.0456222 0.568252 0.00810542C0.605778 -0.00648442 0.650452 0.00185263 0.693339 0.00185263C6.2329 0.00185263 11.7725 0.00185263 17.312 -0.000231634C17.5211 -0.000231634 17.7069 0.051875 17.8481 0.243627C17.941 0.368683 17.9946 0.510413 17.9964 0.677154C17.9964 0.708418 17.9964 0.739682 17.9964 0.770946C17.9964 4.92488 17.9964 9.07882 17.9982 13.2328C17.9982 13.56 17.8856 13.7976 17.6355 13.9331C17.5461 13.981 17.4335 13.9956 17.3317 13.9956C14.553 13.9998 11.7725 13.9998 8.99017 13.9998ZM3.60071 12.5887C7.205 12.5887 10.7986 12.5887 14.4011 12.5887C14.4046 11.8113 14.6423 11.1568 15.1087 10.6128C15.5751 10.0688 16.1416 9.80206 16.7938 9.79789C16.7938 7.92622 16.7938 6.06706 16.7938 4.20164C16.1308 4.19539 15.5662 3.92235 15.1016 3.37836C14.637 2.83437 14.4011 2.17782 14.3993 1.40873C10.795 1.40873 7.20143 1.40873 3.59893 1.40873C3.59714 2.18199 3.35948 2.84062 2.89308 3.38253C2.42669 3.92444 1.86201 4.19539 1.20441 4.20164C1.20441 6.07331 1.20441 7.93456 1.20441 9.79789C1.86737 9.80414 2.42847 10.0751 2.89308 10.617C3.36305 11.1631 3.59714 11.8196 3.60071 12.5887Z" fill="black"/>
<path d="M5.99805 6.88235C6.02306 5.80062 6.30362 4.68762 6.91833 3.71635C7.33469 3.05772 7.89401 2.62419 8.59985 2.49288C9.35752 2.35115 10.0294 2.59084 10.6209 3.1536C11.107 3.61422 11.4054 4.22491 11.6341 4.88771C11.8861 5.61512 12.0254 6.37379 11.9933 7.16165C11.9432 8.39762 11.6323 9.53354 10.939 10.484C10.4154 11.1989 9.73636 11.5803 8.91257 11.5511C8.27105 11.5282 7.72782 11.2301 7.25964 10.732C6.854 10.3026 6.5931 9.76073 6.38582 9.17922C6.13743 8.48307 6.00519 7.75775 5.99805 6.88235ZM9.60055 3.84974C9.26281 3.84974 8.93937 3.84766 8.61594 3.85183C8.56769 3.85183 8.51051 3.87684 8.47477 3.91436C8.05126 4.36664 7.63132 4.8231 7.2096 5.27538C7.18816 5.29831 7.15778 5.31081 7.13098 5.32957C7.39008 5.64221 7.62596 5.92984 7.87971 6.23623C8.06019 6.03406 8.23531 5.83605 8.39435 5.6568C8.39435 6.65517 8.39435 7.69522 8.39435 8.74777C7.99408 8.74777 7.60095 8.74777 7.20424 8.74777C7.20424 9.1021 7.20424 9.44392 7.20424 9.78991C8.40508 9.78991 9.60055 9.78991 10.7942 9.78991C10.7942 9.43975 10.7942 9.09793 10.7942 8.74361C10.394 8.74361 10.0008 8.74361 9.60055 8.74361C9.60055 7.10954 9.60055 5.48589 9.60055 3.84974Z" fill="black"/>
</svg>
