<svg width="14" height="14" viewBox="0 0 14 14" fill="none" xmlns="http://www.w3.org/2000/svg">
<path d="M0.305471 13.9999C0.0691965 13.8901 -0.0187197 13.7035 0.00325937 13.4482C0.0307332 13.0914 -0.00223539 12.7209 0.080186 12.3778C0.264261 11.6148 0.775273 11.1317 1.52806 10.9231C2.35227 10.6953 3.18198 10.4867 4.01169 10.2726C4.0474 10.2644 4.11059 10.2781 4.13257 10.3056C4.72601 11.0247 5.48428 11.4721 6.40191 11.6093C7.69318 11.8042 8.80312 11.4172 9.71525 10.4785C9.74822 10.4455 9.77844 10.4126 9.80317 10.3742C9.82789 10.3385 9.84712 10.2973 9.87735 10.2452C9.91306 10.2507 9.95152 10.2534 9.98999 10.2616C10.8087 10.4757 11.6302 10.6843 12.4461 10.9094C13.2951 11.1427 13.8281 11.6944 13.9654 12.5672C14.0231 12.9322 13.9929 13.3137 13.9819 13.6843C13.9764 13.849 13.8281 13.9285 13.688 13.9944C9.22896 13.9999 4.76722 13.9999 0.305471 13.9999Z" fill="#FF1F00"/>
<path d="M9.81713 1.00644C9.86933 1.03938 9.91054 1.06408 9.95175 1.08878C10.7897 1.61027 11.4765 2.269 11.8914 3.18298C12.0617 3.559 12.1524 3.95424 12.092 4.36594C11.9986 5.00271 11.5452 5.4446 10.8666 5.54341C10.5864 5.58458 10.2952 5.58458 10.0094 5.56537C9.9023 5.55988 9.76768 5.47754 9.70449 5.38971C8.93247 4.26713 7.82253 3.78681 6.50654 3.68526C5.82519 3.63311 5.14933 3.688 4.47622 3.78956C4.20698 3.83073 3.98444 3.70173 3.95971 3.45196C3.91301 2.95243 3.89103 2.45015 4.08609 1.96983C4.46798 1.03115 5.16032 0.476719 6.16586 0.328506C7.12195 0.185782 8.05606 0.281846 8.9627 0.616698C9.03962 0.644145 9.07534 0.624932 9.1193 0.564549C9.2182 0.432804 9.31985 0.303803 9.42151 0.177548C9.5836 -0.0228143 9.83087 -0.0557506 10.0149 0.0897179C10.1963 0.235186 10.2182 0.484953 10.0644 0.68806C9.98747 0.789613 9.90505 0.893911 9.81713 1.00644Z" fill="#FF1F00"/>
<path d="M3.89844 4.52739C4.26384 4.68383 4.60177 4.59326 4.93969 4.55209C5.74193 4.45602 6.53867 4.43407 7.32717 4.64815C7.95357 4.81832 8.48931 5.13671 8.87394 5.66369C9.15143 6.04245 9.45364 6.35535 9.96191 6.39103C9.8163 6.88233 9.57727 7.30226 9.22561 7.64809C8.33546 8.52914 7.27222 8.82282 6.07711 8.4468C4.88475 8.07078 4.16493 7.21992 3.95888 5.9903C3.88195 5.52371 3.91767 5.03241 3.89844 4.52739ZM7.67609 7.49988C7.87115 7.45322 8.03874 7.43126 8.19534 7.37637C8.4481 7.28854 8.55525 7.06073 8.47008 6.83567C8.38766 6.61335 8.15688 6.52552 7.90412 6.61335C7.66784 6.69843 7.50575 6.64628 7.35739 6.44592C7.1898 6.21537 6.83539 6.20713 6.65955 6.42671C6.47273 6.66001 6.35185 6.69569 6.06887 6.59962C5.84358 6.52277 5.6183 6.61884 5.53588 6.82469C5.45071 7.03877 5.54961 7.26658 5.77215 7.36265C6.15129 7.51909 6.52768 7.51086 6.89034 7.31599C6.9755 7.27207 7.0277 7.28305 7.11287 7.31599C7.30244 7.39284 7.50025 7.44499 7.67609 7.49988Z" fill="#FF1F00"/>
<path d="M4.98506 8.87036C6.33952 9.60868 7.67749 9.60868 9.03195 8.87036C9.03195 9.25187 9.0347 9.61417 9.02921 9.97647C9.02921 10.0094 8.99349 10.0478 8.96602 10.0753C7.92751 11.0908 6.08127 11.0935 5.051 10.0808C5.01803 10.0506 4.99056 9.99842 4.98781 9.95451C4.98231 9.60045 4.98506 9.24364 4.98506 8.87036Z" fill="#FF1F00"/>
</svg>
