<svg width="14" height="14" viewBox="0 0 14 14" fill="none" xmlns="http://www.w3.org/2000/svg">
<path d="M0 13.4814C0.109546 13.244 0.295775 13.1563 0.551382 13.1782C0.646322 13.1855 0.741262 13.1782 0.847157 13.1782C0.847157 13.1161 0.847157 13.0686 0.847157 13.0175C0.847157 12.137 0.847157 11.2565 0.847157 10.3797C0.847157 10.0509 1.00417 9.89741 1.33281 9.89741C1.84038 9.89741 2.34429 9.89741 2.85185 9.89741C3.14397 9.89741 3.30829 10.0618 3.30829 10.3577C3.30829 11.2419 3.30829 12.126 3.30829 13.0101C3.30829 13.0613 3.30829 13.1088 3.30829 13.1709C3.57851 13.1709 3.84507 13.1709 4.12989 13.1709C4.12989 13.1197 4.12989 13.0649 4.12989 13.0138C4.12989 11.8155 4.12989 10.6171 4.12989 9.41881C4.12989 9.06808 4.2796 8.91829 4.6265 8.91829C5.12311 8.91829 5.61972 8.91829 6.11633 8.91829C6.43401 8.91829 6.59103 9.07904 6.59103 9.40054C6.59103 10.6025 6.59103 11.8082 6.59103 13.0101C6.59103 13.0649 6.59103 13.1161 6.59103 13.1782C6.86489 13.1782 7.1278 13.1782 7.41262 13.1782C7.41262 13.1271 7.41262 13.0759 7.41262 13.0211C7.41262 11.3149 7.41262 9.61244 7.41262 7.90628C7.41262 7.56651 7.56599 7.41307 7.90193 7.41307C8.39489 7.41307 8.88784 7.41307 9.37715 7.41307C9.71674 7.41307 9.87011 7.56651 9.87011 7.90263C9.87011 9.60148 9.87011 11.304 9.87011 13.0028C9.87011 13.0576 9.87011 13.1124 9.87011 13.1746C10.144 13.1746 10.4105 13.1746 10.6917 13.1746C10.6917 13.1197 10.6917 13.0649 10.6917 13.0138C10.6917 10.4016 10.6917 7.78937 10.6917 5.17716C10.6917 4.83008 10.8414 4.67664 11.1883 4.67664C11.6813 4.67664 12.1742 4.67664 12.6635 4.67664C12.9922 4.67664 13.1492 4.83373 13.1492 5.15889C13.1492 7.77476 13.1492 10.3906 13.1492 13.0065C13.1492 13.0613 13.1492 13.1124 13.1492 13.1782C13.2806 13.1782 13.3975 13.1782 13.5143 13.1782C13.7773 13.1782 13.9343 13.2878 13.9854 13.5034C14.0329 13.697 13.9343 13.8651 13.7115 13.9783C13.7042 13.982 13.7006 13.9929 13.6969 14.0002C9.23109 14.0002 4.76526 14.0002 0.299426 14.0002C0.164319 13.9345 0.0657277 13.8358 0 13.7006C0 13.6276 0 13.5545 0 13.4814Z" fill="black"/>
<path d="M0 8.31112C0.0912886 8.06634 0.270214 7.98596 0.522171 7.98596C2.26761 7.9677 3.91811 7.53294 5.49192 6.81321C7.78144 5.76467 9.73501 4.27041 11.2906 2.27928C11.59 1.89932 11.8493 1.49014 12.1231 1.09556C12.1158 1.0846 12.1049 1.07364 12.0976 1.06268C12.0647 1.06634 12.0355 1.06634 12.0026 1.0773C11.5206 1.20517 11.035 1.33669 10.553 1.46456C10.2353 1.54859 9.97602 1.34035 10.0052 1.03346C10.0198 0.861744 10.1403 0.73022 10.3339 0.675419C11.1116 0.467172 11.8894 0.258926 12.6672 0.0506797C12.711 0.0397193 12.7548 0.0251056 12.7987 0.0141452C13.0324 -0.0443099 13.2478 0.0652934 13.3135 0.299114C13.5436 1.13575 13.7663 1.97605 13.9891 2.81634C14.0438 3.02824 13.9124 3.24744 13.7152 3.30225C13.4925 3.36435 13.2514 3.22187 13.1857 2.98805C13.0652 2.54598 12.9484 2.10026 12.8279 1.6582C12.8206 1.62897 12.8096 1.59974 12.795 1.5559C12.7731 1.58878 12.7548 1.60705 12.7402 1.62531C11.9588 2.91498 10.9619 4.02563 9.82265 5.00475C8.27075 6.33826 6.53991 7.37218 4.60825 8.05538C3.29004 8.51937 1.93532 8.78972 0.533125 8.81164C0.281169 8.81529 0.102243 8.73857 0 8.5011C0 8.43899 0 8.37323 0 8.31112Z" fill="black"/>
</svg>
