<svg width="16" height="14" viewBox="0 0 16 14" fill="none" xmlns="http://www.w3.org/2000/svg">
<path d="M8.01001 0.00243584C9.98279 0.00243584 11.9556 -0.0030448 13.9333 0.00243584C14.9348 0.00243584 15.7108 0.654632 15.9362 1.67951C15.9762 1.87134 15.9962 2.06864 15.9962 2.26594C16.0013 5.42279 16.0013 8.58512 15.9962 11.742C15.9962 13.0573 15.13 14 13.9233 14C9.97778 14 6.02723 14 2.08168 14C0.879987 14 0.00876232 13.0628 0.00375528 11.742C-0.00125176 8.57964 -0.00125176 5.41731 0.00375528 2.2495C0.00375528 0.939626 0.869973 0.00791649 2.06666 0.00243584C4.04944 0.00243584 6.02723 0.00243584 8.01001 0.00243584ZM6.75325 9.1003C6.81834 9.0181 6.8634 8.95781 6.90847 8.903C7.82976 7.69726 8.74605 6.48604 9.66735 5.2803C10.3183 4.42532 11.2796 4.41983 11.9405 5.26385C12.6916 6.22297 13.4427 7.18208 14.1937 8.14119C14.2488 8.21244 14.3039 8.27821 14.374 8.36042C14.384 8.30561 14.394 8.28917 14.394 8.27273C14.394 6.25037 14.394 4.22801 14.394 2.20565C14.394 1.9371 14.2438 1.77816 13.9984 1.75624C13.9384 1.75076 13.8733 1.75624 13.8132 1.75624C10.7389 1.75624 7.66954 1.75624 4.59521 1.75624C3.75904 1.75624 2.92286 1.75624 2.08668 1.75624C1.76623 1.75624 1.61102 1.92614 1.61102 2.27142C1.61102 4.94598 1.61102 7.61505 1.61102 10.2896C1.61102 10.3334 1.62103 10.3718 1.63104 10.4431C2.35206 9.65385 3.05304 8.88108 3.75403 8.11379C4.38992 7.41775 5.22109 7.41775 5.86199 8.11379C6.1524 8.42619 6.44281 8.75502 6.75325 9.1003Z" fill="#16D194"/>
<path d="M4.0097 6.12401C3.13347 6.12949 2.41246 5.35124 2.40245 4.39213C2.39243 3.42753 3.11845 2.62736 4.0047 2.63284C4.88594 2.63284 5.60194 3.41109 5.60194 4.37568C5.60695 5.32932 4.88594 6.12401 4.0097 6.12401Z" fill="#16D194"/>
</svg>
