<svg width="7" height="11" viewBox="0 0 7 11" fill="none" xmlns="http://www.w3.org/2000/svg">
<path d="M6.5538 -1.95041e-08C6.75776 0.062435 6.9164 0.171696 6.97873 0.37461C7.02405 0.530697 6.99006 0.676379 6.88808 0.806452C6.85408 0.848075 6.80875 0.889698 6.76909 0.931321C5.31867 2.25806 3.86825 3.59001 2.41782 4.92196C2.38949 4.94797 2.36683 4.97398 2.31584 5.02081C2.3555 5.04683 2.39516 5.06243 2.42349 5.08845C3.87958 6.4204 5.33567 7.75754 6.78609 9.09469C7.00705 9.29761 7.05805 9.51613 6.9334 9.72945C6.78043 10.0052 6.38949 10.0884 6.1232 9.90114C6.07788 9.86993 6.03822 9.83351 5.99856 9.79709C4.40649 8.33507 2.81442 6.87305 1.22235 5.41103C0.922069 5.13528 0.922069 4.85952 1.22235 4.58897C2.78609 3.15297 4.3555 1.71696 5.91924 0.280957C6.04388 0.166493 6.16853 0.0520291 6.34417 -2.86674e-08C6.41215 -2.56955e-08 6.48581 -2.2476e-08 6.5538 -1.95041e-08Z" fill="white"/>
</svg>
