<svg width="20" height="20" viewBox="0 0 20 20" fill="none" xmlns="http://www.w3.org/2000/svg">
<g clip-path="url(#clip0)">
<path d="M17.0994 2.91933C18.0616 1.93587 19.0014 0.974757 19.9456 0.013648C19.9635 0.0225885 19.9814 0.0359994 20.0038 0.0449399C20.0038 2.65111 20.0038 5.25728 20.0038 7.87686C17.3545 7.87686 14.714 7.87686 12.0065 7.87686C13.0134 6.88893 13.9846 5.93676 14.9915 4.94436C14.6693 4.68955 14.3739 4.41687 14.0472 4.19335C12.5838 3.20542 10.9638 2.81204 9.21393 3.03108C6.73016 3.344 4.92662 4.66273 3.74962 6.85764C3.63774 7.06774 3.57956 7.30466 3.44978 7.49688C3.02015 8.13613 2.18328 8.3373 1.51646 7.97967C0.836219 7.61758 0.527425 6.81293 0.818318 6.08875C1.26137 4.98906 1.90581 4.01007 2.72031 3.15178C4.1524 1.65424 5.86643 0.630546 7.9161 0.223751C11.2233 -0.433379 14.1591 0.344448 16.71 2.5617C16.8309 2.66899 16.9472 2.78075 17.0994 2.91933Z" fill="white"/>
<path d="M0 19.9507C0 17.3579 0 14.7652 0 12.159C2.66279 12.159 5.31663 12.159 8.01969 12.159C7.01723 13.138 6.05057 14.0812 5.03468 15.0736C5.41508 15.3642 5.75073 15.6637 6.12665 15.9096C8.85209 17.6664 12.4592 17.3266 14.8176 15.1049C15.5247 14.4388 16.0752 13.661 16.4601 12.7714C16.8091 11.9623 17.7355 11.6181 18.5097 11.9981C19.2884 12.3781 19.5614 13.3079 19.1631 14.0902C18.6798 15.0423 18.1338 15.9498 17.4088 16.7366C15.8022 18.4755 13.8375 19.5707 11.4925 19.8926C8.24793 20.3396 5.41508 19.4142 3.02081 17.1568C2.99843 17.1389 2.97606 17.121 2.94473 17.0897C1.97807 18.0598 1.01589 19.0209 0.0537033 19.9864C0.0358022 19.973 0.0179011 19.9641 0 19.9507Z" fill="white"/>
</g>
<defs>
<clipPath id="clip0">
<rect width="20" height="20" fill="white"/>
</clipPath>
</defs>
</svg>
