<svg width="105" height="16" viewBox="0 0 105 16" fill="none" xmlns="http://www.w3.org/2000/svg">
<path d="M2.54175 2.048C1.42175 3.168 0.79775 4.656 0.79775 6.24C0.79775 9.504 3.50175 12.192 6.73375 12.192C8.31775 12.192 9.91775 11.456 11.2298 10.128L10.1098 9.008C9.10175 10.016 7.88575 10.576 6.73375 10.576C4.34975 10.576 2.39775 8.56 2.39775 6.24C2.39775 3.904 4.38175 1.92 6.73375 1.92C7.88575 1.92 9.10175 2.48 10.1098 3.52L11.2138 2.336C9.91775 1.024 8.33375 0.304 6.73375 0.304C5.14975 0.304 3.64575 0.927999 2.54175 2.048ZM12.326 7.76C12.326 10.208 14.31 12.192 16.742 12.192C19.174 12.192 21.158 10.208 21.158 7.76C21.158 5.344 19.174 3.344 16.742 3.344C14.31 3.344 12.326 5.344 12.326 7.76ZM13.894 7.76C13.894 6.192 15.174 4.928 16.742 4.928C18.326 4.928 19.59 6.192 19.59 7.76C19.59 9.344 18.326 10.608 16.742 10.608C15.174 10.608 13.894 9.344 13.894 7.76ZM30.0544 7.024C30.0544 5.584 31.0144 4.944 31.9584 4.944C32.9664 4.944 33.8624 5.584 33.8624 7.024V12H35.4784V7.024C35.4784 3.68 32.7104 3.344 32.2784 3.344C31.7184 3.344 30.5824 3.328 29.5264 4.592C28.5984 3.344 27.2864 3.344 26.9344 3.344C25.9904 3.344 25.1264 3.728 24.6144 4.416V3.536H23.0144V12H24.6144V7.024C24.6144 5.584 25.5264 4.944 26.5184 4.944C27.5264 4.944 28.4384 5.584 28.4384 7.024V12H30.0544V7.024ZM38.0178 12H39.6178V3.536H38.0178V12ZM38.8018 0.304C38.3218 0.304 37.8738 0.719999 37.8738 1.248C37.8738 1.728 38.3218 2.176 38.8018 2.176C39.3298 2.176 39.7458 1.728 39.7458 1.248C39.7458 0.719999 39.3298 0.304 38.8018 0.304ZM43.9593 3.536H42.3113V12H43.9593V7.36C43.9593 6.032 44.8233 4.944 46.1513 4.944C47.4953 4.944 48.3593 6.032 48.3593 7.36V12H50.0233V7.36C50.0233 4.944 48.3433 3.344 46.5993 3.344C45.9433 3.344 44.9513 3.424 43.9593 4.496V3.536ZM56.1646 15.52C58.5806 15.52 60.6446 14.192 60.6446 11.088V3.536H59.0446V4.48C58.2926 3.776 57.2526 3.344 56.1966 3.344C53.7806 3.344 51.7806 5.344 51.7806 7.76C51.7806 10.208 53.7806 12.192 56.1966 12.192C57.2046 12.192 58.2606 11.856 59.0446 10.976C59.0446 13.248 57.5566 13.92 56.1646 13.92C55.4126 13.92 54.1486 13.6 53.3806 12.848L52.3726 14.112C53.3806 15.12 54.9966 15.52 56.1646 15.52ZM56.1966 10.608C54.6286 10.608 53.3486 9.344 53.3486 7.76C53.3486 6.192 54.6286 4.928 56.1966 4.928C57.6846 4.928 58.8846 6.096 59.0446 7.552V7.984C58.8846 9.44 57.6846 10.608 56.1966 10.608ZM71.0259 10.592C69.6499 10.592 68.4019 9.632 68.1139 8.48L66.6259 9.072C67.0899 10.8 68.9459 12.192 71.0259 12.192C73.3459 12.192 75.1219 10.816 75.1219 8.8C75.1219 6.896 73.8259 5.824 71.0419 5.184C69.5219 4.832 68.5779 4.368 68.5779 3.408C68.5779 2.48 69.5859 1.92 71.0419 1.92C72.3059 1.92 73.2179 2.672 73.5059 3.616L75.0259 3.072C74.5459 1.52 72.9619 0.304 71.0259 0.304C68.5139 0.304 66.9939 1.584 66.9939 3.36C66.9939 5.088 68.3699 6.176 70.8659 6.72C72.6099 7.104 73.5219 7.728 73.5219 8.816C73.5219 9.92 72.5139 10.592 71.0259 10.592ZM76.4041 7.76C76.4041 10.208 78.3881 12.192 80.8201 12.192C83.2521 12.192 85.2361 10.208 85.2361 7.76C85.2361 5.344 83.2521 3.344 80.8201 3.344C78.3881 3.344 76.4041 5.344 76.4041 7.76ZM77.9721 7.76C77.9721 6.192 79.2521 4.928 80.8201 4.928C82.4041 4.928 83.6681 6.192 83.6681 7.76C83.6681 9.344 82.4041 10.608 80.8201 10.608C79.2521 10.608 77.9721 9.344 77.9721 7.76ZM86.3885 7.76C86.3885 10.208 88.3725 12.192 90.8045 12.192C93.2365 12.192 95.2205 10.208 95.2205 7.76C95.2205 5.344 93.2365 3.344 90.8045 3.344C88.3725 3.344 86.3885 5.344 86.3885 7.76ZM87.9565 7.76C87.9565 6.192 89.2365 4.928 90.8045 4.928C92.3885 4.928 93.6525 6.192 93.6525 7.76C93.6525 9.344 92.3885 10.608 90.8045 10.608C89.2365 10.608 87.9565 9.344 87.9565 7.76ZM98.7249 3.536H97.0769V12H98.7249V7.36C98.7249 6.032 99.5889 4.944 100.917 4.944C102.261 4.944 103.125 6.032 103.125 7.36V12H104.789V7.36C104.789 4.944 103.109 3.344 101.365 3.344C100.709 3.344 99.7169 3.424 98.7249 4.496V3.536Z" fill="black"/>
</svg>
