<svg width="529" height="400" viewBox="0 0 689 476" fill="none" xmlns="http://www.w3.org/2000/svg">
<g filter="url(#filter0_dddddd_34:191)">
<path d="M80 32C80 15.4315 93.4315 2 110 2H609V266C609 282.569 595.569 296 579 296H80V32Z" fill="white" fill-opacity="0.85"/>
<path d="M110 2.5H608.5V266C608.5 282.292 595.292 295.5 579 295.5H80.5V32C80.5 15.7076 93.7076 2.5 110 2.5Z" stroke="black"/>
</g>
<line x1="146" y1="65.3663" x2="565" y2="65.3663" stroke="#DDDDDD" stroke-width="1.2" stroke-dasharray="4.8 7.2"/>
<line x1="146" y1="161.366" x2="565" y2="161.366" stroke="#DDDDDD" stroke-width="1.2" stroke-dasharray="4.8 7.2"/>
<line x1="146" y1="113.366" x2="565" y2="113.366" stroke="#DDDDDD" stroke-width="1.2" stroke-dasharray="4.8 7.2"/>
<line x1="146" y1="209.366" x2="565" y2="209.366" stroke="#DDDDDD" stroke-width="1.2" stroke-dasharray="4.8 7.2"/>
<path d="M563 141.517C525.5 125.893 514.854 166.59 504.569 166.59C496.545 166.59 496.244 192.91 488.5 198.304C482.711 202.338 469.499 185.432 463.5 187.275C450.478 191.585 436.455 182.966 423.433 170.9C409 153.416 404.606 182.432 391.584 158.3C388.471 152.943 385.408 147.204 382.372 141.517C371.73 121.582 361.426 102.278 350.515 102.278C342.626 102.278 334.369 113.983 325.967 125.893C320.501 133.642 314.973 141.478 309.446 146.234C301.349 153.736 292.866 153.575 284.476 153.416C279.373 153.319 274.304 153.222 269.379 154.852C256.434 158.034 244.344 172.231 231.531 187.275C230.463 188.53 229.389 189.79 228.31 191.051C215.288 206.564 201.264 222.94 187.241 231.559C174.219 239.315 160.195 239.315 147.173 218.631C145.43 216.167 143.703 213.383 142 210.359" stroke="#2DC471" stroke-width="2" stroke-linecap="round"/>
<path d="M338 101.778C338 96.5316 342.253 92.2783 347.5 92.2783H348.5C353.747 92.2783 358 96.5316 358 101.778C358 107.025 353.747 111.278 348.5 111.278H347.5C342.253 111.278 338 107.025 338 101.778Z" fill="#2DC471"/>
<g clip-path="url(#clip0_34:191)">
<path fill-rule="evenodd" clip-rule="evenodd" d="M351.123 114.294C350.857 113.946 350.534 113.233 349.958 112.369C349.632 111.879 348.823 110.958 348.582 110.49C348.373 110.077 348.395 109.892 348.445 109.549C348.533 108.939 349.137 108.465 349.781 108.529C350.267 108.576 350.68 108.909 351.051 109.224C351.275 109.413 351.551 109.781 351.717 109.989C351.869 110.179 351.907 110.257 352.07 110.483C352.286 110.781 352.353 110.928 352.271 110.6C352.204 110.119 352.095 109.297 351.938 108.57C351.818 108.018 351.789 107.932 351.674 107.509C351.554 107.058 351.492 106.743 351.378 106.265C351.299 105.928 351.158 105.238 351.119 104.849C351.066 104.318 351.038 103.453 351.367 103.055C351.625 102.743 352.216 102.649 352.583 102.841C353.063 103.093 353.336 103.815 353.46 104.103C353.684 104.621 353.823 105.22 353.944 106.006C354.098 107.007 354.381 108.396 354.39 108.688C354.413 108.33 354.327 107.576 354.387 107.232C354.441 106.921 354.694 106.559 355.011 106.461C355.279 106.378 355.593 106.348 355.87 106.407C356.163 106.469 356.473 106.687 356.588 106.891C356.927 107.497 356.934 108.735 356.948 108.669C357.029 108.304 357.014 107.476 357.214 107.131C357.345 106.904 357.68 106.699 357.858 106.666C358.134 106.616 358.472 106.6 358.762 106.659C358.995 106.706 359.311 106.993 359.397 107.131C359.601 107.465 359.717 108.409 359.752 108.74C359.766 108.877 359.821 108.36 360.027 108.026C360.407 107.406 361.754 107.286 361.806 108.646C361.829 109.281 361.825 109.252 361.825 109.679C361.825 110.181 361.814 110.483 361.787 110.846C361.758 111.234 361.678 112.111 361.56 112.536C361.48 112.829 361.213 113.486 360.949 113.88C360.949 113.88 359.942 115.093 359.833 115.639C359.722 116.185 359.759 116.189 359.737 116.576C359.715 116.962 359.85 117.471 359.85 117.471C359.85 117.471 359.099 117.572 358.694 117.505C358.327 117.444 357.873 116.689 357.756 116.458C357.595 116.139 357.251 116.2 357.117 116.435C356.906 116.807 356.452 117.474 356.131 117.516C355.505 117.597 354.206 117.546 353.189 117.535C353.189 117.535 353.362 116.554 352.976 116.217C352.69 115.966 352.198 115.456 351.903 115.188L351.123 114.294Z" fill="white"/>
<path fill-rule="evenodd" clip-rule="evenodd" d="M351.123 114.294C350.857 113.946 350.534 113.233 349.958 112.369C349.632 111.879 348.823 110.958 348.582 110.49C348.373 110.077 348.395 109.892 348.445 109.549C348.533 108.939 349.137 108.465 349.781 108.529C350.267 108.576 350.68 108.909 351.051 109.224C351.275 109.413 351.551 109.781 351.717 109.989C351.869 110.179 351.907 110.257 352.07 110.483C352.286 110.781 352.353 110.928 352.271 110.6C352.204 110.119 352.095 109.297 351.938 108.57C351.818 108.018 351.789 107.932 351.674 107.509C351.554 107.058 351.492 106.743 351.378 106.265C351.299 105.928 351.158 105.238 351.119 104.849C351.066 104.318 351.038 103.453 351.367 103.055C351.625 102.743 352.216 102.649 352.583 102.841C353.063 103.093 353.336 103.815 353.46 104.103C353.684 104.621 353.823 105.22 353.944 106.006C354.098 107.007 354.381 108.396 354.39 108.688C354.413 108.33 354.327 107.576 354.387 107.232C354.441 106.921 354.694 106.559 355.011 106.461C355.279 106.378 355.593 106.348 355.87 106.407C356.163 106.469 356.473 106.687 356.588 106.891C356.927 107.497 356.934 108.735 356.948 108.669C357.029 108.304 357.014 107.476 357.214 107.131C357.345 106.904 357.68 106.699 357.858 106.666C358.134 106.616 358.472 106.6 358.762 106.659C358.995 106.706 359.311 106.993 359.397 107.131C359.601 107.465 359.717 108.409 359.752 108.74C359.766 108.877 359.821 108.36 360.027 108.026C360.407 107.406 361.754 107.286 361.806 108.646C361.829 109.281 361.825 109.252 361.825 109.679C361.825 110.181 361.814 110.483 361.787 110.846C361.758 111.234 361.678 112.111 361.56 112.536C361.48 112.829 361.213 113.486 360.949 113.88C360.949 113.88 359.942 115.093 359.833 115.639C359.722 116.185 359.759 116.189 359.737 116.576C359.715 116.962 359.85 117.471 359.85 117.471C359.85 117.471 359.099 117.572 358.694 117.505C358.327 117.444 357.873 116.689 357.756 116.458C357.595 116.139 357.251 116.2 357.117 116.435C356.906 116.807 356.452 117.474 356.131 117.516C355.505 117.597 354.206 117.546 353.189 117.535C353.189 117.535 353.362 116.554 352.976 116.217C352.69 115.966 352.198 115.456 351.903 115.188L351.123 114.294Z" stroke="black" stroke-width="0.75" stroke-linecap="round" stroke-linejoin="round"/>
<path d="M358.843 114.638V111.281" stroke="black" stroke-width="0.75" stroke-linecap="round"/>
<path d="M356.954 114.65L356.939 111.279" stroke="black" stroke-width="0.75" stroke-linecap="round"/>
<path d="M355.083 111.31L355.102 114.635" stroke="black" stroke-width="0.75" stroke-linecap="round"/>
</g>
<path d="M484 38.2783C484 29.4418 491.163 22.2783 500 22.2783H568C576.837 22.2783 584 29.4418 584 38.2783C584 47.1149 576.837 54.2783 568 54.2783H500C491.163 54.2783 484 47.1149 484 38.2783Z" fill="white"/>
<path d="M510 31.2783H498C496.895 31.2783 496 32.1738 496 33.2783V45.2783C496 46.3829 496.895 47.2783 498 47.2783H510C511.105 47.2783 512 46.3829 512 45.2783V33.2783C512 32.1738 511.105 31.2783 510 31.2783Z" stroke="#8C8C8C" stroke-width="1.5" stroke-linecap="round" stroke-linejoin="round"/>
<path d="M508 29.2783V33.2783" stroke="#8C8C8C" stroke-width="1.5" stroke-linecap="round" stroke-linejoin="round"/>
<path d="M500 29.2783V33.2783" stroke="#8C8C8C" stroke-width="1.5" stroke-linecap="round" stroke-linejoin="round"/>
<path d="M496 37.2783H512" stroke="#8C8C8C" stroke-width="1.5" stroke-linecap="round" stroke-linejoin="round"/>
<path d="M502 42.2783H506" stroke="#8C8C8C" stroke-width="1.5" stroke-linecap="round" stroke-linejoin="round"/>
<path d="M527.25 36.7083L525.83 34.0983H524.12L526.5 38.3083V41.2783H528V38.2983L530.4 34.0983H528.67L527.25 36.7083ZM529.75 38.7683C529.75 40.0683 530.73 41.3983 532.66 41.3983C533.38 41.3983 534.25 41.1183 534.8 40.6283L534.16 39.6183C533.59 40.0183 533.01 40.1083 532.66 40.1083C532.03 40.1083 531.4 39.8083 531.25 39.2083C532.31 39.2083 535.23 39.2083 535.23 39.2083L535.25 38.7683C535.25 37.0783 534.03 35.8683 532.51 35.8683C530.98 35.8683 529.75 36.9783 529.75 38.7683ZM532.51 37.2183C533.11 37.2183 533.63 37.5683 533.75 38.1783H531.27C531.35 37.6183 531.9 37.2183 532.51 37.2183ZM538.102 37.1083C538.472 37.1083 538.722 37.2683 538.992 37.5883L540.112 37.0983C539.682 36.2683 538.942 35.8683 538.132 35.8683C536.862 35.8683 536.072 36.5683 536.072 37.4883C536.072 38.2883 536.892 38.9483 538.052 39.1283C538.572 39.2083 538.712 39.4283 538.712 39.5983C538.712 39.8483 538.502 40.0683 538.062 40.0683C537.632 40.0683 537.202 39.6783 537.072 39.3783L535.912 39.9083C536.242 40.7883 537.122 41.3883 538.062 41.3883C539.242 41.3883 540.142 40.6583 540.142 39.6483C540.142 38.7683 539.492 38.0183 538.162 37.8683C537.802 37.8283 537.552 37.6583 537.552 37.4683C537.552 37.2683 537.712 37.1083 538.102 37.1083ZM544.295 35.9883H543.195V34.2783H541.695V35.9883H540.695V37.4683H541.695V41.2783H543.195V37.4683H544.295V35.9883ZM544.848 38.7683C544.848 40.0683 545.828 41.3983 547.758 41.3983C548.478 41.3983 549.348 41.1183 549.898 40.6283L549.258 39.6183C548.688 40.0183 548.108 40.1083 547.758 40.1083C547.128 40.1083 546.498 39.8083 546.348 39.2083C547.408 39.2083 550.328 39.2083 550.328 39.2083L550.348 38.7683C550.348 37.0783 549.128 35.8683 547.608 35.8683C546.078 35.8683 544.848 36.9783 544.848 38.7683ZM547.608 37.2183C548.208 37.2183 548.728 37.5683 548.848 38.1783H546.368C546.448 37.6183 546.998 37.2183 547.608 37.2183ZM554.53 35.8983C554.33 35.8683 554.24 35.8683 554.17 35.8683C553.69 35.8683 553.16 36.0283 552.81 36.8283V35.9883H551.34V41.2783H552.81V38.7083C552.81 37.8683 553.23 37.3383 553.93 37.3383C554.08 37.3383 554.38 37.3583 554.54 37.4183L554.53 35.8983ZM560.749 34.0983H559.249V36.5783C558.899 36.0883 558.259 35.8783 557.759 35.8783C556.269 35.8783 555.199 37.1183 555.199 38.6283C555.199 40.1583 556.329 41.3783 557.729 41.3783C558.219 41.3783 558.899 41.2183 559.239 40.5783L559.249 41.2783H560.749V34.0983ZM557.959 39.9683C557.259 39.9683 556.679 39.3483 556.679 38.6283C556.679 37.9183 557.259 37.2983 557.959 37.2983C558.669 37.2983 559.239 37.9083 559.249 38.6183V38.6583C559.239 39.3583 558.669 39.9683 557.959 39.9683ZM567.302 35.9883H565.802V36.5783C565.452 36.0883 564.812 35.8783 564.312 35.8783C562.822 35.8783 561.742 37.1183 561.742 38.6283C561.742 40.1583 562.882 41.3783 564.282 41.3783C564.772 41.3783 565.462 41.2183 565.802 40.5783V41.2783H567.302V35.9883ZM564.512 39.9683C563.812 39.9683 563.232 39.3483 563.232 38.6283C563.232 37.9183 563.812 37.2983 564.512 37.2983C565.222 37.2983 565.792 37.9083 565.802 38.6183V38.6583C565.792 39.3583 565.222 39.9683 564.512 39.9683ZM570.625 38.7683C569.865 37.2383 569.505 36.4283 569.295 35.9883H567.655L569.805 40.3283L568.415 43.0783H570.065L573.605 35.9883H571.965L570.625 38.7683Z" fill="#8C8C8C"/>
<path d="M500 23.2783H568V21.2783H500V23.2783ZM568 53.2783H500V55.2783H568V53.2783ZM500 53.2783C491.716 53.2783 485 46.5626 485 38.2783H483C483 47.6672 490.611 55.2783 500 55.2783V53.2783ZM583 38.2783C583 46.5626 576.284 53.2783 568 53.2783V55.2783C577.389 55.2783 585 47.6672 585 38.2783H583ZM568 23.2783C576.284 23.2783 583 29.994 583 38.2783H585C585 28.8895 577.389 21.2783 568 21.2783V23.2783ZM500 21.2783C490.611 21.2783 483 28.8895 483 38.2783H485C485 29.994 491.716 23.2783 500 23.2783V21.2783Z" fill="black"/>
<path d="M150.22 251.958C150.22 249.438 148.372 247.506 146.284 247.506C144.196 247.506 142.36 249.438 142.36 251.958C142.36 254.478 144.196 256.422 146.284 256.422C148.372 256.422 150.22 254.478 150.22 251.958ZM149.008 251.958C149.008 253.746 147.784 255.21 146.284 255.21C144.784 255.21 143.56 253.746 143.56 251.958C143.56 250.17 144.784 248.718 146.284 248.718C147.784 248.718 149.008 250.17 149.008 251.958ZM154.49 256.278C154.442 256.278 156.77 252.99 156.77 252.99C157.334 252.186 157.598 251.49 157.598 250.686C157.598 248.79 156.074 247.518 154.346 247.518C152.618 247.518 151.226 249.054 151.31 250.806C151.37 252.414 152.618 253.998 154.922 253.686L153.05 256.278H154.49ZM156.41 250.686C156.41 251.778 155.522 252.666 154.43 252.666C153.338 252.666 152.45 251.778 152.45 250.686C152.45 249.594 153.338 248.706 154.43 248.706C155.522 248.706 156.41 249.594 156.41 250.686ZM158.195 256.878H159.503L163.883 247.074H162.575L158.195 256.878ZM164.125 247.662V248.862H166.033V256.278H167.233V247.662H164.125ZM174.174 247.662H168.678V248.826H172.254L168.702 256.278H170.034L174.174 247.662Z" fill="#9F9F9F"/>
<path d="M555.48 248.662V249.862H557.388V257.278H558.588V248.662H555.48ZM568.013 252.958C568.013 250.438 566.165 248.506 564.077 248.506C561.989 248.506 560.153 250.438 560.153 252.958C560.153 255.478 561.989 257.422 564.077 257.422C566.165 257.422 568.013 255.478 568.013 252.958ZM566.801 252.958C566.801 254.746 565.577 256.21 564.077 256.21C562.577 256.21 561.353 254.746 561.353 252.958C561.353 251.17 562.577 249.718 564.077 249.718C565.577 249.718 566.801 251.17 566.801 252.958ZM568.371 257.878H569.679L574.059 248.074H572.751L568.371 257.878ZM574.756 248.662V249.862H578.032L576.256 252.682C576.556 252.682 577.096 252.682 577.408 252.682C578.416 252.682 579.208 253.426 579.208 254.422C579.208 255.406 578.416 256.234 577.408 256.234C576.52 256.234 575.788 255.538 575.644 254.614H574.42C574.636 256.162 575.908 257.422 577.408 257.422C579.076 257.422 580.432 256.066 580.432 254.422C580.432 253.258 579.832 252.058 578.344 251.638L580.24 248.662H574.756ZM581.507 248.662V249.862H583.415V257.278H584.615V248.662H581.507Z" fill="#9F9F9F"/>
<g filter="url(#filter1_dd_34:191)">
<path d="M315 50.2686C315 45.8503 318.582 42.2686 323 42.2686H372C376.418 42.2686 380 45.8503 380 50.2686V74.2273C380 78.6456 376.418 82.2273 372 82.2273H323C318.582 82.2273 315 78.6456 315 74.2273V50.2686Z" fill="#2C2C2C"/>
<path d="M325.679 56.2166V57.6166H327.905V66.2686H329.305V56.2166H325.679ZM333.399 65.4286C333.399 64.8826 332.979 64.4206 332.405 64.4206C331.859 64.4206 331.411 64.8826 331.411 65.4286C331.411 65.9886 331.859 66.4366 332.405 66.4366C332.979 66.4366 333.399 65.9886 333.399 65.4286ZM340.794 56.2166H334.382V57.5746H338.554L334.41 66.2686H335.964L340.794 56.2166ZM352.068 57.6166V56.2166H345.656V66.2686H352.068V64.8686H347.056V61.9286H351.956V60.5146H347.056V57.6166H352.068ZM359.548 56.2166H353.304V57.6166H355.726V66.2686H357.126V57.6166H359.548V56.2166ZM367.251 56.2166V60.5426H362.491V56.2166H361.091V66.2686H362.491V61.9426H367.251V66.2686H368.651V56.2166H367.251Z" fill="white"/>
<path d="M345.172 87.4401L342.343 84.6117C340.843 83.1114 338.808 82.2686 336.686 82.2686H359.314C357.192 82.2686 355.157 83.1114 353.657 84.6117L350.828 87.4401C349.266 89.0022 346.734 89.0022 345.172 87.4401Z" fill="#2C2C2C"/>
</g>
<path d="M117.22 221.916C117.22 219.396 115.372 217.464 113.284 217.464C111.196 217.464 109.36 219.396 109.36 221.916C109.36 224.436 111.196 226.38 113.284 226.38C115.372 226.38 117.22 224.436 117.22 221.916ZM116.008 221.916C116.008 223.704 114.784 225.168 113.284 225.168C111.784 225.168 110.56 223.704 110.56 221.916C110.56 220.128 111.784 218.676 113.284 218.676C114.784 218.676 116.008 220.128 116.008 221.916Z" fill="#9F9F9F"/>
<path d="M109.48 169.62V170.82H111.388V178.236H112.588V169.62H109.48Z" fill="#9F9F9F"/>
<path d="M109.48 121.62V122.82H111.388V130.236H112.588V121.62H109.48ZM116.097 129.516C116.097 129.048 115.737 128.652 115.245 128.652C114.777 128.652 114.393 129.048 114.393 129.516C114.393 129.996 114.777 130.38 115.245 130.38C115.737 130.38 116.097 129.996 116.097 129.516ZM117.851 125.652H120.239C121.307 125.652 122.099 126.396 122.099 127.392C122.099 128.376 121.271 129.204 120.287 129.204C119.387 129.204 118.667 128.508 118.523 127.584H117.299C117.515 129.132 118.775 130.392 120.287 130.392C121.943 130.392 123.299 129.036 123.299 127.392C123.299 125.736 122.111 124.428 120.191 124.428H119.111L119.195 122.856H122.555V121.62H118.067L117.851 125.652Z" fill="#9F9F9F"/>
<path d="M111.088 76.2838C111.232 75.3478 111.964 74.6638 112.852 74.6638C113.848 74.6638 114.652 75.2758 114.652 76.2718C114.652 76.7878 114.112 77.5078 113.812 77.8198C113.332 78.3238 110.056 81.7558 109.48 82.2358H116.008V81.0358H112.312L114.652 78.6478C115.492 77.8438 115.864 77.0038 115.864 76.2718C115.864 74.6158 114.496 73.4638 112.852 73.4638C111.244 73.4638 109.948 74.7238 109.84 76.2838H111.088Z" fill="#9F9F9F"/>
<defs>
<filter id="filter0_dddddd_34:191" x="0" y="0.703704" width="689" height="475.296" filterUnits="userSpaceOnUse" color-interpolation-filters="sRGB">
<feFlood flood-opacity="0" result="BackgroundImageFix"/>
<feColorMatrix in="SourceAlpha" type="matrix" values="0 0 0 0 0 0 0 0 0 0 0 0 0 0 0 0 0 0 127 0" result="hardAlpha"/>
<feOffset dy="1.85185"/>
<feGaussianBlur stdDeviation="1.57407"/>
<feColorMatrix type="matrix" values="0 0 0 0 0 0 0 0 0 0 0 0 0 0 0 0 0 0 0.01 0"/>
<feBlend mode="normal" in2="BackgroundImageFix" result="effect1_dropShadow_34:191"/>
<feColorMatrix in="SourceAlpha" type="matrix" values="0 0 0 0 0 0 0 0 0 0 0 0 0 0 0 0 0 0 127 0" result="hardAlpha"/>
<feOffset dy="8.14815"/>
<feGaussianBlur stdDeviation="3.25926"/>
<feColorMatrix type="matrix" values="0 0 0 0 0 0 0 0 0 0 0 0 0 0 0 0 0 0 0.01 0"/>
<feBlend mode="normal" in2="effect1_dropShadow_34:191" result="effect2_dropShadow_34:191"/>
<feColorMatrix in="SourceAlpha" type="matrix" values="0 0 0 0 0 0 0 0 0 0 0 0 0 0 0 0 0 0 127 0" result="hardAlpha"/>
<feOffset dy="20"/>
<feGaussianBlur stdDeviation="6.5"/>
<feColorMatrix type="matrix" values="0 0 0 0 0 0 0 0 0 0 0 0 0 0 0 0 0 0 0.01 0"/>
<feBlend mode="normal" in2="effect2_dropShadow_34:191" result="effect3_dropShadow_34:191"/>
<feColorMatrix in="SourceAlpha" type="matrix" values="0 0 0 0 0 0 0 0 0 0 0 0 0 0 0 0 0 0 127 0" result="hardAlpha"/>
<feOffset dy="38.5185"/>
<feGaussianBlur stdDeviation="12.7407"/>
<feColorMatrix type="matrix" values="0 0 0 0 0 0 0 0 0 0 0 0 0 0 0 0 0 0 0.0121481 0"/>
<feBlend mode="normal" in2="effect3_dropShadow_34:191" result="effect4_dropShadow_34:191"/>
<feColorMatrix in="SourceAlpha" type="matrix" values="0 0 0 0 0 0 0 0 0 0 0 0 0 0 0 0 0 0 127 0" result="hardAlpha"/>
<feOffset dy="64.8148"/>
<feGaussianBlur stdDeviation="23.4259"/>
<feColorMatrix type="matrix" values="0 0 0 0 0 0 0 0 0 0 0 0 0 0 0 0 0 0 0.0151852 0"/>
<feBlend mode="normal" in2="effect4_dropShadow_34:191" result="effect5_dropShadow_34:191"/>
<feColorMatrix in="SourceAlpha" type="matrix" values="0 0 0 0 0 0 0 0 0 0 0 0 0 0 0 0 0 0 127 0" result="hardAlpha"/>
<feOffset dy="100"/>
<feGaussianBlur stdDeviation="40"/>
<feColorMatrix type="matrix" values="0 0 0 0 0 0 0 0 0 0 0 0 0 0 0 0 0 0 0.02 0"/>
<feBlend mode="normal" in2="effect5_dropShadow_34:191" result="effect6_dropShadow_34:191"/>
<feBlend mode="normal" in="SourceGraphic" in2="effect6_dropShadow_34:191" result="shape"/>
</filter>
<filter id="filter1_dd_34:191" x="307" y="38.2686" width="81" height="62.3433" filterUnits="userSpaceOnUse" color-interpolation-filters="sRGB">
<feFlood flood-opacity="0" result="BackgroundImageFix"/>
<feColorMatrix in="SourceAlpha" type="matrix" values="0 0 0 0 0 0 0 0 0 0 0 0 0 0 0 0 0 0 127 0" result="hardAlpha"/>
<feOffset dy="4"/>
<feGaussianBlur stdDeviation="4"/>
<feColorMatrix type="matrix" values="0 0 0 0 0 0 0 0 0 0 0 0 0 0 0 0 0 0 0.2 0"/>
<feBlend mode="normal" in2="BackgroundImageFix" result="effect1_dropShadow_34:191"/>
<feColorMatrix in="SourceAlpha" type="matrix" values="0 0 0 0 0 0 0 0 0 0 0 0 0 0 0 0 0 0 127 0" result="hardAlpha"/>
<feOffset dy="1"/>
<feGaussianBlur stdDeviation="1"/>
<feColorMatrix type="matrix" values="0 0 0 0 0 0 0 0 0 0 0 0 0 0 0 0 0 0 0.15 0"/>
<feBlend mode="normal" in2="effect1_dropShadow_34:191" result="effect2_dropShadow_34:191"/>
<feBlend mode="normal" in="SourceGraphic" in2="effect2_dropShadow_34:191" result="shape"/>
</filter>
<clipPath id="clip0_34:191">
<rect width="15" height="16.5" fill="white" transform="translate(348 102.278)"/>
</clipPath>
</defs>
</svg>
