<svg width="26" height="21" viewBox="0 0 26 21" fill="none" xmlns="http://www.w3.org/2000/svg">
<path d="M5.07294 11.8C4.74798 11.8 4.43032 11.8964 4.16013 12.0769C3.88994 12.2575 3.67935 12.5141 3.555 12.8143C3.43064 13.1145 3.39811 13.4449 3.4615 13.7636C3.5249 14.0823 3.68138 14.3751 3.91116 14.6048C4.14093 14.8346 4.43369 14.9911 4.7524 15.0545C5.07111 15.1179 5.40147 15.0853 5.70169 14.961C6.0019 14.8366 6.25851 14.6261 6.43904 14.3559C6.61958 14.0857 6.71594 13.768 6.71594 13.4431C6.71594 13.0073 6.54284 12.5894 6.23471 12.2813C5.92659 11.9732 5.50869 11.8 5.07294 11.8ZM5.07294 14.2646C4.91046 14.2646 4.75163 14.2164 4.61653 14.1261C4.48144 14.0358 4.37614 13.9075 4.31397 13.7574C4.25179 13.6073 4.23552 13.4421 4.26722 13.2828C4.29892 13.1234 4.37716 12.9771 4.49205 12.8622C4.60694 12.7473 4.75331 12.669 4.91267 12.6373C5.07202 12.6056 5.2372 12.6219 5.38731 12.6841C5.53742 12.7463 5.66572 12.8516 5.75599 12.9867C5.84626 13.1217 5.89444 13.2806 5.89444 13.4431C5.89444 13.6609 5.80789 13.8699 5.65382 14.0239C5.49976 14.178 5.29081 14.2646 5.07294 14.2646Z" fill="white"/>
<path d="M21.5031 11.8C21.1782 11.8 20.8605 11.8964 20.5903 12.0769C20.3201 12.2575 20.1095 12.5141 19.9852 12.8143C19.8608 13.1145 19.8283 13.4449 19.8917 13.7636C19.9551 14.0823 20.1116 14.3751 20.3413 14.6048C20.5711 14.8346 20.8639 14.9911 21.1826 15.0545C21.5013 15.1179 21.8316 15.0853 22.1319 14.961C22.4321 14.8366 22.6887 14.6261 22.8692 14.3559C23.0497 14.0857 23.1461 13.768 23.1461 13.4431C23.1461 13.0073 22.973 12.5894 22.6649 12.2813C22.3568 11.9732 21.9389 11.8 21.5031 11.8ZM21.5031 14.2646C21.3406 14.2646 21.1818 14.2164 21.0467 14.1261C20.9116 14.0358 20.8063 13.9075 20.7441 13.7574C20.682 13.6073 20.6657 13.4421 20.6974 13.2828C20.7291 13.1234 20.8073 12.9771 20.9222 12.8622C21.0371 12.7473 21.1835 12.669 21.3428 12.6373C21.5022 12.6056 21.6674 12.6219 21.8175 12.6841C21.9676 12.7463 22.0959 12.8516 22.1862 12.9867C22.2764 13.1217 22.3246 13.2806 22.3246 13.4431C22.3246 13.6609 22.2381 13.8699 22.084 14.0239C21.9299 14.178 21.721 14.2646 21.5031 14.2646Z" fill="white"/>
<path d="M9.59131 13.854H16.9848V14.6755H9.59131V13.854Z" fill="white"/>
<path d="M9.59131 12.2109H16.9848V13.0324H9.59131V12.2109Z" fill="white"/>
<path d="M12.0557 6.04956H14.5202V6.87106H12.0557V6.04956Z" fill="white"/>
<path d="M25.6106 9.74633V8.92483C25.6096 8.59832 25.4795 8.28546 25.2486 8.05458C25.0177 7.8237 24.7049 7.69356 24.3784 7.69258H22.7518L21.9015 4.71053L21.6469 3.69598C21.58 3.42959 21.4261 3.19315 21.2096 3.02423C20.993 2.8553 20.7262 2.76356 20.4516 2.76358H16.9848V1.12057C16.9842 0.902898 16.8974 0.694323 16.7435 0.540403C16.5896 0.386482 16.381 0.299722 16.1633 0.299072H10.4128C10.1952 0.299722 9.98659 0.386482 9.83267 0.540403C9.67875 0.694323 9.59199 0.902898 9.59134 1.12057V2.76358H6.1246C5.84995 2.76356 5.58317 2.8553 5.36662 3.02423C5.15006 3.19315 4.99615 3.42959 4.92932 3.69598L4.67876 4.70643L3.8244 7.69258H2.19783C1.87131 7.69356 1.55845 7.8237 1.32757 8.05458C1.09669 8.28546 0.966551 8.59832 0.965576 8.92483V9.74633C0.966241 9.95442 1.01973 10.1589 1.12103 10.3407C1.22233 10.5224 1.36812 10.6755 1.54473 10.7855C1.17342 11.1671 0.965627 11.6784 0.965576 12.2108V17.1398C0.966142 17.3122 1.00301 17.4824 1.07379 17.6395C1.14456 17.7967 1.24765 17.9371 1.37633 18.0517V19.6043C1.3773 19.9309 1.50744 20.2437 1.73832 20.4746C1.9692 20.7055 2.28206 20.8356 2.60858 20.8366H5.89458C6.2211 20.8356 6.53396 20.7055 6.76484 20.4746C6.99572 20.2437 7.12586 19.9309 7.12683 19.6043V18.3721H19.4493V19.6043C19.4503 19.9309 19.5805 20.2437 19.8113 20.4746C20.0422 20.7055 20.3551 20.8356 20.6816 20.8366H23.9676C24.2941 20.8356 24.607 20.7055 24.8379 20.4746C25.0687 20.2437 25.1989 19.9309 25.1999 19.6043V18.0517C25.3285 17.9371 25.4316 17.7967 25.5024 17.6395C25.5732 17.4824 25.61 17.3122 25.6106 17.1398V12.2108C25.6106 11.6784 25.4028 11.1671 25.0314 10.7855C25.2081 10.6755 25.3539 10.5224 25.4552 10.3407C25.5565 10.1589 25.6099 9.95442 25.6106 9.74633ZM10.4128 1.12057H16.1633V2.76358H10.4128V1.12057ZM5.72617 3.89725C5.74819 3.80819 5.79938 3.72908 5.87159 3.6725C5.9438 3.61592 6.03287 3.58515 6.1246 3.58508H20.4516C20.5433 3.58515 20.6324 3.61592 20.7046 3.6725C20.7768 3.72908 20.828 3.80819 20.85 3.89725L20.9773 4.40658H5.59884L5.72617 3.89725ZM5.38114 5.22808H21.195L22.5998 10.1571H10.7866C10.6901 9.58306 10.3933 9.06182 9.94884 8.68591C9.50442 8.30999 8.94117 8.10372 8.35909 8.10372C7.777 8.10372 7.21375 8.30999 6.76934 8.68591C6.32492 9.06182 6.02809 9.58306 5.93155 10.1571H3.97638L5.38114 5.22808ZM9.94458 10.1571H6.77359C6.86327 9.80463 7.06783 9.49211 7.35496 9.26889C7.64209 9.04568 7.9954 8.9245 8.35909 8.9245C8.72277 8.9245 9.07609 9.04568 9.36321 9.26889C9.65034 9.49211 9.8549 9.80463 9.94458 10.1571ZM1.78708 8.92483C1.78708 8.8159 1.83035 8.71142 1.90738 8.63439C1.98441 8.55736 2.08889 8.51408 2.19783 8.51408H3.59027L3.12202 10.1571H2.19783C2.08889 10.1571 1.98441 10.1138 1.90738 10.0368C1.83035 9.95975 1.78708 9.85527 1.78708 9.74633V8.92483ZM6.30533 19.6043C6.30533 19.7133 6.26206 19.8178 6.18503 19.8948C6.108 19.9718 6.00352 20.0151 5.89458 20.0151H2.60858C2.49964 20.0151 2.39516 19.9718 2.31813 19.8948C2.2411 19.8178 2.19783 19.7133 2.19783 19.6043V18.3721H6.30533V19.6043ZM24.3784 19.6043C24.3784 19.7133 24.3351 19.8178 24.258 19.8948C24.181 19.9718 24.0765 20.0151 23.9676 20.0151H20.6816C20.5727 20.0151 20.4682 19.9718 20.3912 19.8948C20.3141 19.8178 20.2708 19.7133 20.2708 19.6043V18.3721H24.3784V19.6043ZM24.7891 17.1398C24.7891 17.2488 24.7458 17.3533 24.6688 17.4303C24.5918 17.5073 24.4873 17.5506 24.3784 17.5506H2.19783C2.08889 17.5506 1.98441 17.5073 1.90738 17.4303C1.83035 17.3533 1.78708 17.2488 1.78708 17.1398V16.7291H24.7891V17.1398ZM24.7891 15.9076H1.78708V12.2108C1.78805 11.8843 1.91819 11.5715 2.14907 11.3406C2.37995 11.1097 2.69282 10.9796 3.01933 10.9786H23.5569C23.8834 10.9796 24.1962 11.1097 24.4271 11.3406C24.658 11.5715 24.7881 11.8843 24.7891 12.2108V15.9076ZM24.7891 9.74633C24.7891 9.85527 24.7458 9.95975 24.6688 10.0368C24.5918 10.1138 24.4873 10.1571 24.3784 10.1571H23.4542L22.9859 8.51408H24.3784C24.4873 8.51408 24.5918 8.55736 24.6688 8.63439C24.7458 8.71142 24.7891 8.8159 24.7891 8.92483V9.74633Z" fill="white"/>
</svg>
