<svg width="25" height="21" viewBox="0 0 25 21" fill="none" xmlns="http://www.w3.org/2000/svg">
<path d="M21.9471 20.4796C21.454 20.4897 20.9697 20.3486 20.5591 20.0753C20.2535 19.8757 19.8964 19.7693 19.5314 19.7693C19.1664 19.7693 18.8093 19.8757 18.5037 20.0753C18.089 20.3394 17.6075 20.4796 17.1159 20.4796C16.6243 20.4796 16.1429 20.3394 15.7282 20.0753C15.4226 19.8755 15.0654 19.769 14.7003 19.769C14.3351 19.769 13.9779 19.8755 13.6724 20.0753C13.2577 20.3394 12.7762 20.4796 12.2846 20.4796C11.793 20.4796 11.3116 20.3394 10.8968 20.0753C10.5915 19.8756 10.2345 19.7692 9.86966 19.7692C9.50478 19.7692 9.14782 19.8756 8.84247 20.0753C8.46647 20.3252 8.02768 20.4641 7.57638 20.476L7.55151 19.7656C7.88487 19.7576 8.20858 19.6522 8.48261 19.4622C8.89721 19.1982 9.37851 19.058 9.87001 19.058C10.3615 19.058 10.8428 19.1982 11.2574 19.4622C11.563 19.6619 11.9201 19.7683 12.2851 19.7683C12.6502 19.7683 13.0073 19.6619 13.3129 19.4622C13.7276 19.198 14.2092 19.0576 14.701 19.0576C15.1928 19.0576 15.6743 19.198 16.0891 19.4622C16.3946 19.6619 16.7518 19.7683 17.1168 19.7683C17.4819 19.7683 17.839 19.6619 18.1445 19.4622C18.5593 19.1982 19.0407 19.058 19.5323 19.058C20.0239 19.058 20.5053 19.1982 20.92 19.4622C21.2263 19.6624 21.5843 19.769 21.9503 19.769C22.3162 19.769 22.6742 19.6624 22.9805 19.4622C23.3905 19.1897 23.874 19.0489 24.3663 19.0586V19.7691C23.9998 19.7591 23.6396 19.8662 23.3382 20.075C22.9266 20.3487 22.4412 20.4898 21.9471 20.4796Z" fill="white"/>
<path d="M2.62537 20.4794C2.1324 20.4896 1.64815 20.3485 1.23779 20.0752C0.936438 19.8663 0.576269 19.759 0.209717 19.769V19.0585C0.702803 19.0482 1.18719 19.1893 1.59765 19.4627C1.89884 19.6717 2.25892 19.779 2.62537 19.769C2.99199 19.779 3.35222 19.6716 3.65345 19.4624C4.06304 19.1891 4.54663 19.0481 5.0389 19.0585C5.51924 19.0477 5.99163 19.1823 6.39415 19.4446L6.03571 20.0578C5.74169 19.8599 5.39316 19.7589 5.0389 19.769C4.67379 19.7591 4.31509 19.8661 4.01509 20.0745C3.60426 20.3486 3.11916 20.49 2.62537 20.4794Z" fill="white"/>
<path d="M21.9481 17.9923C21.4548 18.0024 20.9701 17.8613 20.5591 17.5881C20.2533 17.3882 19.8959 17.2818 19.5305 17.2818C19.1652 17.2818 18.8078 17.3882 18.5019 17.5881C18.0873 17.852 17.6059 17.9922 17.1143 17.9922C16.6228 17.9922 16.1414 17.852 15.7268 17.5881C15.4213 17.3883 15.0643 17.2819 14.6994 17.2819C14.3345 17.2819 13.9775 17.3883 13.672 17.5881C13.2574 17.8521 12.776 17.9923 12.2845 17.9923C11.7929 17.9923 11.3115 17.8521 10.8969 17.5881C10.5914 17.3883 10.2344 17.2819 9.8695 17.2819C9.50457 17.2819 9.14756 17.3883 8.84214 17.5881C8.4318 17.8615 7.94753 18.0026 7.45456 17.9923C6.96158 18.0026 6.47731 17.8615 6.06698 17.5881C5.7659 17.3791 5.40595 17.2718 5.03961 17.2818C4.67339 17.2719 4.31357 17.3792 4.0126 17.5881C3.60291 17.8611 3.11942 18.0022 2.62715 17.9923C2.13406 18.0026 1.64968 17.8615 1.23921 17.5881C0.93753 17.3787 0.576771 17.2714 0.209717 17.2818V16.5713C0.702686 16.5612 1.18694 16.7022 1.5973 16.9756C1.89865 17.1845 2.25882 17.2918 2.62537 17.2818C2.99159 17.2918 3.35141 17.1845 3.65238 16.9756C4.06207 16.7025 4.54557 16.5614 5.03783 16.5713C5.53117 16.5609 6.01586 16.702 6.42648 16.9756C6.72767 17.1846 7.08775 17.2919 7.4542 17.2818C7.82065 17.2919 8.18073 17.1846 8.48192 16.9756C8.89655 16.7115 9.37792 16.5713 9.8695 16.5713C10.3611 16.5713 10.8425 16.7115 11.2571 16.9756C11.5626 17.1754 11.9196 17.2818 12.2846 17.2818C12.6496 17.2818 13.0067 17.1754 13.3122 16.9756C13.7268 16.7115 14.2082 16.5713 14.6998 16.5713C15.1913 16.5713 15.6727 16.7115 16.0873 16.9756C16.3928 17.1754 16.7499 17.2818 17.1149 17.2818C17.4799 17.2818 17.8369 17.1754 18.1424 16.9756C18.5575 16.7116 19.0392 16.5714 19.5311 16.5714C20.023 16.5714 20.5047 16.7116 20.9197 16.9756C21.2257 17.1753 21.5833 17.2817 21.9487 17.2817C22.3141 17.2817 22.6716 17.1753 22.9776 16.9756C23.3885 16.7024 23.873 16.5613 24.3663 16.5713V17.2818C23.999 17.2714 23.6381 17.3787 23.3361 17.5881C22.9255 17.8611 22.4412 18.0022 21.9481 17.9923Z" fill="white"/>
<path d="M21.9472 15.5062C21.4541 15.5163 20.9697 15.3752 20.5592 15.102C20.2579 14.893 19.8977 14.7858 19.5311 14.7957C19.2621 14.7865 18.995 14.8439 18.7535 14.9627L18.4402 14.3233C18.7793 14.157 19.1536 14.075 19.5311 14.0842C20.0248 14.0741 20.5097 14.2156 20.9205 14.4895C21.2268 14.6897 21.5848 14.7964 21.9507 14.7964C22.3166 14.7964 22.6746 14.6897 22.9809 14.4895C23.3908 14.2169 23.8742 14.0758 24.3664 14.0853V14.7957C23.9999 14.7857 23.6397 14.8929 23.3383 15.1016C22.9267 15.3753 22.4413 15.5165 21.9472 15.5062Z" fill="white"/>
<path d="M17.1122 15.506C16.6199 15.5163 16.1364 15.3753 15.7268 15.1021C15.4212 14.9022 15.064 14.7958 14.6989 14.7958C14.3337 14.7958 13.9765 14.9022 13.671 15.1021C13.2563 15.3661 12.7748 15.5063 12.2832 15.5063C11.7916 15.5063 11.3102 15.3661 10.8954 15.1021C10.5899 14.9023 10.2328 14.7959 9.86773 14.7959C9.50268 14.7959 9.14555 14.9023 8.84001 15.1021C8.42974 15.375 7.9458 15.5159 7.45314 15.506C6.96017 15.5162 6.47591 15.3751 6.06555 15.1017C5.7642 14.8928 5.40403 14.7855 5.03748 14.7955C4.67237 14.7856 4.31367 14.8927 4.01367 15.101C3.60324 15.3749 3.11868 15.5162 2.62537 15.506C2.1324 15.5162 1.64815 15.3751 1.23779 15.1017C0.936439 14.8928 0.57627 14.7855 0.209717 14.7955V14.085C0.702804 14.0748 1.18719 14.2159 1.59765 14.4893C1.89884 14.6982 2.25892 14.8055 2.62537 14.7955C2.99199 14.8056 3.35223 14.6981 3.65345 14.4889C4.06304 14.2156 4.54663 14.0747 5.0389 14.085C5.53187 14.0748 6.01612 14.2159 6.42648 14.4893C6.72767 14.6982 7.08775 14.8055 7.4542 14.7955C7.82075 14.8055 8.18092 14.6982 8.48228 14.4893C8.89699 14.2252 9.37841 14.085 9.87004 14.085C10.3617 14.085 10.8431 14.2252 11.2578 14.4893C11.5633 14.689 11.9205 14.7954 12.2855 14.7954C12.6506 14.7954 13.0077 14.689 13.3132 14.4893C13.728 14.2251 14.2096 14.0847 14.7014 14.0847C15.1931 14.0847 15.6747 14.2251 16.0895 14.4893C16.4024 14.6998 16.7736 14.8068 17.1506 14.7951C17.178 14.7955 17.2054 14.7941 17.2326 14.7909L17.3271 15.495C17.2558 15.5033 17.184 15.507 17.1122 15.506Z" fill="white"/>
<path d="M21.9481 13.0189C21.4548 13.029 20.9701 12.8879 20.5591 12.6147C20.2533 12.4148 19.8959 12.3084 19.5305 12.3084C19.1652 12.3084 18.8078 12.4148 18.5019 12.6147C18.0873 12.8786 17.6059 13.0188 17.1143 13.0188C16.6228 13.0188 16.1414 12.8786 15.7268 12.6147C15.4213 12.4149 15.0643 12.3086 14.6994 12.3086C14.3345 12.3086 13.9775 12.4149 13.672 12.6147C13.2574 12.8787 12.776 13.019 12.2845 13.019C11.7929 13.019 11.3115 12.8787 10.8969 12.6147C10.5914 12.4149 10.2344 12.3086 9.8695 12.3086C9.50457 12.3086 9.14756 12.4149 8.84214 12.6147C8.4318 12.8881 7.94753 13.0292 7.45456 13.0189C6.96158 13.0292 6.47731 12.8881 6.06698 12.6147C5.7659 12.4057 5.40595 12.2984 5.03961 12.3084C4.67339 12.2985 4.31357 12.4058 4.0126 12.6147C3.60291 12.8878 3.11942 13.0288 2.62715 13.0189C2.13406 13.0292 1.64968 12.8881 1.23921 12.6147C0.93753 12.4053 0.576771 12.298 0.209717 12.3084V11.598C0.702686 11.5878 1.18694 11.7289 1.5973 12.0022C1.89865 12.2111 2.25882 12.3184 2.62537 12.3084C2.99159 12.3184 3.35141 12.2111 3.65238 12.0022C4.06207 11.7291 4.54557 11.588 5.03783 11.598C5.53117 11.5875 6.01586 11.7286 6.42648 12.0022C6.72767 12.2112 7.08775 12.3185 7.4542 12.3084C7.82065 12.3185 8.18073 12.2112 8.48192 12.0022C8.89655 11.7381 9.37792 11.5979 9.8695 11.5979C10.3611 11.5979 10.8425 11.7381 11.2571 12.0022C11.5626 12.202 11.9196 12.3084 12.2846 12.3084C12.6496 12.3084 13.0067 12.202 13.3122 12.0022C13.7268 11.7381 14.2082 11.5979 14.6998 11.5979C15.1913 11.5979 15.6727 11.7381 16.0873 12.0022C16.3928 12.202 16.7499 12.3084 17.1149 12.3084C17.4799 12.3084 17.8369 12.202 18.1424 12.0022C18.5575 11.7382 19.0392 11.598 19.5311 11.598C20.023 11.598 20.5047 11.7382 20.9197 12.0022C21.2257 12.2019 21.5833 12.3083 21.9487 12.3083C22.3141 12.3083 22.6716 12.2019 22.9776 12.0022C23.3885 11.729 23.873 11.588 24.3663 11.598V12.3084C23.999 12.2981 23.6381 12.4054 23.3361 12.6147C22.9255 12.8877 22.4412 13.0288 21.9481 13.0189Z" fill="white"/>
<path d="M16.8859 12.7178L16.2156 12.4826C16.3882 11.9866 16.4588 11.4608 16.4229 10.9368C16.3871 10.4128 16.2456 9.90148 16.0071 9.43358L13.5669 4.6552C13.5428 4.60801 13.5296 4.55603 13.5282 4.50307C13.5267 4.45011 13.5372 4.3975 13.5588 4.3491C13.5803 4.3007 13.6124 4.25774 13.6528 4.22336C13.6931 4.18898 13.7406 4.16405 13.7918 4.1504L18.6547 2.85376C18.8132 2.81232 18.9489 2.70997 19.0322 2.56899C19.1156 2.42801 19.14 2.2598 19.1 2.10096C19.06 1.94212 18.9589 1.80549 18.8187 1.72081C18.6785 1.63613 18.5105 1.61024 18.3513 1.64878L12.4656 3.05554C12.3398 3.08527 12.2225 3.14357 12.1229 3.22592C12.0232 3.30826 11.9438 3.41245 11.8909 3.5304C11.8379 3.64836 11.8129 3.77691 11.8176 3.90611C11.8224 4.03531 11.8568 4.16169 11.9182 4.27545L13.666 7.52237C13.7103 7.6049 13.7203 7.70159 13.6937 7.79141C13.667 7.88123 13.606 7.9569 13.5239 8.00195L11.2681 9.2453L10.9253 8.62292L12.8727 7.54937L11.2933 4.61222C11.1803 4.40254 11.1171 4.16969 11.1085 3.93166C11.0998 3.69364 11.1461 3.45682 11.2436 3.23952C11.3411 3.02222 11.4873 2.83026 11.6709 2.67849C11.8545 2.52671 12.0705 2.41919 12.3022 2.36424L18.1851 0.957826C18.5275 0.871289 18.8904 0.924344 19.1937 1.10532C19.4971 1.2863 19.7161 1.58037 19.8027 1.92285C19.8892 2.26532 19.8361 2.62815 19.6552 2.93151C19.4742 3.23487 19.1801 3.45391 18.8376 3.54045L14.3992 4.72341L16.6401 9.10996C16.9223 9.66367 17.0895 10.2687 17.1318 10.8888C17.174 11.5088 17.0904 12.1309 16.8859 12.7178Z" fill="white"/>
<path d="M9.68345 9.31286L5.36646 11.6917L5.70917 12.3136L10.0262 9.93482L9.68345 9.31286Z" fill="white"/>
<path d="M20.1033 10.3548C19.5763 10.3548 19.0612 10.1985 18.6231 9.90576C18.1849 9.613 17.8434 9.19689 17.6418 8.71004C17.4401 8.2232 17.3874 7.68749 17.4902 7.17067C17.593 6.65384 17.8467 6.1791 18.2193 5.80649C18.5919 5.43387 19.0667 5.18012 19.5835 5.07732C20.1003 4.97452 20.636 5.02728 21.1229 5.22893C21.6097 5.43059 22.0258 5.77208 22.3186 6.21023C22.6114 6.64838 22.7676 7.1635 22.7676 7.69045C22.7669 8.39684 22.4859 9.07409 21.9864 9.57358C21.4869 10.0731 20.8097 10.354 20.1033 10.3548ZM20.1033 5.73661C19.7169 5.73661 19.3391 5.8512 19.0178 6.06589C18.6965 6.28058 18.4461 6.58573 18.2982 6.94275C18.1503 7.29977 18.1116 7.69262 18.187 8.07163C18.2624 8.45063 18.4485 8.79877 18.7217 9.07202C18.995 9.34527 19.3431 9.53136 19.7221 9.60675C20.1011 9.68214 20.494 9.64344 20.851 9.49556C21.208 9.34768 21.5132 9.09725 21.7278 8.77594C21.9425 8.45464 22.0571 8.07688 22.0571 7.69045C22.0565 7.17246 21.8504 6.67588 21.4841 6.3096C21.1179 5.94333 20.6213 5.73727 20.1033 5.73661Z" fill="white"/>
</svg>
