<svg width="25" height="25" viewBox="0 0 25 25" fill="none" xmlns="http://www.w3.org/2000/svg">
<path d="M0.835835 4.97101C0.510994 4.97101 0.245213 4.70523 0.239307 4.38039V0.665376C0.239307 0.334627 0.505087 0.0688477 0.835835 0.0688477H4.55084C4.87569 0.0688477 5.14147 0.334627 5.14147 0.665376V1.95884H19.4345V0.665376C19.4345 0.340534 19.7003 0.0747539 20.0251 0.0688477H23.7401C24.065 0.0688477 24.3308 0.334627 24.3367 0.665376V4.38039C24.3367 4.70523 24.0709 4.97101 23.7401 4.97101H22.4467V19.2641H23.7401C24.065 19.2641 24.3308 19.5298 24.3367 19.8547V23.5697C24.3367 23.8945 24.0709 24.1603 23.7401 24.1662H20.0251C19.7003 24.1662 19.4345 23.9004 19.4345 23.5697V22.2762H5.14147V23.5697C5.14147 23.8945 4.87569 24.1603 4.55084 24.1662H0.835835C0.510994 24.1662 0.245213 23.9004 0.239307 23.5697V19.8547C0.239307 19.5298 0.505087 19.2641 0.835835 19.2641H2.1293V4.97101H0.835835ZM23.1554 3.78976V1.25009H20.6158V3.78976H23.1554ZM20.6158 22.985H23.1554V20.4453H20.6158V22.985ZM5.14147 19.8547V21.095H19.4345V19.8547C19.4345 19.5298 19.7003 19.2641 20.0251 19.2641H21.2654V4.97101H20.0251C19.7003 4.97101 19.4345 4.70523 19.4345 4.38039V3.14008H5.14147V4.38039C5.14147 4.70523 4.87569 4.97101 4.55084 4.97101H3.31054V19.2641H4.55084C4.87569 19.2641 5.14147 19.5298 5.14147 19.8547ZM1.42055 20.4453V22.985H3.96022V20.4453H1.42055ZM3.96022 3.78976V1.25009H1.42055V3.78976H3.96022Z" fill="white"/>
</svg>
