<svg width="16" height="16" viewBox="0 0 16 16" fill="none" xmlns="http://www.w3.org/2000/svg">
<path d="M14.0233 2.01611L7.10351 8.96144C7.02418 8.91548 6.94076 8.87698 6.85432 8.84643L2.28586 7.30018C2.1477 7.26556 2.02508 7.18576 1.93746 7.07347C1.84984 6.96118 1.80225 6.82284 1.80225 6.68041C1.80225 6.53798 1.84984 6.39963 1.93746 6.28734C2.02508 6.17505 2.1477 6.09525 2.28586 6.06063L13.6208 2.02889C13.6948 2.00373 13.7725 1.99078 13.8508 1.99055C13.9093 1.98961 13.9676 1.99824 14.0233 2.01611Z" fill="#84829A"/>
<path d="M14.4641 2.87251L10.4324 14.2202C10.3879 14.3524 10.3014 14.4665 10.186 14.5449C10.0707 14.6234 9.93278 14.6619 9.79345 14.6547C9.65251 14.6611 9.5134 14.6207 9.39781 14.5398C9.28223 14.4589 9.19668 14.342 9.1545 14.2074L7.63381 9.63894C7.60326 9.5525 7.56476 9.46908 7.5188 9.38975L14.4769 2.46997C14.5162 2.60202 14.5117 2.74321 14.4641 2.87251Z" fill="#84829A"/>
</svg>
