<svg width="17" height="16" viewBox="0 0 17 16" fill="none" xmlns="http://www.w3.org/2000/svg">
<g clip-path="url(#clip0)">
<path d="M15.6397 0.82048C15.2357 0.702235 5.35242 -0.281758 1.88149 4.40753C0.344251 6.4849 0.321159 9.33262 1.80446 12.871C1.42819 13.652 1.09879 14.4746 0.830347 15.3427C0.748732 15.6065 0.896358 15.8861 1.15983 15.9675C1.20895 15.9828 1.2587 15.9899 1.30782 15.9899C1.52083 15.9899 1.71859 15.8523 1.7846 15.638C4.43007 7.0852 13.0273 2.94744 15.6637 1.90214C15.9202 1.80034 16.2631 1.00294 15.6397 0.82048Z" fill="#84829A"/>
<path d="M3.39111 13.9414C4.82206 14.5417 6.25279 14.8494 7.58329 14.8494C8.77918 14.8494 9.89445 14.6035 10.8555 14.1049C12.7897 13.1016 13.9716 11.1823 14.2734 8.55408C14.5809 5.87552 14.9637 4.19776 15.2831 3.17139C12.4404 4.48268 6.34507 7.88164 3.39111 13.9414Z" fill="#84829A"/>
</g>
<defs>
<clipPath id="clip0">
<rect width="15.3347" height="15.3347" fill="white" transform="translate(0.683594 0.655273)"/>
</clipPath>
</defs>
</svg>
