<svg width="18" height="19" viewBox="0 0 18 19" fill="none" xmlns="http://www.w3.org/2000/svg">
<path d="M0.641001 17.6492H2.39354V8.01024C2.39354 7.84893 2.52432 7.71815 2.68563 7.71815H6.77488V1.0001C6.77488 0.838791 6.90566 0.708008 7.06697 0.708008H14.6613C14.8226 0.708008 14.9534 0.838791 14.9534 1.0001V17.6492H17.5822C17.7435 17.6492 17.8743 17.78 17.8743 17.9413C17.8743 18.1026 17.7435 18.2334 17.5822 18.2334H0.641001C0.479694 18.2334 0.348913 18.1026 0.348913 17.9413C0.348913 17.78 0.479694 17.6492 0.641001 17.6492ZM11.7404 17.6492H12.9088V15.0204C12.9088 14.8591 12.778 14.7283 12.6167 14.7283H12.0325C11.8712 14.7283 11.7404 14.8591 11.7404 15.0204V17.6492ZM10.572 8.01024V17.6492H11.1562V15.0204C11.1562 14.5364 11.5485 14.1441 12.0325 14.1441H12.6167C13.1006 14.1441 13.4929 14.5364 13.4929 15.0204V17.6492H14.3692V1.29219H7.35905V7.71815H10.2799C10.4413 7.71815 10.572 7.84893 10.572 8.01024ZM2.97772 17.6492H9.98786V8.30233H2.97772V17.6492Z" fill="#84829A"/>
<path d="M8.5274 4.79736H10.2799C10.4412 4.79736 10.572 4.92815 10.572 5.08945V6.84199C10.572 7.00329 10.4412 7.13408 10.2799 7.13408H8.5274C8.36609 7.13408 8.23531 7.00329 8.23531 6.84199V5.08945C8.23531 4.92815 8.36609 4.79736 8.5274 4.79736ZM8.81949 6.5499H9.98784V5.38154H8.81949V6.5499Z" fill="#84829A"/>
<path d="M8.5274 1.87622H10.2799C10.4412 1.87622 10.572 2.007 10.572 2.16831V3.92085C10.572 4.08215 10.4412 4.21293 10.2799 4.21293H8.5274C8.36609 4.21293 8.23531 4.08215 8.23531 3.92085V2.16831C8.23531 2.007 8.36609 1.87622 8.5274 1.87622ZM8.81949 3.62876H9.98784V2.4604H8.81949V3.62876Z" fill="#84829A"/>
<path d="M11.4483 4.79736H13.2008C13.3621 4.79736 13.4929 4.92815 13.4929 5.08945V6.84199C13.4929 7.00329 13.3621 7.13408 13.2008 7.13408H11.4483C11.287 7.13408 11.1562 7.00329 11.1562 6.84199V5.08945C11.1562 4.92815 11.287 4.79736 11.4483 4.79736ZM11.7404 6.5499H12.9087V5.38154H11.7404V6.5499Z" fill="#84829A"/>
<path d="M11.4483 1.87622H13.2008C13.3621 1.87622 13.4929 2.007 13.4929 2.16831V3.92085C13.4929 4.08215 13.3621 4.21293 13.2008 4.21293H11.4483C11.287 4.21293 11.1562 4.08215 11.1562 3.92085V2.16831C11.1562 2.007 11.287 1.87622 11.4483 1.87622ZM11.7404 3.62876H12.9087V2.4604H11.7404V3.62876Z" fill="#84829A"/>
<path d="M11.4483 7.71802H13.2008C13.3621 7.71802 13.4929 7.8488 13.4929 8.01011V9.76264C13.4929 9.92395 13.3621 10.0547 13.2008 10.0547H11.4483C11.287 10.0547 11.1562 9.92395 11.1562 9.76264V8.01011C11.1562 7.8488 11.287 7.71802 11.4483 7.71802ZM11.7404 9.47055H12.9087V8.3022H11.7404V9.47055Z" fill="#84829A"/>
<path d="M11.4483 10.6389H13.2008C13.3621 10.6389 13.4929 10.7697 13.4929 10.931V12.6835C13.4929 12.8448 13.3621 12.9756 13.2008 12.9756H11.4483C11.287 12.9756 11.1562 12.8448 11.1562 12.6835V10.931C11.1562 10.7697 11.287 10.6389 11.4483 10.6389ZM11.7404 12.3915H12.9087V11.2231H11.7404V12.3915Z" fill="#84829A"/>
<path d="M5.89858 14.1441H4.14605C3.98474 14.1441 3.85396 14.0133 3.85396 13.852V12.0995C3.85396 11.9382 3.98474 11.8074 4.14605 11.8074H5.89858C6.05989 11.8074 6.19067 11.9382 6.19067 12.0995V13.852C6.19067 14.0133 6.05989 14.1441 5.89858 14.1441ZM5.6065 12.3916H4.43814V13.5599H5.6065V12.3916Z" fill="#84829A"/>
<path d="M5.89858 11.2229H4.14605C3.98474 11.2229 3.85396 11.0922 3.85396 10.9309V9.17832C3.85396 9.01701 3.98474 8.88623 4.14605 8.88623H5.89858C6.05989 8.88623 6.19067 9.01701 6.19067 9.17832V10.9309C6.19067 11.0922 6.05989 11.2229 5.89858 11.2229ZM5.6065 9.47041H4.43814V10.6388H5.6065V9.47041Z" fill="#84829A"/>
<path d="M5.89858 17.065H4.14605C3.98474 17.065 3.85396 16.9342 3.85396 16.7729V15.0204C3.85396 14.8591 3.98474 14.7283 4.14605 14.7283H5.89858C6.05989 14.7283 6.19067 14.8591 6.19067 15.0204V16.7729C6.19067 16.9342 6.05989 17.065 5.89858 17.065ZM5.6065 15.3124H4.43814V16.4808H5.6065V15.3124Z" fill="#84829A"/>
<path d="M8.81948 14.1441H7.06695C6.90564 14.1441 6.77486 14.0133 6.77486 13.852V12.0995C6.77486 11.9382 6.90564 11.8074 7.06695 11.8074H8.81948C8.98079 11.8074 9.11157 11.9382 9.11157 12.0995V13.852C9.11157 14.0133 8.98079 14.1441 8.81948 14.1441ZM8.52739 12.3916H7.35904V13.5599H8.52739V12.3916Z" fill="#84829A"/>
<path d="M8.81948 11.2229H7.06695C6.90564 11.2229 6.77486 11.0922 6.77486 10.9309V9.17832C6.77486 9.01701 6.90564 8.88623 7.06695 8.88623H8.81948C8.98079 8.88623 9.11157 9.01701 9.11157 9.17832V10.9309C9.11157 11.0922 8.98079 11.2229 8.81948 11.2229ZM8.52739 9.47041H7.35904V10.6388H8.52739V9.47041Z" fill="#84829A"/>
<path d="M8.81948 17.065H7.06695C6.90564 17.065 6.77486 16.9342 6.77486 16.7729V15.0204C6.77486 14.8591 6.90564 14.7283 7.06695 14.7283H8.81948C8.98079 14.7283 9.11157 14.8591 9.11157 15.0204V16.7729C9.11157 16.9342 8.98079 17.065 8.81948 17.065ZM8.52739 15.3124H7.35904V16.4808H8.52739V15.3124Z" fill="#84829A"/>
</svg>
