<svg width="23" height="21" viewBox="0 0 23 21" fill="none" xmlns="http://www.w3.org/2000/svg">
<path d="M21.0644 2.49173C19.9313 1.2738 18.3435 0.580822 16.68 0.578253C15.0152 0.580179 13.4258 1.27279 12.2909 2.49095L11.9042 2.89965L11.5174 2.49095C9.26556 0.0673466 5.4753 -0.071837 3.05174 2.18001C2.94435 2.27983 2.84063 2.38351 2.74081 2.49095C0.352023 5.06754 0.352023 9.04955 2.74081 11.6261L11.3358 20.6901C11.6331 21.004 12.1287 21.0175 12.4426 20.7201C12.4529 20.7104 12.4629 20.7004 12.4726 20.6901L21.0645 11.6261C23.4531 9.04983 23.4531 5.06805 21.0644 2.49173ZM19.9315 10.548H19.9308L11.9042 19.0138L3.87685 10.548C2.05195 8.57929 2.05195 5.53702 3.87685 3.56827C5.53407 1.77209 8.33366 1.65947 10.1298 3.31669C10.217 3.39716 10.3009 3.48106 10.3814 3.56827L11.3358 4.57513C11.6503 4.88762 12.1581 4.88762 12.4726 4.57513L13.427 3.56905C15.0842 1.77287 17.8838 1.66025 19.68 3.31747C19.7672 3.39794 19.8511 3.48184 19.9315 3.56905C21.7723 5.54092 21.7858 8.58874 19.9315 10.548Z" fill="#4152CA"/>
</svg>
