<svg width="17" height="16" viewBox="0 0 17 16" fill="none" xmlns="http://www.w3.org/2000/svg">
<path d="M15.5244 0.559814C15.4393 0.559782 15.3554 0.579549 15.2793 0.617575L11.1291 2.69321L6.43625 0.607178C6.42858 0.603905 6.41982 0.603328 6.41161 0.600055C6.39049 0.592161 6.3689 0.585582 6.34698 0.580352C6.32519 0.574479 6.30305 0.569891 6.28071 0.56665C6.23624 0.562991 6.19154 0.562991 6.14709 0.56665C6.12476 0.569891 6.10262 0.574479 6.08083 0.580352C6.05891 0.585582 6.03732 0.592161 6.0162 0.600055C6.00799 0.603328 5.99923 0.603873 5.99156 0.607178L1.06263 2.79782C0.864764 2.88569 0.737273 3.08188 0.737305 3.29836V15.3469C0.737401 15.5321 0.831134 15.7048 0.986479 15.8058C1.14186 15.9069 1.33783 15.9226 1.50729 15.8474L6.21387 13.7554L10.9205 15.8474C10.9287 15.8507 10.9374 15.8474 10.9456 15.8524C11.0782 15.9117 11.2304 15.9083 11.3602 15.8431C11.369 15.8392 11.3788 15.8431 11.3876 15.837L15.7688 13.6464C15.9545 13.5536 16.0718 13.3638 16.0717 13.1562V1.10774C16.0719 0.805266 15.8268 0.559943 15.5244 0.559814ZM5.66623 12.8002L1.83261 14.504V3.65435L5.66623 1.95057V12.8002ZM10.5952 14.504L6.76154 12.8002V1.95057L10.5952 3.65432V14.504ZM14.9764 12.8178L11.6905 14.4607V3.6368L14.9764 1.99383V12.8178Z" fill="#84829A"/>
</svg>
