<svg width="7" height="11" viewBox="0 0 7 11" fill="none" xmlns="http://www.w3.org/2000/svg">
<path d="M0.446202 10.002C0.242236 9.93952 0.0835963 9.83026 0.0212733 9.62734C-0.0240524 9.47126 0.0099419 9.32557 0.111925 9.1955C0.145919 9.15388 0.191245 9.11225 0.230905 9.07063C1.68133 7.74389 3.13175 6.41194 4.58218 5.08C4.61051 5.05398 4.63317 5.02797 4.68416 4.98114C4.6445 4.95513 4.60484 4.93952 4.57651 4.9135C3.12042 3.58156 1.66433 2.24441 0.213908 0.90726C-0.00705517 0.704347 -0.0580467 0.485825 0.0665992 0.272505C0.219574 -0.00324917 0.610509 -0.0864963 0.876797 0.100808C0.922123 0.132026 0.961783 0.168446 1.00144 0.204866C2.59351 1.66689 4.18558 3.1289 5.77765 4.59092C6.07793 4.86668 6.07793 5.14243 5.77765 5.41298C4.21391 6.84899 2.6445 8.28499 1.08076 9.721C0.956118 9.83546 0.831472 9.94992 0.655834 10.002C0.587846 10.002 0.514191 10.002 0.446202 10.002Z" fill="white"/>
</svg>
