<svg width="728" height="12" viewBox="0 0 728 12" fill="none" xmlns="http://www.w3.org/2000/svg">
<path d="M105.978 -2.53796L107.799 -2.69614L104.254 -2.92292L105.954 -3.08892C107.658 -3.0874 109.866 -2.83866 111.068 -2.97083C111.215 -3.09879 109.359 -3.13986 108.885 -3.24181C108.466 -3.34631 108.124 -3.45013 107.863 -3.55202C108.791 -3.55092 109.812 -3.52628 110.864 -3.47953C112.279 -3.40318 113.667 -3.36607 114.875 -3.37229C117.345 -3.35167 119.731 -3.37224 122.416 -3.36771L121.523 -3.67567L124.983 -3.60362C125.35 -3.58016 125.787 -3.61789 126.147 -3.58887C129.147 -3.34329 130.416 -3.47711 131.855 -3.58807C132.151 -3.61678 132.506 -3.63822 132.913 -3.65182C136.914 -3.593 140.521 -3.24878 144.124 -3.07207C144.803 -3.02695 145.453 -2.96904 146.03 -2.90243C147.283 -2.77295 148.677 -2.66724 150.084 -2.59497C151.491 -2.52269 152.867 -2.48616 154.085 -2.48871C156.779 -2.49157 159.822 -2.40593 162.921 -2.24008C163.843 -2.18545 164.764 -2.14941 165.628 -2.13426C166.492 -2.11911 167.279 -2.12517 167.938 -2.15207L170.033 -1.97627C170.941 -2.04761 172.093 -2.08675 173.418 -2.09131C174.743 -2.09588 176.214 -2.06578 177.741 -2.00283C179.369 -1.93455 181.022 -1.88853 182.711 -1.81634C186.2 -1.67832 189.595 -1.59392 192.791 -1.56575C197.551 -1.48225 202.202 -1.4177 207.004 -1.31361C210.008 -1.26336 212.935 -1.23573 215.767 -1.23085C219.16 -1.21119 222.83 -1.11605 226.6 -0.950019C226.421 -0.794239 224.768 -0.840262 223.659 -0.845533C220.079 -0.871425 216.416 -0.938518 212.734 -0.988922C211.075 -1.00859 209.461 -1.01605 207.903 -1.01122C205.298 -1.01768 202.552 -1.05919 199.712 -1.13504C195.225 -1.2185 190.881 -1.25861 186.726 -1.25498C186.4 -1.24881 186.101 -1.23788 185.835 -1.22236C185.78 -1.20893 185.769 -1.19198 185.803 -1.17315C185.838 -1.15433 185.917 -1.13424 186.033 -1.11484C186.149 -1.09543 186.298 -1.07735 186.466 -1.06231C186.634 -1.04728 186.815 -1.0358 186.991 -1.02897C188.642 -0.923401 190.415 -0.810013 191.971 -0.794062C192.031 -0.79287 192.095 -0.790148 192.159 -0.78609C192.222 -0.782033 192.283 -0.776742 192.338 -0.770603C195.822 -0.54773 198.687 -0.585446 201.402 -0.549185C205.908 -0.451184 210.253 -0.405409 214.369 -0.412548C214.991 -0.412063 215.663 -0.399323 216.36 -0.37479C220.671 -0.275341 224.702 -0.264217 228.264 -0.341924C229.731 -0.36161 231.094 -0.405805 232.669 -0.406545C233.64 -0.409587 234.485 -0.437788 235.153 -0.489464C235.821 -0.541139 236.299 -0.615218 236.558 -0.707247C237.223 -0.658794 237.898 -0.615614 238.575 -0.578221C238.98 -0.55684 239.368 -0.55116 239.661 -0.562349C239.954 -0.573537 240.13 -0.600756 240.154 -0.638502C240.275 -0.744209 239.352 -0.797294 238.551 -0.842562C239.034 -0.865233 239.578 -0.878569 240.171 -0.88225C243.509 -0.906405 247.09 -0.877896 250.835 -0.797352C253.743 -0.700944 256.064 -0.779414 259.123 -0.643457C259.49 -0.619997 259.792 -0.65443 260.13 -0.662697C261.01 -0.706237 262.107 -0.716023 263.324 -0.691201C264.542 -0.666377 265.845 -0.607696 267.119 -0.520245C268.705 -0.759166 272.132 -0.486219 274.663 -0.46169C275.443 -0.340185 274.548 -0.361547 274.51 -0.328166C274.472 -0.294784 274.51 -0.328171 274.204 -0.347722C271.677 -0.175652 268.215 -0.138132 264.304 -0.240434C263.581 -0.24001 262.891 -0.23217 262.243 -0.216993C261.261 -0.195511 260.153 -0.197657 258.969 -0.223335C257.675 -0.242193 256.487 -0.233236 255.461 -0.196896C254.871 -0.197489 254.372 -0.179283 254.01 -0.143957C253.648 -0.108632 253.436 -0.057329 253.392 0.00518063C253.786 0.0533696 254.223 0.0974625 254.686 0.135712C257.102 0.286729 259.512 0.349239 261.44 0.310943C264.797 0.244958 268.791 0.309349 272.361 0.286823C274.773 0.277697 277.341 0.303691 280.015 0.364318C280.015 0.364318 279.945 0.425517 279.938 0.431081C280.254 0.457578 280.587 0.478838 280.916 0.493643C280.916 0.493643 280.916 0.493643 280.948 0.465825C280.802 0.439113 280.603 0.413981 280.375 0.393342L279.58 0.34251C280.121 0.329282 280.625 0.289897 281.188 0.31396C282.374 0.358668 283.508 0.377541 284.521 0.369461C285.534 0.361381 286.405 0.326508 287.082 0.266937C288.282 0.19059 289.775 0.155871 291.464 0.165021C292.759 0.156685 294.006 0.138771 295.2 0.111368C295.2 0.111368 295.277 0.04461 295.843 0.00912796C295.307 -0.034635 294.748 -0.0703702 294.192 -0.0964396C291.774 -0.161567 289.348 -0.221133 286.972 -0.265662C286.096 -0.27047 285.273 -0.26301 284.518 -0.243424C282.427 -0.220505 280.078 -0.253034 277.607 -0.339115C277.607 -0.339115 277.118 -0.370393 276.873 -0.386034C277.567 -0.532787 279.957 -0.38587 280.924 -0.485256C281.513 -0.483448 282.548 -0.470948 282.513 -0.497112C282.432 -0.532027 282.422 -0.564462 282.484 -0.592093C282.547 -0.619722 282.679 -0.641861 282.872 -0.656922C283.065 -0.671983 283.313 -0.679596 283.6 -0.67921C283.887 -0.678823 284.205 -0.670443 284.531 -0.654684C287.252 -0.569419 289.815 -0.545708 292.063 -0.585003C292.915 -0.584242 293.87 -0.558973 294.716 -0.552651C295.234 -0.545035 295.706 -0.549271 296.108 -0.565122C298.152 -0.681863 300.902 -0.69039 303.945 -0.589419C305.415 -0.553116 306.79 -0.548262 307.997 -0.575104C308.855 -0.579907 309.219 -0.496907 309.831 -0.457806L312.426 -0.375382L309.093 -0.272103C309.805 -0.0354188 310.372 0.0426239 311.536 0.0573702C313.234 0.0796376 314.888 0.0896961 316.489 0.087486C317.672 0.0855411 318.649 0.0345697 320.251 0.125104C320.534 0.13987 320.807 0.14465 321.023 0.13864C322.899 0.0582665 325.159 0.0398193 327.647 0.0845616C328.935 -0.0659466 331.13 0.0803872 333.16 0.198291C333.815 0.0849187 332.628 0.0328765 331.92 -0.036298C333.618 -0.0292168 335.328 -0.0332607 337.081 -0.0167064C337.608 -0.0227341 338.211 -0.0124243 338.842 0.0134084C339.472 0.039243 340.114 0.0798929 340.716 0.132181C341.01 0.165969 341.364 0.191396 341.704 0.203187C342.045 0.214976 342.347 0.212226 342.546 0.195504C343.456 0.146192 344.913 0.191611 345.665 0.108314C345.932 0.0891564 346.314 0.0864816 346.743 0.100758C347.171 0.115033 347.618 0.145335 348.004 0.186231C347.582 0.198991 347.206 0.219086 346.885 0.246068C345.734 0.333723 346.157 0.480186 347.619 0.693119C349.863 0.681409 352.156 0.684735 354.236 0.644603C355.396 0.608577 356.817 0.619838 358.339 0.677124C359.861 0.734407 361.425 0.83544 362.854 0.968863C363.371 1.02017 363.96 1.0557 364.505 1.06841C365.05 1.08112 365.51 1.07007 365.794 1.03745C365.97 0.999726 366.025 0.951984 365.953 0.898361L364.486 0.804524C364.486 0.804524 364.544 0.754451 364.556 0.743324L366.666 0.73491C367.782 0.73462 368.946 0.749368 370.001 0.745168C371.55 0.717222 373.319 0.732798 375.198 0.790928C376.931 0.850534 378.634 0.895586 380.292 0.925693C381.897 0.956683 383.061 0.857894 384.588 0.842116C385.743 0.830224 387.013 0.842934 388.351 0.879746C390.661 0.945033 392.781 0.945156 394.518 0.880097C396.544 1.23062 397.529 1.28761 399.409 1.1929L400.293 1.16584L400.535 1.24102L401.21 1.22449C402.474 1.20976 403.737 1.19504 405.056 1.18979C406.889 1.22232 408.869 1.30984 410.801 1.4438C411.168 1.46726 411.667 1.54697 411.989 1.60937C412.311 1.67178 413.014 1.86004 413.529 1.98259C412.967 2.07206 412.344 2.15761 411.898 2.26046C411.853 2.27803 411.858 2.29898 411.911 2.32163C411.964 2.34427 412.065 2.36799 412.204 2.39087C412.344 2.41374 412.519 2.43513 412.715 2.45333C412.912 2.47153 413.124 2.48602 413.334 2.49565C413.745 2.51639 414.151 2.53021 414.534 2.53656C416.423 2.5475 418.232 2.53936 419.943 2.51224C420.568 2.47398 421.423 2.47034 422.373 2.50192C423.324 2.5335 424.315 2.59848 425.189 2.68655C427.428 2.63368 430.029 2.6493 432.814 2.73233C435.759 2.68183 439.317 2.78396 442.068 2.67331C442.005 2.72894 442.288 2.82473 442.684 2.87992C443.311 2.96375 444.02 3.04144 444.783 3.1097L450.601 3.24297C450.819 3.3115 451.091 3.38087 451.413 3.45018C451.635 3.50493 452.02 3.55851 452.487 3.59955C452.954 3.64059 453.467 3.66588 453.917 3.67004C455.075 3.69035 456.046 3.64495 457.426 3.75713C455.3 3.86318 452.433 3.84909 449.335 3.71737C446.425 3.6172 443.625 3.56714 441.041 3.56904C440.188 3.56828 439.066 3.57413 438.8 3.63473C438.209 3.80599 436.666 3.77892 434.865 3.74733C433.45 3.71275 432.157 3.71663 431.094 3.75865C430.03 3.80068 429.226 3.87965 428.747 3.98907C428.626 4.09477 428.916 4.185 430.158 4.24651L435.321 4.49316C436.082 4.46145 436.804 4.42391 437.484 4.3807C438.63 4.32331 440.045 4.30756 441.619 4.33467C443.192 4.36178 444.882 4.43102 446.557 4.53701C447.413 4.59175 448.269 4.64649 448.889 4.62048C449.434 4.5906 449.935 4.55483 450.39 4.51342C450.482 4.48568 450.519 4.45374 450.499 4.41884C450.828 4.43507 451.158 4.45617 451.477 4.48141C454.026 4.77585 456.001 4.77075 457.794 4.69438C458.28 4.67168 458.649 4.63559 459.141 4.60733C459.633 4.57906 459.806 4.54237 460.253 4.55305C463.817 4.64962 464.843 4.32709 467.847 4.34004C467.993 4.32744 468.084 4.30861 468.111 4.28527C468.138 4.26194 468.1 4.23486 468 4.20652C467.788 4.18093 467.543 4.15893 467.286 4.14253C467.03 4.12613 466.771 4.11586 466.533 4.11268C465.151 4.07129 463.93 4.08398 463.08 4.14858C462.477 4.17498 461.84 4.19602 461.17 4.21157L458.162 3.7445C461.076 3.78732 463.832 3.78703 466.366 3.74366C466.919 3.71931 467.855 3.76127 468.633 3.76925L474.358 3.8129C475.535 3.81652 476.537 3.7433 478.179 3.91398C478.179 3.91398 479.263 3.94151 479.552 3.9182C479.841 3.8949 481.123 3.74995 481.887 3.65553C482.775 3.68245 484.004 3.75509 484.557 3.73074C485.523 3.67091 486.359 3.59423 487.051 3.50205L490.509 3.63364C490.505 3.75054 490.378 3.86051 490.132 3.96189C489.862 4.05966 489.872 4.17702 490.159 4.30437C490.446 4.43173 491.003 4.56546 491.785 4.69465L495.199 5.37885C495.756 5.42467 496.35 5.45551 496.9 5.46719C497.45 5.47887 497.93 5.47082 498.274 5.44413C499.743 5.3649 501.389 5.30296 502.858 5.22373C504.753 5.34494 504.266 5.54072 505.643 5.71245L510.106 5.99788C510.787 6.26238 511.48 6.51575 509.41 6.6043C508.998 6.61979 509.276 6.72114 508.9 6.76279C510.509 6.96129 512.279 7.02071 513.91 7.14297C514.553 7.23089 515.091 7.32397 515.498 7.41769C515.944 7.55882 516.849 7.70297 518.017 7.81904C519.186 7.9351 520.523 8.01375 521.741 8.03801C523.785 8.11231 525.877 8.22392 527.925 8.36782C528.624 8.41785 529.343 8.45431 530.033 8.47473C530.722 8.49515 531.367 8.49905 531.923 8.48619C533.904 8.46353 535.581 8.38561 536.844 8.25751C538.094 8.14881 539.778 8.09641 541.744 8.10508C545.106 8.32013 545.784 8.64419 547.819 8.9296L544.304 8.9616C544.177 9.07287 544.409 9.21317 542.969 9.2106C541.528 9.20803 542.259 9.31449 542.726 9.42201C542.891 9.47609 543.212 9.53173 543.635 9.5795C544.059 9.62726 544.559 9.66422 545.05 9.68412L548.042 9.82174C549.103 9.87411 550.129 9.89647 551.009 9.88637C551.889 9.87627 552.588 9.8341 553.029 9.76448C553.535 9.69838 554.234 9.65366 555.083 9.63308C556.164 9.57916 557.053 9.49896 557.718 9.39552L561.941 9.54622C562.121 9.44228 562.701 9.36939 563.584 9.33989C564.467 9.31039 565.598 9.32608 566.786 9.38432L569.633 9.47682C572.798 9.57774 573.492 9.54451 574.419 9.25146L570.623 8.72799C571.175 8.59011 571.708 8.46891 572.241 8.34772C571.295 8.17526 570.033 8.01215 568.584 7.87494C567.231 7.72751 565.84 7.58472 564.416 7.44711C562.871 7.30651 561.24 7.18424 559.322 7.02574C558.987 6.97446 558.5 6.88363 557.879 6.79611C557.257 6.71107 556.608 6.6277 555.935 6.54634C556.062 6.43507 556.177 6.33492 555.932 6.20576C557.113 6.24697 558.333 6.31906 559.483 6.41551C560.632 6.51196 561.675 6.62976 562.516 6.75826C562.657 6.78105 562.831 6.80246 563.024 6.82103C563.218 6.83961 563.428 6.85493 563.639 6.86593C565.714 6.94489 566.706 7.10985 567.72 7.3121C568.403 7.41549 569.284 7.50731 570.24 7.57481C572.074 7.69211 573.87 7.8428 575.624 7.97288C576.16 8.01623 576.718 8.05191 577.274 8.07845C579.107 8.16284 580.952 8.28084 582.715 8.42645C583.29 8.46346 583.842 8.51243 584.325 8.56928C584.808 8.62613 585.207 8.68919 585.49 8.75321C585.053 8.82336 584.818 8.9119 584.797 9.0135C584.721 9.08026 586.008 9.21636 586.617 9.31501C587.225 9.41365 586.032 9.36717 585.627 9.3771C583.964 9.39618 583.656 9.43617 584.651 9.65511C584.984 9.72396 585.205 9.79284 585.3 9.85749C585.395 9.92213 585.363 9.98115 585.205 10.0309C584.968 10.2367 584.25 10.4058 583.756 10.6071C584.522 10.7397 585.803 10.8814 585.943 11.0456C586.01 11.082 586.152 11.1206 586.358 11.1586C586.564 11.1965 586.829 11.2329 587.135 11.2651C587.939 11.3346 588.671 11.4177 589.273 11.508C589.875 11.5983 590.331 11.6933 590.606 11.7857C590.696 11.824 590.913 11.8645 591.214 11.8993C591.514 11.934 591.877 11.9604 592.228 11.9731C592.648 11.9887 593.023 11.9867 593.278 11.9674C593.532 11.948 593.645 11.913 593.594 11.8694C593.604 11.7874 593.549 11.702 593.428 11.6139C593.498 11.5527 593.568 11.4915 593.291 11.3901C594.544 11.4271 595.859 11.5012 597.094 11.6045C598.329 11.7077 599.437 11.836 600.296 11.9756C601.246 12.1199 602.122 12.2715 603.175 12.4404C602.958 12.6295 602.958 12.6295 605.199 12.964L617.086 13.1271L619.522 13.3486C621.794 13.5417 622.334 13.5284 623.761 13.4286L624.721 13.3348C626.739 13.4638 629.062 13.6124 630.324 13.3706C630.733 13.5282 631.001 13.5811 630.908 13.6051C630.305 13.8376 629.259 14.0349 627.809 14.1892C627.44 14.2253 627.18 14.2803 626.749 14.3125C625.361 14.4941 625.039 14.7747 625.849 15.097C626.251 15.2396 626.835 15.3856 627.583 15.5303C626.489 15.7312 625.04 15.8976 623.274 16.0252C621.776 16.1238 620.543 16.2559 619.609 16.4177C618.77 16.5809 617.514 16.7035 615.914 16.7786C615.101 16.8105 614.509 16.8735 614.195 16.9613C614.101 17.1989 614.316 17.4533 614.835 17.7188C614.932 17.7996 615.21 17.8869 615.645 17.9738C616.08 18.0607 616.662 18.1449 617.344 18.2197C617.344 18.2197 617.672 18.2766 617.83 18.3105C617.962 18.5983 617.469 18.8519 616.386 19.0543C616.209 19.1117 615.845 19.1532 615.336 19.1742C614.826 19.1953 614.189 19.1951 613.493 19.1738C612.023 19.1395 610.65 19.1353 609.228 19.116C607.697 19.0888 606.347 19.1102 605.322 19.1782C604.298 19.2461 603.635 19.3579 603.405 19.502C603.39 19.5427 603.345 19.5818 603.271 19.6188C603.227 19.6379 603.204 19.6583 603.2 19.68L606.465 20.1516L602.772 20.3393C602.555 20.5285 604.328 20.6419 605.216 20.7823L604.667 20.8607C603.96 20.905 603.007 20.8202 602.145 20.771L601.289 20.7163L601.187 20.8053C600.654 20.9265 598.711 20.7903 597.953 20.8791C597.195 20.968 597.736 21.0683 598.872 21.1648C599.661 21.2366 600.509 21.2938 601.352 21.3322C602.194 21.3706 603.009 21.3891 603.736 21.3864C604.169 21.3769 604.529 21.3552 604.793 21.3226C606.326 21.184 608.02 21.0648 609.861 20.966C611.273 20.8772 613.041 20.8395 615.041 20.8554C615.628 20.8487 616.336 20.8697 617.04 20.9147C617.744 20.9598 618.4 21.026 618.892 21.1017L619.928 21.1142C619.928 21.1142 620.494 21.1922 620.414 21.205C620.02 21.4362 620.478 21.7189 621.72 22.0111L620.64 22.0376C619.096 22.0105 620.075 22.1866 619.844 22.2734C618.748 22.257 617.322 22.1837 616.802 22.2938L616.024 22.2858L616.33 22.3054L616.699 22.2693L618.151 22.4338C617.463 22.4615 616.965 22.4953 616.357 22.5102C616.022 22.5231 615.754 22.546 615.572 22.5774C615.389 22.6088 615.295 22.6481 615.294 22.693C615.296 22.762 615.115 22.8201 614.769 22.8617C614.422 22.9033 613.922 22.9271 613.315 22.9307C612.592 22.9322 612.178 23.0072 611.753 23.0339L613.597 23.4862C613.597 23.4862 612.68 23.4275 613.179 23.5072L613.243 23.4516L614.36 23.5648C615.164 23.6641 615.727 23.6881 616.202 23.617C616.678 23.5459 616.569 23.6405 616.797 23.6133C616.714 23.6856 616.197 23.7361 615.754 23.7794C615.241 23.8134 614.662 23.8385 614.028 23.8541C615.172 24.1722 615.226 24.1816 613.555 24.2658C611.884 24.35 612.46 24.4765 611.062 24.4945C609.663 24.5126 611.253 24.7277 612.189 24.7697C612.883 24.7973 613.591 24.8403 614.264 24.8957C614.936 24.9511 615.558 25.0176 616.086 25.0906L615.805 25.3354C615.394 25.3152 614.981 25.2888 614.583 25.2572C613.228 25.1228 611.995 24.9962 610.79 25.0743L611.364 25.2603L607.157 25.1525C607.266 25.2919 607.907 25.4507 608.945 25.5953C608.789 25.6748 608.693 25.7585 608.658 25.8457C608.588 25.9069 608.172 25.8684 607.902 25.875C606.939 25.8853 606.148 25.9267 605.6 25.9958C605.051 26.0648 604.762 26.1594 604.757 26.2711C604.649 26.3656 606.13 26.5619 607.056 26.5554C609.368 26.5743 611.869 26.6471 614.422 26.7698C615.978 26.7857 616.198 26.537 618.759 26.7068C618.81 26.8216 618.482 26.9146 617.825 26.9717C617.167 27.0288 616.216 27.0468 615.115 27.0231C615.741 27.2782 619.208 27.3447 619.362 27.6113C618.498 27.5924 617.575 27.5481 616.684 27.4827C615.792 27.4173 614.963 27.3331 614.278 27.2383C614.13 27.215 613.944 27.1934 613.738 27.1757C613.532 27.158 613.312 27.1447 613.098 27.137C612.885 27.1293 612.684 27.1274 612.516 27.1316C612.348 27.1358 612.217 27.1459 612.135 27.161C612.615 27.2574 613.144 27.3688 613.746 27.473C614.348 27.5772 614.493 27.6223 614.927 27.6442C618.167 27.8514 619.708 28.2246 622.511 28.4696C623.244 28.5165 623.336 28.6657 622.699 28.6488C622.093 28.632 621.544 28.6342 621.115 28.6552C620.685 28.6762 620.391 28.7152 620.265 28.7679C619.795 28.8293 619.21 28.8782 618.524 28.9133C621.398 29.2963 624.826 29.6347 628.485 29.8968C629.177 29.9486 629.9 29.9801 630.547 29.9869C632.589 29.9872 634.756 30.0176 637.005 30.0774C637.802 30.0937 638.539 30.0922 639.175 30.0729C641.262 30.0272 642.919 30.1273 644.433 30.4092L646.938 30.8561C646.855 30.9284 646.435 31.009 646.111 31.1197L648.068 31.3584L663.004 30.8087L666.002 31.3409L670.301 31.3113C670.631 31.3267 670.962 31.3479 671.279 31.3739C672.149 31.531 672.829 31.682 673.772 31.8319C674.715 31.9818 676.401 32 677.576 32.1767C678.751 32.3534 679.928 32.357 681.382 32.462C681.519 32.5988 681.378 32.7219 680.967 32.8236C680.833 32.9405 680.094 33.0127 679.967 33.1239C679.981 33.2364 679.706 33.3319 679.168 33.4017C678.629 33.4715 677.844 33.5135 676.883 33.5239C674.192 33.7633 670.947 33.9338 667.246 34.0302C666.921 34.0372 666.652 34.0534 666.454 34.0778C666.257 34.1021 666.136 34.1342 666.1 34.1719C666.105 34.281 665.858 34.3753 665.377 34.4479C664.897 34.5205 664.194 34.5695 663.321 34.5914C663.089 34.5958 662.914 34.6095 662.817 34.6308C662.486 34.6445 662.245 34.6708 662.117 34.7071C661.989 34.7435 661.979 34.7886 662.087 34.8381C662.195 34.8877 662.418 34.94 662.734 34.99C663.05 35.04 663.449 35.086 663.892 35.1235C664.534 35.1841 665.191 35.242 665.858 35.2971C665.82 35.3305 665.158 35.3359 665.254 35.3659C665.516 35.4619 665.576 35.5519 665.431 35.6286C665.286 35.7054 664.94 35.7668 664.419 35.8082L667.988 36.5859C670.155 36.6936 672.28 36.8763 673.961 37.0993C673.963 37.1358 673.866 37.1664 673.68 37.1881C673.494 37.2097 673.225 37.2216 672.901 37.2226C672.029 37.2385 671.206 37.2695 670.268 37.2871C669.694 37.3002 669.216 37.3291 668.863 37.3721C668.509 37.4151 668.287 37.4714 668.208 37.5376L670.304 37.8269C669.633 37.8974 669.135 37.9312 668.691 37.9745C668.942 38.0655 669.375 38.1595 669.954 38.2494C670.534 38.3393 671.245 38.4226 672.034 38.4929C672.245 38.5074 672.46 38.518 672.668 38.524C672.875 38.5301 673.069 38.5315 673.24 38.5282C674.863 38.429 676.761 38.6042 678.606 38.7699C680.449 38.9356 681.451 39.0355 682.812 39.1644L685.417 39.1817C686.076 39.2427 686.664 39.3144 687.135 39.3912C687.605 39.4679 687.944 39.5475 688.125 39.6236C687.984 39.746 686.749 39.679 686.013 39.6916C684.266 39.7678 681.969 39.7515 679.504 39.6455C678.892 39.6064 678.266 39.638 677.671 39.6417C676.387 39.657 675.154 39.6818 673.976 39.716C673.201 39.7479 672.476 39.7873 671.807 39.834C671.628 39.9898 674.443 40.1101 672.845 40.1871C673.396 40.2223 673.602 40.2713 673.884 40.2536C675.697 40.3547 677.482 40.4047 679.034 40.3978C682.012 40.3763 685.394 40.4473 688.902 40.6049C692.688 40.7683 696.321 40.8368 699.499 40.805C700.71 40.8032 702.063 40.8366 703.455 40.9028C705.1 40.9945 706.733 41.0521 708.248 41.072C708.75 41.0727 709.309 41.0883 709.88 41.1175C710.451 41.1468 711.017 41.1888 711.533 41.2403C711.488 41.2792 710.997 41.3075 711.106 41.3264C712.674 41.6179 713.31 41.9213 715.725 42.2191C717.375 42.3246 719.27 42.4458 720.35 42.3059C721.429 42.1659 721.042 42.0456 718.894 41.6872C719.36 41.6821 719.922 41.6988 720.48 41.7345C721.039 41.7703 721.56 41.8227 721.951 41.8827L723.809 42.1509L725.483 42.4072C725.336 42.5352 725.221 42.6353 725.1 42.741C724.908 42.8533 725.118 42.99 725.701 43.1319C726.053 43.2093 726.359 43.2868 726.616 43.3636C727.663 43.6707 727.966 43.961 727.492 44.2019C726.583 44.5483 725.317 44.8669 723.708 45.1543C722.01 45.4338 721.08 45.7864 719.68 46.0911C718.967 46.2298 718.1 46.3541 717.089 46.4627C715.171 46.7044 713.07 46.9343 711.146 47.1815C709.221 47.4286 707.049 47.6062 704.912 47.8099C701.73 48.0517 698.292 48.2605 694.614 48.4352C692.339 48.5883 690.002 48.7374 687.897 48.9134C685.411 49.1116 682.491 49.2541 679.209 49.337C676.31 49.4363 673.72 49.5832 671.488 49.7748C671.254 49.7955 671.069 49.8219 670.939 49.8532C670.537 50.0486 669.411 50.1863 667.733 50.2453C667.835 50.3025 667.965 50.3607 668.124 50.4196C668.356 50.4898 668.405 50.5554 668.263 50.6081C668.12 50.6607 667.794 50.6979 667.325 50.7149C665.983 50.7633 664.867 50.8455 664.028 50.9579C663.72 50.986 663.529 51.0271 663.471 51.0775C663.413 51.1279 663.49 51.1861 663.696 51.2472C663.878 51.31 663.892 51.3678 663.734 51.4131C663.577 51.4584 663.256 51.4892 662.814 51.5013C661.678 51.5608 660.461 51.6086 659.172 51.6446C656.428 51.7238 653.237 51.7228 649.791 51.6418C649.425 51.6183 649.055 51.6544 648.627 51.627C646.19 51.5362 643.927 51.5221 642.112 51.5865C639.983 51.6116 637.758 51.6066 635.513 51.6184C632.271 51.6105 629.279 51.6583 626.623 51.7604C623.586 51.6617 621.88 51.8333 619.317 51.8366C616.951 51.8542 614.708 51.8964 612.61 51.963C609.228 52.0512 605.859 52.1283 602.525 52.2316C599.397 52.2808 596.518 52.3749 593.935 52.5123C592.945 52.5743 591.153 52.4777 590.479 52.6077C589.805 52.7378 588.444 52.7224 587.345 52.7656L583.876 52.8722C583.279 52.8975 582.623 52.9136 581.918 52.9201C578.693 52.9288 576.459 53.1025 573.466 53.1379L573.16 53.1184C567.845 53.3765 561.762 53.5182 555.091 53.5393C551.194 53.6185 546.933 53.6147 542.798 53.6727C541.812 53.7888 539.483 53.6457 538.246 53.7517C537.008 53.8577 534.988 53.7883 533.393 53.8057C531.799 53.8231 530.24 53.8667 528.535 53.8652C527.055 53.8657 525.805 53.913 524.899 54.0029C522.832 54.1515 520.311 54.2388 517.451 54.261C513.666 54.2996 510.088 54.3873 506.238 54.368C506.293 54.4763 506.057 54.5684 505.554 54.6349C505.051 54.7014 504.299 54.7398 503.376 54.7463C499.26 54.7876 495.528 54.8952 491.357 54.9271L490.242 54.9274L477.768 54.9895C474.408 55.0015 471.17 55.0214 467.742 55.035C466.458 54.9529 466.427 55.0943 465.539 55.0673C465.291 54.9977 464.998 54.967 464.561 55.0048L464.465 55.0882L450.23 55.1989C444.657 55.2799 438.794 55.3042 432.692 55.2716C431.245 55.2797 429.894 55.3074 428.66 55.3541C427.517 55.3711 426.326 55.3787 425.091 55.3766C423.422 55.3556 421.792 55.345 420.206 55.3448C416.036 55.3767 411.659 55.3595 407.093 55.3362C402.526 55.3128 399.066 55.3543 395.001 55.3511C392.249 55.3482 389.509 55.3342 386.659 55.3013C385.299 55.2859 383.623 55.2026 382.214 55.1722C380.805 55.1418 380.346 55.1423 380.16 55.1901C379.546 55.3241 378.005 55.2374 376.774 55.2244C374.371 55.2021 374.03 55.1564 373.378 54.8101L376.325 54.7C377.048 54.6645 377.956 54.6583 378.964 54.6819C379.971 54.7055 381.043 54.7582 382.076 54.835C382.483 54.8678 382.908 54.8938 383.327 54.9114C383.746 54.929 384.151 54.9378 384.518 54.9374C387.492 54.9186 390.425 54.8792 393.283 54.8471L393.701 54.826L393.727 54.5172C393.349 54.4868 392.957 54.4618 392.566 54.4429L378.229 54.2425C374.938 54.1933 371.522 54.0823 368.293 54.037C365.064 53.9917 363.324 53.964 360.819 53.9172C359.762 53.8906 358.684 53.8555 357.593 53.8124C357.656 53.7827 357.692 53.751 357.701 53.7178C357.759 53.6678 357.835 53.601 357.372 53.5474C356.866 53.4719 356.19 53.4073 355.479 53.3667C354.812 53.3399 354.164 53.3247 353.563 53.3217C350.655 53.2958 347.333 53.1327 344.307 52.8671L343.251 53.0444C338.706 52.9448 334.094 52.8468 329.346 52.7522C328.396 52.7264 327.398 52.6769 326.429 52.6074C325.389 52.5409 324.433 52.4021 323.339 52.3262C322.258 52.2715 321.185 52.2289 320.138 52.1991C320.422 52.1535 320.795 52.117 321.247 52.0909C321.692 52.0817 322.016 52.0532 322.172 52.0095C322.328 51.9658 322.309 51.9092 322.116 51.8479C321.778 51.7426 321.629 51.6435 322.365 51.6309C323.046 51.6069 323.532 51.5549 323.768 51.4811C324.004 51.4073 323.979 51.3148 323.696 51.2144C323.572 51.1557 323.485 51.0982 323.435 51.0424L323.129 51.0228C322.121 50.815 320.107 50.7399 318.662 50.5699C317.98 50.5206 317.273 50.4922 316.654 50.4892C315.056 50.4527 313.499 50.4367 311.846 50.3907C311.056 50.3695 310.231 50.3309 309.417 50.2772C308.256 50.2029 308.133 50.1951 307.459 49.925C308.506 49.9297 309.337 49.8894 309.809 49.8108C310.282 49.7322 310.369 49.6202 310.054 49.4938C309.19 49.2175 308.277 48.9263 304.368 48.73C305.643 48.7203 306.87 48.7011 308.043 48.6724C308.385 48.6663 308.641 48.646 308.776 48.6143C308.912 48.5826 308.921 48.541 308.802 48.4951C308.684 48.4492 308.443 48.4011 308.113 48.3574C307.782 48.3137 307.378 48.2763 306.953 48.2504C304.89 48.0941 302.738 47.9895 300.738 47.9484C299.052 47.9302 297.531 47.9404 295.563 47.9399L293.24 47.7913C293.279 47.7579 292.938 47.7122 293.024 47.6939C293.614 47.5226 294.266 47.3553 294.936 47.1712C293.865 47.0718 292.938 46.9519 292.259 46.825C291.581 46.6982 291.179 46.5696 291.1 46.4541C291.043 46.4192 291.058 46.3874 291.145 46.361C291.232 46.3346 291.388 46.3142 291.604 46.3012C292.215 46.2788 292.688 46.2361 292.984 46.1764C293.28 46.1166 293.392 46.0414 293.312 45.9565L291.505 45.6439C286.066 45.4208 280.725 45.2615 275.58 45.1688L270.936 45.0987C270.376 45.015 270.549 44.9784 271.077 44.9763C271.604 44.9742 273.087 44.9973 274.122 45.0098C275.016 45.0262 275.811 45.0154 276.428 44.9785C277.045 44.9416 277.464 44.8798 277.645 44.7992L276.085 44.4426C276.162 44.3759 276.27 44.2813 277.116 44.2876C277.694 44.2799 278.12 44.2463 278.325 44.1922C278.53 44.1381 278.502 44.0668 278.246 43.9896C278.207 43.9338 278.265 43.8829 278.418 43.8394C279.669 43.8358 280.914 43.8377 282.049 43.8208C282.577 43.8151 283.023 43.7945 283.357 43.7602C283.691 43.7259 283.904 43.6787 283.983 43.622C284.024 43.5666 283.924 43.5035 283.691 43.4378C283.459 43.3721 283.101 43.3057 282.645 43.2438C280.866 43.1673 279.239 43.1663 278.12 43.2411C277.722 43.2997 277.081 43.3317 276.283 43.3329C275.485 43.3341 274.567 43.3044 273.651 43.2478C272.601 43.1825 271.553 43.1538 270.696 43.1669C269.839 43.1799 269.229 43.2339 268.976 43.319C267.898 43.286 266.943 43.2607 266 43.2243C264.889 43.1784 263.838 43.1648 262.961 43.1852C261.559 43.1995 260.048 43.1911 258.462 43.1602C253.892 43.0828 249.315 43.0111 244.89 42.9789C243.72 42.9697 242.707 42.9945 241.549 42.9742C240.391 42.9539 239.475 43.0087 238.027 42.8982C237.751 42.881 237.474 42.87 237.216 42.866C236.959 42.862 236.729 42.8651 236.544 42.875C234.002 42.9624 231.02 42.9748 227.775 42.9114C223.331 42.8958 218.723 42.8519 214.272 42.8419C212.967 42.8505 211.733 42.8735 210.584 42.9106C209.71 42.9331 208.794 42.9483 207.842 42.9562C207.112 42.9632 206.413 42.9425 206.537 43.0638C206.66 43.1852 205.566 43.1092 204.936 43.0868C202.769 43.028 200.556 42.9483 198.319 42.8487C196.115 42.7405 193.955 42.6775 191.969 42.6636C190.535 42.6554 189.056 42.6863 187.212 42.5205C187.282 42.4593 187.353 42.3981 187.754 42.3342C186.25 42.1584 184.534 42.0071 182.749 41.8929C180.963 41.7787 179.158 41.7048 177.484 41.6773L175.175 41.3446C174.607 41.3055 174.027 41.277 173.47 41.2609C172.913 41.2448 172.391 41.2414 171.936 41.2508C171.585 41.2557 171.156 41.2433 170.73 41.216C170.303 41.1887 169.906 41.1483 169.613 41.1023C169.175 41.0437 168.64 40.9931 168.074 40.957C167.509 40.9208 166.938 40.9006 166.434 40.8989C164.848 40.8627 163.155 40.7792 161.528 40.6568C161.106 40.5851 160.842 40.5109 160.767 40.4436C160.693 40.3762 160.813 40.3186 161.111 40.2777C161.591 40.2056 161.861 40.1137 161.904 40.0077C161.946 39.9016 161.761 39.7835 161.359 39.6606C161.154 39.5852 161.085 39.5137 161.157 39.4506C161.23 39.3875 161.442 39.334 161.781 39.2934C163.046 39.1056 162.708 39.0004 160.637 38.6888C160.301 38.6369 159.896 38.5883 159.447 38.5462C158.998 38.5042 158.516 38.4695 158.031 38.4444C156.892 38.3937 155.769 38.3559 154.682 38.3318C154.071 38.2927 153.444 38.3242 152.739 38.3091C149.218 38.2331 148.702 38.1105 147.561 37.8465L146.73 37.656C145.189 37.5016 143.502 37.3735 141.793 37.2807C140.084 37.1879 138.395 37.1328 136.847 37.1194C136.232 37.1184 135.524 37.092 134.833 37.0443C132.584 36.8985 130.307 36.7976 128.152 36.7483C126.809 36.7206 125.361 36.6488 123.983 36.5415C122.604 36.4343 121.353 36.2962 120.381 36.1438C119.507 36.0065 118.364 35.8833 117.111 35.7913C115.643 35.6975 115.507 35.5873 116.327 35.5023C117.146 35.4174 118.518 35.308 119.736 35.2187C120.16 35.1884 120.423 35.139 120.495 35.0762C120.567 35.0133 120.446 34.9394 120.145 34.8627C119.952 34.7314 119.918 34.6068 120.045 34.492C120.113 34.4443 120.066 34.3896 119.908 34.3315C119.749 34.2735 119.483 34.2135 119.126 34.1557C118.77 34.0978 118.332 34.0433 117.842 33.996C117.351 33.9486 116.82 33.9095 116.284 33.8812C114.022 33.7365 111.822 33.5958 109.515 33.49C108.548 33.4402 107.583 33.3784 106.642 33.3063C104.716 33.1277 102.655 32.9797 100.58 32.8707C99.5947 32.822 98.6317 32.7368 97.8991 32.6336C95.5884 32.3555 93.4592 32.0631 91.5502 31.7617C91.09 31.6682 90.488 31.577 89.7818 31.4938C89.0755 31.4106 88.2803 31.3372 87.4461 31.2782C86.7737 31.2352 86.2263 31.1405 85.708 31.0775C85.3314 30.9316 85.2911 30.7966 85.5911 30.6852C85.8911 30.5738 86.5215 30.4897 87.423 30.4407C88.2779 30.3819 89.078 30.3136 89.817 30.2415C90.7079 30.1831 91.7669 30.1481 92.9548 30.1376C94.3617 30.1063 95.402 30.0167 95.9401 29.8806C92.0888 29.6343 88.4263 29.2806 85.0505 29.3633L82.4855 29.1395C82.5877 29.0505 82.6771 28.9726 82.7601 28.9003C83.3701 28.7686 83.5606 28.6026 83.3156 28.4163C83.1134 28.3261 83.1317 28.2441 83.3684 28.1785C83.605 28.1129 84.0516 28.066 84.6631 28.0426C88.2852 27.8025 92.4739 27.6404 95.8707 27.368C96.9357 27.3169 98.1824 27.2936 99.5585 27.2993C100.89 27.2829 100.834 27.1599 99.302 27.0082C98.4422 26.9289 97.5657 26.8529 96.6761 26.7805C92.7528 26.7684 91.1545 27.132 86.6774 27.0308L84.6023 26.5517C84.0411 26.5443 83.4964 26.5414 82.9718 26.543L75.4648 26.7376C74.8395 26.7474 74.3527 26.7807 74.0599 26.8337C73.767 26.8868 73.6797 26.9575 73.8079 27.0378C73.8587 27.136 73.7554 27.2261 73.5015 27.3048C73.3377 27.3599 73.4425 27.4332 73.7927 27.5086C74.582 27.6785 73.5692 27.7033 72.9297 27.746C72.7662 27.7502 72.5777 27.7497 72.3751 27.7447C72.1725 27.7396 71.9598 27.7301 71.7494 27.7167C71.539 27.7032 71.335 27.6861 71.1494 27.6663C70.9637 27.6465 70.8 27.6244 70.6678 27.6013C69.541 27.4397 68.5554 27.2691 67.4477 27.0908C68.2341 26.9201 67.3088 26.64 68.536 26.4856C68.6732 26.4547 68.7281 26.4171 68.6973 26.3751C68.6666 26.3331 68.5507 26.2875 68.357 26.2412C67.8573 26.1217 67.6193 26.0051 67.667 25.9033C67.7147 25.8015 68.0464 25.7181 68.6287 25.6614L68.6989 25.6002C67.1633 25.3945 67.5702 25.2115 66.967 24.9938L65.4898 24.8515C61.8146 24.5089 61.8081 24.5145 58.644 24.5271C58.0062 24.3967 58.8165 24.3769 59.4242 24.362L64.5134 24.2157C67.8409 24.118 71.2651 24.0504 74.9821 24.0134C78.6992 23.9765 82.8432 23.8533 86.6853 23.7647C86.8795 23.7578 87.0281 23.7442 87.1186 23.7251C87.2091 23.7059 87.2387 23.6817 87.2053 23.6546C87.0526 23.6252 86.8526 23.5969 86.6203 23.5717C86.388 23.5465 86.1292 23.5251 85.863 23.509C84.6404 23.4308 83.3859 23.3804 82.083 23.315L79.6541 23.2015L78.9069 23.0522C78.4205 22.9613 78.0883 22.8505 77.4413 22.7852C76.9082 22.7366 76.3296 22.6996 75.7655 22.6782C75.2014 22.6569 74.6727 22.6519 74.2344 22.6637C73.0191 22.6935 71.9196 22.7366 70.7591 22.7759C69.5985 22.8151 68.9589 22.8578 67.9525 22.877C65.9079 22.8858 63.9318 22.9089 62.0331 22.9463C60.4337 23.0348 58.9544 23.1397 57.6044 23.2602C56.7623 23.3079 55.9748 23.365 54.5369 23.3029C53.8546 23.2466 53.2663 23.1726 52.8759 23.0941C52.4856 23.0155 52.3185 22.9375 52.4045 22.8739C52.4816 22.824 52.7 22.7846 53.0391 22.7592C53.3782 22.7339 53.8267 22.7235 54.3423 22.7291C55.7857 22.7199 57.1204 22.6891 58.3195 22.6371C59.9886 22.543 62.0205 22.5024 64.2965 22.5178C65.0684 22.5313 65.5857 22.4808 66.2609 22.4643C66.9361 22.4477 67.508 22.4067 68.2608 22.4369C70.5993 22.5148 71.7206 22.3954 73.122 22.3179C73.5964 22.2835 73.8903 22.2279 73.9714 22.1572C74.0525 22.0865 73.9177 22.0035 73.5817 21.9173C72.9349 21.7456 72.1436 21.5729 71.2203 21.402C70.7451 21.3179 70.1363 21.2381 69.4417 21.1689C68.747 21.0996 67.9853 21.0426 67.2165 21.0025C66.7563 20.8974 66.5109 20.794 66.5022 20.7017C66.4936 20.6093 66.7222 20.5311 67.1672 20.4739C68.3012 20.3433 69.3066 20.2106 71.8476 20.2835C73.0423 20.3114 74.1666 20.3167 75.1759 20.2993C77.4146 20.2755 79.997 20.3277 82.6796 20.4508C83.3736 20.4824 84.0558 20.5039 84.7061 20.5147C89.3438 20.5904 93.7624 20.6282 98.1939 20.6548C100.542 20.6676 102.908 20.6638 105.359 20.7011C111.106 20.782 116.338 20.7404 121.885 20.7668C124.791 20.7803 127.391 20.7258 129.55 20.6061C129.971 20.5659 130.332 20.5191 130.629 20.4661C129.199 20.327 127.627 20.2169 126.065 20.1462C124.503 20.0756 123.003 20.0469 121.709 20.0627C120.997 20.1017 120.078 20.1088 119.053 20.0833C118.028 20.0578 116.937 20.0007 115.903 19.9183L118.91 19.8718C120.903 19.85 122.945 19.8432 124.884 19.8119C127.964 19.7581 130.819 19.672 134.009 19.6371C136.584 19.6051 138.888 19.5231 140.85 19.3939C142.267 19.2996 143.885 19.2328 145.672 19.1947C146.942 19.1744 146.942 19.1744 147.754 18.9815C147.109 18.8567 146.276 18.8392 145.492 18.8368C140.788 18.7583 136.311 18.7445 132.153 18.7958C130.055 18.8004 128.193 18.8533 126.658 18.952C126.282 18.9937 125.321 18.9739 124.549 18.9604C122.129 18.9398 119.816 18.9458 117.638 18.9783C114.627 19.0324 111.274 19.0195 107.708 18.9403C107.032 18.8433 107.81 18.8513 107.848 18.8179C110.61 18.7556 113.317 18.6839 116.134 18.6312C116.904 18.6124 117.727 18.6031 118.593 18.6034C121.83 18.6361 124.526 18.5455 126.306 18.3442C126.395 18.2663 127.566 18.2755 128.083 18.225C128.338 18.1813 128.507 18.1298 128.587 18.0721C127.833 17.9283 126.981 17.9276 126.325 17.9274C124.421 17.9434 122.59 17.9739 120.84 18.0185C119.213 18.061 117.412 18.0723 115.486 18.0523C114.064 18.033 112.849 18.0628 111.414 18.0546C110.636 18.0375 109.831 18.0101 109.015 17.9728C109.924 17.8726 111.159 17.811 112.634 17.7923C113.753 17.7324 115.152 17.7144 115.33 17.5586C114.802 17.4472 114.213 17.4454 113.741 17.4569C112.757 17.4565 111.807 17.4635 110.895 17.478C108.962 17.5096 106.869 17.5101 104.66 17.4793C103.497 17.4678 102.393 17.4712 101.367 17.4896C99.0422 17.5141 96.8142 17.5687 94.6856 17.5938C90.3252 17.6195 86.3483 17.7115 82.1586 17.76C81.2262 17.772 80.3903 17.8141 79.1613 17.7415C77.9322 17.6688 77.8776 17.6594 77.7325 17.6142C77.3885 17.539 77.2843 17.466 77.4414 17.4105C77.6852 17.3586 78.1601 17.3298 78.7815 17.329C82.5269 17.2465 86.0793 17.1306 89.4164 16.982C90.8851 16.9523 92.1719 16.8916 93.2319 16.8021C94.0727 16.7404 95.07 16.6996 96.1925 16.6809C97.8253 16.6363 99.5273 16.6037 101.292 16.5831C102.113 16.572 102.811 16.539 103.345 16.4859C103.879 16.4329 104.239 16.361 104.402 16.2744L102.239 15.9867C101.899 15.9733 101.562 15.9617 101.229 15.952L83.2738 16.1592L81.4956 16.1649C79.5467 16.1477 79.0704 16.1053 77.2218 15.7721C81.4407 15.6937 84.7573 15.4652 86.841 15.1093C86.3402 15.0711 85.8268 15.0382 85.3127 15.0116C81.9411 14.9274 78.7539 14.9051 75.8739 14.9454C74.1631 14.9494 72.4041 14.9384 70.6386 14.933C71.155 14.7689 73.133 14.8178 74.4222 14.7808C77.5026 14.723 80.2265 14.6034 82.5069 14.426C83.2931 14.3569 84.2767 14.3127 85.4127 14.2954C86.5495 14.2894 87.4992 14.2476 88.179 14.1734C88.8587 14.0993 89.248 13.9951 89.313 13.87C89.42 13.7567 89.6509 13.6515 90.0018 13.5558C89.3809 13.42 88.3948 13.29 87.2288 13.1901C86.0628 13.0902 84.7969 13.0274 83.6687 13.0133C81.2603 12.9574 78.7622 12.8659 76.2381 12.7411C74.9808 12.6782 73.7479 12.642 72.6195 12.6351C71.6244 12.6297 70.4933 12.5843 69.3988 12.5056C68.3043 12.427 67.3064 12.3195 66.5574 12.1996C65.5464 12.0513 64.6028 11.9014 63.6594 11.7514C62.7159 11.6015 61.6211 11.4121 60.5198 11.2281C59.5487 11.1994 58.6031 11.1809 57.6959 11.1729C56.99 11.1797 56.1664 11.1596 55.3221 11.1152C54.4779 11.0707 53.6482 11.0036 52.9312 10.9219C53.3517 10.8413 53.8272 10.7702 54.328 10.6768C53.6405 10.5535 53.1421 10.4278 52.863 10.3073C52.5839 10.1868 52.53 10.074 52.7047 9.97582C52.8068 9.8868 52.0594 9.73747 51.8012 9.61943C51.4687 9.51767 51.4063 9.42271 51.622 9.34699C51.8377 9.27127 52.3216 9.21833 53.0101 9.19511C53.864 9.15226 54.559 9.08773 55.0665 9.00416C55.2344 8.98247 55.3199 8.95276 55.3151 8.91775C55.3103 8.88274 55.2154 8.84355 55.0392 8.80377C54.8629 8.76398 54.6108 8.72486 54.306 8.68999C54.0013 8.65512 53.6535 8.62561 53.2945 8.60417C52.1949 8.54337 51.1028 8.50396 50.081 8.48821C48.3207 8.45922 46.6355 8.44102 45.0254 8.43358C43.2448 8.4224 41.2638 8.35339 39.2836 8.23355C37.5108 8.12016 35.9214 8.01849 35.0545 7.80181C34.1877 7.58512 32.8017 7.59202 31.736 7.43428C32.3346 7.29208 33.3987 7.19329 34.8207 7.14786C35.7513 7.13164 36.5281 7.08908 37.1012 7.02289C37.6744 6.95671 38.0313 6.86837 38.149 6.76354L34.9135 6.32369C32.3295 6.11661 30.8999 6.27599 28.1079 6.19297L30.9846 6.0306C31.0424 6.01455 31.0641 5.9957 31.0485 5.97496C30.7692 5.64656 30.3248 5.57633 27.3841 5.39421L25.7336 5.28864L23.1213 5.16336C22.7029 5.09605 22.4136 5.02587 22.2821 4.95982C22.1506 4.89377 22.1816 4.83417 22.3721 4.78699C22.7548 4.70763 22.8712 4.60623 22.7105 4.49212C22.4571 4.41652 22.4363 4.34684 22.6514 4.29515C22.8665 4.24345 23.3042 4.21302 23.8884 4.20913C24.3546 4.20312 24.3892 4.11576 24.6428 4.06629C24.8948 3.99811 25.3262 3.94579 25.9074 3.91289C26.4887 3.88 27.2061 3.86728 28.0112 3.87564C30.3847 3.88247 32.6144 3.85687 34.6607 3.79931L34.2939 3.77585C36.4268 3.82638 38.4208 3.83251 40.1788 3.79394C41.9406 3.74539 44.2016 3.77653 46.0729 3.74693C47.5964 3.75372 48.7562 3.68652 49.3063 3.55959C49.8391 3.4384 51.7752 3.46668 53.2579 3.48985C54.1362 3.50484 54.985 3.51119 55.7953 3.50882C56.883 3.4814 58.243 3.50725 59.6484 3.58209C60.0701 3.60509 60.4855 3.61726 60.8546 3.61743C64.4276 3.64889 67.994 3.6859 71.5186 3.70232C72.3322 3.69287 73.2862 3.71452 74.2686 3.76474C74.6815 3.78654 75.0834 3.79558 75.4201 3.79062C80.9894 3.74074 87.2739 3.868 92.7336 3.79918C93.3953 3.78292 94.128 3.77954 94.9107 3.78913C96.6695 3.82956 98.1969 3.80354 99.2609 3.71503C99.835 3.66795 100.571 3.64201 101.422 3.63885C102.273 3.6357 103.22 3.65541 104.203 3.69672C105.839 3.75142 107.352 3.75735 108.58 3.71389C110.975 3.67374 113.494 3.65723 116.117 3.66449C116.921 3.67151 117.627 3.65591 118.182 3.61888C118.737 3.58186 119.124 3.52441 119.315 3.45098C118.671 3.32617 117.967 3.31099 117.298 3.32196C114.706 3.29352 112.12 3.25951 109.576 3.24611C107.299 3.20782 105.115 3.19612 103.054 3.21117C102.031 3.22815 100.755 3.18944 99.5034 3.10348C97.9696 2.99462 96.3898 2.94053 95.0836 2.95217C94.1152 2.95506 93.0929 2.94568 92.0316 2.92418C91.3524 2.89825 90.6561 2.85371 90.0144 2.79515C89.7597 2.76972 89.4824 2.74833 89.2005 2.73236C88.9185 2.71639 88.6382 2.7062 88.377 2.70242C88.1158 2.69864 87.8795 2.70136 87.6835 2.71041C87.4876 2.71946 87.3362 2.73464 87.2389 2.75498C86.2563 2.92504 84.0592 2.83826 82.1778 2.81945C79.3584 2.53162 77.2601 2.70198 74.625 2.53941C74.4167 2.52863 74.2113 2.5221 74.0216 2.52024C73.832 2.51838 73.662 2.52121 73.5219 2.52857C68.4225 2.62642 62.4792 2.54487 57.1253 2.57866C56.5349 2.5836 55.8495 2.56667 55.1473 2.52978C50.5575 2.28563 46.1446 2.21632 42.7714 2.3354C42.361 2.34612 41.8941 2.34658 41.3919 2.33675C39.0856 2.23972 36.8801 2.20103 34.9595 2.22392C31.9495 2.21653 29.0554 2.22252 25.9971 2.20009C23.8889 2.16818 22.0394 2.20228 20.634 2.29898C20.5893 2.33793 19.6531 2.29596 18.9359 2.2919C18.5235 2.19385 18.1659 2.10529 17.7407 2.01838C17.3606 1.91085 16.7912 1.80203 16.0713 1.69932C15.3514 1.5966 14.4979 1.50239 13.5682 1.42304C11.9788 1.32138 11.8198 1.17386 12.932 1.11958C15.7987 0.940019 19.4033 0.866527 23.4811 0.904496C26.8898 0.907531 30.3597 0.914483 33.8168 0.932556C35.8332 0.948058 37.9589 0.982496 39.9205 0.988527C40.5825 1.00178 41.2624 1.0213 41.9534 1.04689C42.8012 1.08399 43.6244 1.10421 44.3786 1.10646C46.8003 1.07521 49.5029 1.10243 52.3576 1.18682C53.4032 1.20522 54.4072 1.21142 55.3547 1.20533C57.5963 1.18243 60.0265 1.19929 62.5808 1.25546C64.1685 1.28714 65.7078 1.3037 67.1831 1.30498C67.7041 1.30844 68.1283 1.28183 68.6301 1.30198C73.0471 1.51283 76.1747 1.36054 80.1501 1.44161C82.0822 1.46422 83.928 1.46429 85.6618 1.44181C89.0453 1.44289 92.5231 1.46601 96.0814 1.51106C100.787 1.58508 105.147 1.5594 109.639 1.58996C110.526 1.59638 111.383 1.59529 112.202 1.58668C116.189 1.5298 120.52 1.54186 125.088 1.62257C126.126 1.63423 127.057 1.61997 127.825 1.5807C128.593 1.54143 129.18 1.47798 129.55 1.39434C129.706 1.33693 129.605 1.26237 129.265 1.18503C128.701 1.08626 128.064 0.989491 127.365 0.89631L101.936 0.583635C100.868 0.567307 99.8262 0.558517 98.8164 0.557302C95.8465 0.554584 92.7852 0.530258 89.6477 0.484449C86.5474 0.441419 83.5857 0.449058 80.5821 0.436104C79.6974 0.431762 78.7892 0.421525 77.8614 0.405413C71.59 0.27791 65.4747 0.200034 59.5586 0.172341C57.0696 0.168411 54.3807 0.109895 51.8434 0.090928C49.306 0.0719606 45.8361 0.0650182 42.8262 0.0576253L33.5071 0.0587605C31.6741 0.0549861 29.8894 0.066246 28.1111 0.0719453C25.9532 -0.334815 25.2096 -0.430157 22.33 -0.608366C21.3448 -0.674103 20.3428 -0.713333 19.4414 -0.72146C16.5828 -0.689305 12.9961 -0.82316 10.2854 -0.805439C8.64976 -0.81418 7.26181 -0.768993 6.26368 -0.674501C5.39723 -0.600346 4.40644 -0.541665 3.3066 -0.499353C0.293749 -0.847328 0.0282274 -1.07333 2.29458 -1.16128C2.90861 -1.18172 3.75439 -1.1754 4.1978 -1.2187C4.45222 -1.24507 4.79978 -1.26015 5.21278 -1.26276C5.62579 -1.26536 6.09281 -1.25543 6.57723 -1.23372C8.10608 -1.17678 9.53906 -1.16338 10.7324 -1.19489C11.8554 -1.23659 13.232 -1.23492 14.7295 -1.19005C15.8298 -1.11967 16.797 -1.21905 17.7486 -1.24776C18.7003 -1.27648 19.4812 -1.32805 20.9675 -1.2509C21.2397 -1.23554 21.5099 -1.22632 21.7574 -1.22394C22.0049 -1.22157 22.2232 -1.22611 22.3954 -1.23721C23.9918 -1.28689 25.8967 -1.28167 27.9556 -1.22197C31.1133 -1.16322 34.076 -1.16102 36.741 -1.21544C38.3363 -1.26305 39.6964 -1.34749 40.7682 -1.46546C41.0604 -1.50492 41.4942 -1.52858 42.0282 -1.53417C44.7095 -1.50956 47.6209 -1.41692 50.5747 -1.26224C51.6875 -1.20026 52.7988 -1.15123 53.8849 -1.1162C56.1172 -1.03839 58.2763 -0.994789 60.2982 -0.986686C63.2361 -0.985403 66.2951 -0.955462 69.4477 -0.897143C71.3934 -0.864669 73.2681 -0.852683 75.0497 -0.861317C76.881 -0.865387 78.8362 -0.840615 80.871 -0.78758C82.8945 -0.744362 84.6778 -0.769264 86.0058 -0.859269C86.4431 -0.907772 86.7954 -0.965367 87.0559 -1.03098C84.0931 -1.24448 81.0288 -1.35299 78.4802 -1.33465C77.5121 -1.34879 76.7083 -1.33451 75.6882 -1.41767L75.6563 -1.38986C75.4533 -1.3718 75.147 -1.36754 74.7959 -1.37789C74.4447 -1.38824 74.0732 -1.41246 73.7522 -1.44595C73.8735 -1.55166 73.9884 -1.6518 74.0714 -1.72413C76.0133 -1.71137 77.8988 -1.7124 79.7183 -1.72724C81.252 -1.74858 83.3341 -1.56166 84.6616 -1.63202C87.251 -1.54403 88.8997 -1.66552 91.2217 -1.63046C93.5438 -1.59541 96.1013 -1.4796 98.4233 -1.44455C100.45 -1.42531 102.417 -1.42113 104.315 -1.43202C104.97 -1.44731 105.725 -1.44373 106.534 -1.42148C107.671 -1.37963 108.728 -1.37261 109.585 -1.40125C110.442 -1.42988 111.063 -1.49301 111.378 -1.58339C111.082 -1.66805 110.682 -1.77721 110.221 -1.89029C111.069 -1.98321 112.356 -2.02233 113.893 -2.00184L116.063 -2.00633C116.639 -2.00388 117.078 -2.029 117.291 -2.07649C117.505 -2.12399 117.475 -2.19022 117.209 -2.2615C113.093 -2.62031 112.942 -2.65986 109.921 -2.42907L105.91 -2.53632L105.978 -2.53796ZM160.229 -1.55232L159.923 -1.57187L160.229 -1.55232ZM660.071 36.623L660.001 36.6842L660.078 36.6174L660.75 36.6604L660.795 36.6215L660.071 36.623ZM562.438 9.799C561.488 9.73223 560.528 9.67085 559.565 9.61522C559.313 9.6066 559.077 9.60465 558.877 9.60954C558.677 9.61444 558.52 9.62602 558.417 9.64333C558.341 9.71009 558.878 9.75641 559.367 9.78769C559.984 9.82979 560.614 9.85655 561.192 9.8652C561.771 9.87384 562.277 9.86408 562.657 9.83689L563.21 9.81253L562.438 9.799ZM72.8833 26.0709C73.5091 26.0821 74.1025 26.0839 74.6489 26.0763C77.0731 26.0224 79.3941 25.9439 81.8794 25.8938C85.0153 25.7668 88.6187 25.715 92.5544 25.7405C94.092 25.753 95.3911 25.7118 96.2999 25.6218C96.8439 25.5735 97.5461 25.5452 98.3636 25.5388L108.768 25.3921C109.412 25.3617 109.968 25.319 110.424 25.2651C109.507 25.2064 108.895 25.1673 108.528 25.1439C107.767 25.1373 107.113 25.1551 106.632 25.1957C106.114 25.2645 105.24 25.2917 104.182 25.2719C103.114 25.2556 102.072 25.2468 101.062 25.2456C99.1555 25.249 97.2357 25.2636 95.3224 25.2726C94.578 25.4639 92.3809 25.3771 90.4995 25.3583L89.0461 25.3668C84.2951 25.466 79.7569 25.6024 75.4534 25.7754C74.6217 25.8047 73.9051 25.8514 73.3258 25.9141C73.1076 25.9629 73.0377 26.0239 73.1215 26.0921L72.8159 26.0725L72.8833 26.0709ZM285.04 44.3585C286.193 44.3715 287.393 44.3983 288.623 44.4384C289.571 44.4793 290.496 44.5042 291.361 44.5119C296.206 44.5548 301.256 44.6538 306.442 44.8077C307.12 44.831 307.771 44.8424 308.371 44.8415L312.616 44.8025C313.953 44.7805 313.979 44.7583 313.005 44.4631C312.197 44.4058 311.38 44.3535 310.56 44.3067C310.071 44.2754 309.276 44.2246 309.09 44.2724C307.956 44.4029 305.888 44.3184 304.148 44.2907C299.111 44.2194 293.917 44.1141 288.832 44.0277C287.757 44.0066 286.716 43.9959 285.719 43.9958C285.101 43.9914 284.536 43.9997 284.05 44.0205C283.908 44.0226 283.789 44.0288 283.702 44.0386C283.614 44.0484 283.559 44.0617 283.541 44.0774C283.523 44.0932 283.542 44.1112 283.596 44.1302C283.651 44.1491 283.741 44.1686 283.859 44.1874C284.275 44.2531 284.756 44.316 285.285 44.3741L285.04 44.3585ZM321.935 1.51677L326.897 1.48178C327.491 1.47802 327.996 1.43863 328.633 1.45548C332.03 1.50887 335.176 1.494 337.936 1.4115C338.876 1.37783 339.975 1.3711 341.174 1.39167C344.844 1.45264 348.307 1.45515 351.467 1.39912C353.51 1.38788 355.422 1.35012 357.174 1.2864C357.309 1.2716 357.393 1.25152 357.421 1.22752C357.449 1.20352 357.419 1.17616 357.334 1.14731C357.312 1.12908 357.252 1.10947 357.158 1.08984C357.064 1.0702 356.939 1.051 356.79 1.03356C356.642 1.01613 356.474 1.00087 356.299 0.988832C356.123 0.976794 355.943 0.968262 355.773 0.963837C353.559 0.877584 351.457 0.847536 349.64 0.876131C347.955 0.910345 346.14 0.920356 344.225 0.906008C342.392 0.902235 341.148 1.0138 338.884 0.928671C337.925 0.90064 337.081 0.909868 336.491 0.95481C335.305 1.0293 333.649 1.03345 331.819 0.966505C330.724 0.932624 329.677 0.918094 328.718 0.92347C326.394 0.947962 324.172 0.996964 322.018 1.04431C321.339 1.05527 320.612 1.05678 319.847 1.04881L309.061 0.956098C306.469 0.927658 303.883 0.893654 301.339 0.880251C299.259 0.851147 297.323 0.860261 295.6 0.907271C293.762 0.956684 291.758 0.976744 289.625 0.967072C286.313 0.994112 283.02 1.00445 279.415 1.00082C277.116 1.00305 274.762 0.995822 272.36 0.973549C271.145 0.944882 270.113 0.968228 269.463 1.03909C269.068 1.09743 268.138 1.0499 267.366 1.03636C263.249 0.905869 259.388 0.874949 256.053 0.945756C255.627 0.957293 255.159 0.96147 254.66 0.958215C251.448 0.955784 248.119 0.939968 245.036 0.939793C244.224 0.945294 243.46 0.960389 242.753 0.984888C242.828 1.02486 243.044 1.06818 243.355 1.10586C243.666 1.14355 244.049 1.17271 244.424 1.1873C247.34 1.29896 250.156 1.35795 252.754 1.36179C257.077 1.34756 261.606 1.37954 266.293 1.45738C269.93 1.53586 273.246 1.51934 275.994 1.40905C278.143 1.32675 280.938 1.35771 283.899 1.49662C285.167 1.56296 286.397 1.58949 287.421 1.57258C288.407 1.55039 289.539 1.55578 290.75 1.5884C293.302 1.65044 295.757 1.67922 298.066 1.67417C300.323 1.65133 302.429 1.58895 304.747 1.57002C307.066 1.55109 310.597 1.56194 313.455 1.52978C316.314 1.49763 319.14 1.49329 321.935 1.51677ZM116.345 -1.73747C116.607 -1.56545 117.534 -1.45838 118.532 -1.41251C121.97 -1.20883 125.369 -1.12216 128.158 -1.16704C129.665 -1.22964 131.674 -1.20554 133.79 -1.09948C136.253 -0.989228 138.556 -0.970944 140.292 -1.04785C140.717 -1.06129 141.043 -1.0897 141.24 -1.13054C141.278 -1.16393 141.349 -1.22512 141.361 -1.23625C141.179 -1.26447 140.955 -1.29062 140.708 -1.31267C140.46 -1.33473 140.195 -1.35211 139.933 -1.36347L128.544 -1.56039L126.56 -1.60372C122.935 -1.71725 119.481 -1.76247 116.345 -1.73747ZM138.747 0.985268C140.524 1.26617 140.53 1.26059 141.441 1.32481C145.834 1.59153 150.224 1.73552 154.089 1.73962C154.947 1.73881 155.676 1.7117 156.214 1.66056C156.49 1.65363 156.666 1.63161 156.703 1.5993C156.74 1.56699 156.635 1.52701 156.412 1.48809L154.998 1.29019C152.431 1.20452 149.901 1.13645 147.423 1.08638C144.538 1.02727 141.982 1.02498 138.991 1.0009L138.747 0.985268ZM284.827 43.1147C286.483 43.5013 286.49 43.4957 289.263 43.5954C291.195 43.6661 293.069 43.7076 294.83 43.7186C296.982 43.7308 299.188 43.7525 301.333 43.7702C301.857 43.7826 302.301 43.7723 302.578 43.7416C302.856 43.7108 302.948 43.6616 302.836 43.6037C302.555 43.5407 302.115 43.4799 301.587 43.4309C301.059 43.382 300.475 43.3479 299.93 43.3342L298.76 43.325C297.338 43.3057 295.862 43.277 294.489 43.2728C293.598 43.2888 292.566 43.2764 291.473 43.2366C290.38 43.1967 289.257 43.1305 288.19 43.0431L284.827 43.1147ZM147.59 -1.23199C148.033 -1.16503 148.533 -1.10091 149.078 -1.04132C151.187 -0.876142 153.42 -0.78233 155.338 -0.778271C156.245 -0.768039 157.074 -0.804572 157.997 -0.751485C159.653 -0.680546 161.258 -0.642757 162.725 -0.640166C162.725 -0.640166 163.137 -0.655656 163.272 -0.658963L163.553 -0.903759C162.858 -0.960469 162.134 -1.0068 161.413 -1.04061C158.994 -1.10574 156.618 -1.15027 154.247 -1.20036C151.877 -1.25045 151.05 -1.27346 149.5 -1.29498C148.809 -1.28315 148.169 -1.26205 147.59 -1.23199ZM95.2108 29.201L98.3761 29.702C99.4004 29.7456 100.357 29.7534 101.101 29.7245C101.845 29.6955 102.335 29.6313 102.497 29.5416C102.758 29.4996 102.784 29.4374 102.57 29.3681C102.356 29.2987 101.918 29.2276 101.349 29.1696C100.801 29.1008 100.176 29.0392 99.5119 28.9885C98.8477 28.9378 98.1588 28.8991 97.4881 28.8748L95.2108 29.201ZM121.565 26.7063C119.495 26.6213 117.515 26.5866 115.776 26.6047C114.681 26.6544 113.196 26.6386 111.627 26.5603C108.774 26.4045 106.024 26.3613 103.957 26.44C103.957 26.44 103.88 26.5067 103.53 26.5261C103.18 26.5455 104.569 26.5926 104.875 26.6122C107.117 26.66 109.371 26.6967 111.32 26.7139C112.53 26.7131 113.81 26.7289 115.137 26.761C116.964 26.8104 118.697 26.8264 120.267 26.8084C120.267 26.8084 120.875 26.7935 121.559 26.7118L121.565 26.7063ZM342.662 0.609016C341.674 0.514654 340.601 0.437961 339.526 0.384695C338.451 0.331432 337.4 0.302979 336.454 0.301465C335.728 0.296541 335.142 0.321455 334.786 0.372269C334.431 0.423082 334.327 0.496896 334.491 0.582036C335.225 0.628956 336.203 0.691515 336.753 0.726705C338.66 0.723263 340.287 0.678015 342.662 0.609016ZM527.769 8.56089C526.976 8.48493 526.102 8.42685 525.247 8.39329C524.392 8.35972 523.59 8.35203 522.934 8.37109C522.597 8.37936 522.826 8.46567 522.768 8.51574C522.731 8.5271 522.731 8.54122 522.769 8.55662C522.808 8.57203 522.883 8.58817 522.986 8.60333C523.089 8.61849 523.218 8.63212 523.357 8.64279C523.497 8.65347 523.642 8.6608 523.779 8.66401C524.64 8.69674 525.452 8.70647 526.144 8.69236C526.836 8.67825 527.385 8.64073 527.743 8.58314L527.769 8.56089ZM540.171 9.64679C540.049 9.60196 539.787 9.55525 539.436 9.5152C539.084 9.47515 538.665 9.44445 538.256 9.42875C537.533 9.42663 536.877 9.43907 536.311 9.46557C535.697 9.48601 536.139 9.61579 536.969 9.69278C537.321 9.72369 537.696 9.74779 538.066 9.76319C538.436 9.77858 538.79 9.78483 539.1 9.78145C539.409 9.77806 539.666 9.76513 539.85 9.74368C540.034 9.72224 540.14 9.69288 540.159 9.65791L540.171 9.64679ZM179.787 -0.755216C177.937 -0.915374 176.513 -0.875084 174.946 -0.939452C173.379 -1.00382 172.993 -1.01059 173.203 -0.907591C173.413 -0.804588 174.487 -0.825477 175.159 -0.782466C176.068 -0.725395 176.982 -0.692624 177.799 -0.687811C178.617 -0.682997 179.305 -0.706336 179.787 -0.755216ZM565.369 26.3435C564.389 26.3076 563.428 26.2822 562.503 26.2677C562.381 26.2826 562.305 26.3021 562.278 26.325C562.252 26.348 562.276 26.3739 562.35 26.4013C562.35 26.4013 562.977 26.4832 563.344 26.5067C564.695 26.5871 564.762 26.4719 565.369 26.3435ZM703.893 41.2652C704.556 41.3733 704.865 41.4468 705.396 41.4987C705.64 41.5167 705.892 41.5298 706.134 41.537C706.376 41.5442 706.601 41.5453 706.792 41.5402C707.026 41.5091 707.08 41.4614 706.945 41.4067C706.945 41.4067 706.269 41.3097 706.012 41.3052C705.278 41.2823 704.567 41.2688 703.893 41.2652ZM148.291 -1.67091C146.885 -1.76084 145.54 -1.84686 144.566 -1.74192C146.799 -1.62897 146.799 -1.62896 148.291 -1.67091ZM171.064 -0.644316C169.644 -0.836647 168.811 -0.854101 168.129 -0.832002C167.984 -0.826435 167.889 -0.814029 167.856 -0.796669C167.824 -0.779307 167.857 -0.757932 167.95 -0.735775C168.043 -0.713619 168.192 -0.691891 168.373 -0.673873C168.554 -0.655854 168.758 -0.642528 168.954 -0.635913C169.695 -0.630377 170.401 -0.633187 171.064 -0.644316ZM244.135 -0.562987C244.167 -0.590804 244.206 -0.624185 243.839 -0.647645C243.743 -0.659555 243.63 -0.669796 243.512 -0.677346C243.394 -0.684895 243.275 -0.689482 243.167 -0.69065C243.167 -0.69065 243.128 -0.657267 243.103 -0.635013L244.135 -0.562987ZM294.878 45.6208L294.062 45.6462L294.428 45.6696L295.397 45.6838L294.878 45.6208ZM582.403 9.21272C582.098 9.19317 581.792 9.17362 581.747 9.21256C581.683 9.2186 581.643 9.2273 581.631 9.23795C581.618 9.24859 581.634 9.26087 581.677 9.27376C581.677 9.27376 582.105 9.30113 582.288 9.31286L582.403 9.21272ZM534.8 9.5242C534.599 9.52196 534.418 9.52458 534.266 9.53187L534.228 9.56525L534.839 9.60435L534.8 9.5242ZM119.951 17.4779C119.715 17.4576 119.464 17.4416 119.217 17.431L118.911 17.4114C118.911 17.4114 119.24 17.4683 119.423 17.48C119.607 17.4917 119.755 17.4773 119.951 17.4779Z" fill="#00FF47"/>
</svg>
