<svg width="97" height="58" viewBox="0 0 97 58" fill="none" xmlns="http://www.w3.org/2000/svg">
<path fill-rule="evenodd" clip-rule="evenodd" d="M32.7193 10.3496C36.9218 4.28078 44.2322 0.257507 52.5531 0.257507C65.0976 0.257507 75.357 9.40126 76.1169 20.9463C76.3673 20.9374 76.6188 20.9329 76.8713 20.9329C87.6717 20.9329 96.4272 29.1156 96.4272 39.2094C96.4272 49.3033 87.6717 57.486 76.8713 57.486L26.2084 57.486C12.0504 57.486 0.572998 46.7595 0.572998 33.5276C0.572998 20.2958 12.0504 9.5693 26.2084 9.5693C28.455 9.5693 30.6377 9.84011 32.7193 10.3496ZM62.2568 31.9524C61.1032 33.3001 58.999 33.5186 57.5569 32.4404L51.8438 28.1689V42.5002C51.8438 44.2261 50.3468 45.6252 48.5001 45.6252C46.6534 45.6252 45.1563 44.2261 45.1563 42.5002V28.1687L39.4429 32.4404C38.0009 33.5186 35.8967 33.3001 34.7431 31.9524C33.5894 30.6047 33.8232 28.6381 35.2653 27.56L46.3992 19.2356C46.9665 18.8068 47.687 18.548 48.4719 18.542L48.5001 18.5419L48.5109 18.5419C49.3094 18.5442 50.042 18.8082 50.6158 19.2468L61.7346 27.56C63.1766 28.6381 63.4104 30.6047 62.2568 31.9524Z" fill="url(#paint0_linear_213:18)"/>
<defs>
<linearGradient id="paint0_linear_213:18" x1="48.5001" y1="0.257507" x2="48.5001" y2="57.486" gradientUnits="userSpaceOnUse">
<stop stop-color="#8976F4"/>
<stop offset="1" stop-color="#26D2A8"/>
</linearGradient>
</defs>
</svg>
