<svg width="19" height="13" viewBox="0 0 19 13" fill="none" xmlns="http://www.w3.org/2000/svg">
<path fill-rule="evenodd" clip-rule="evenodd" d="M6.2112 2.55547C7.01465 1.2446 8.41225 0.375572 10.0031 0.375572C12.4013 0.375572 14.3627 2.35062 14.508 4.84436C14.5559 4.84244 14.604 4.84146 14.6522 4.84146C16.7171 4.84146 18.391 6.60892 18.391 8.78919C18.391 10.9695 16.7171 12.7369 14.6522 12.7369L4.96644 12.7369C2.25969 12.7369 0.0654297 10.42 0.0654297 7.56192C0.0654297 4.70385 2.25969 2.38692 4.96644 2.38692C5.39595 2.38692 5.81324 2.44542 6.2112 2.55547ZM11.8582 7.22166C11.6377 7.51276 11.2354 7.55996 10.9597 7.32708L9.86745 6.40443V9.49999C9.86745 9.87278 9.58124 10.175 9.22819 10.175C8.87513 10.175 8.58893 9.87278 8.58893 9.49999V6.40439L7.49663 7.32708C7.22094 7.55996 6.81866 7.51276 6.59811 7.22166C6.37756 6.93056 6.42226 6.50579 6.69795 6.27291L8.82654 4.47483C8.93501 4.38223 9.07274 4.32632 9.2228 4.32502L9.22819 4.32499L9.23026 4.325C9.38292 4.32551 9.52298 4.38252 9.63268 4.47727L11.7584 6.27291C12.0341 6.50579 12.0788 6.93056 11.8582 7.22166Z" fill="white"/>
</svg>
