<svg width="37" height="23" viewBox="0 0 37 23" fill="none" xmlns="http://www.w3.org/2000/svg">
<path d="M23.5141 12.726C23.0937 13.2516 22.3267 13.3368 21.8011 12.9163L19.7188 11.2504V16.8396C19.7188 17.5127 19.1731 18.0584 18.5 18.0584C17.8269 18.0584 17.2813 17.5127 17.2813 16.8396V11.2503L15.1988 12.9163C14.6732 13.3368 13.9063 13.2516 13.4858 12.726C13.0653 12.2004 13.1505 11.4334 13.6761 11.0129L17.7343 7.7664C17.9411 7.5992 18.2037 7.49827 18.4897 7.49591C18.4932 7.49588 18.4966 7.49586 18.5 7.49586L18.504 7.49587C18.795 7.49679 19.062 7.59973 19.2712 7.7708L23.3238 11.0129C23.8494 11.4334 23.9346 12.2004 23.5141 12.726Z" fill="#606060"/>
<path fill-rule="evenodd" clip-rule="evenodd" d="M12.6175 4.1549C14.1804 1.72667 16.9083 0.115623 20.0144 0.115623C24.6952 0.115623 28.5215 3.77422 28.7897 8.38781C28.8927 8.38347 28.9963 8.38128 29.1003 8.38128C33.1187 8.38128 36.3763 11.6389 36.3763 15.6573C36.3763 19.6758 33.1187 22.9334 29.1003 22.9334H10.1712C4.89829 22.9334 0.623718 18.6588 0.623718 13.3858C0.623718 8.11288 4.89829 3.8383 10.1712 3.8383C11.0157 3.8383 11.8359 3.94822 12.6175 4.1549ZM20.0144 2.55312C17.4951 2.55312 15.316 4.01941 14.2882 6.15056C14.0119 6.72355 13.3413 6.98763 12.7485 6.75695C11.951 6.44665 11.0826 6.2758 10.1712 6.2758C6.24449 6.2758 3.06122 9.45907 3.06122 13.3858C3.06122 17.3126 6.24449 20.4959 10.1712 20.4959H29.1003C31.7726 20.4959 33.9388 18.3296 33.9388 15.6573C33.9388 12.9851 31.7726 10.8188 29.1003 10.8188C28.6655 10.8188 28.2459 10.8758 27.8477 10.9822C27.4573 11.0864 27.0407 10.9905 26.7353 10.726C26.4299 10.4615 26.2754 10.0628 26.3229 9.66157C26.3521 9.41425 26.3672 9.16214 26.3672 8.90599C26.3672 5.3974 23.5229 2.55312 20.0144 2.55312Z" fill="#606060"/>
</svg>
