<svg width="17" height="17" viewBox="0 0 17 17" fill="none" xmlns="http://www.w3.org/2000/svg">
<path d="M11.3751 0.114624C14.4184 0.114624 16.8855 2.58172 16.8855 5.62504V12.4358C16.8855 12.8327 16.5637 13.1545 16.1667 13.1545C15.7698 13.1545 15.448 12.8327 15.448 12.4358V5.62504C15.448 3.37563 13.6245 1.55212 11.3751 1.55212H4.65443C4.25747 1.55212 3.93568 1.23033 3.93568 0.833374C3.93568 0.436419 4.25747 0.114624 4.65443 0.114624H11.3751Z" fill="#5E6282"/>
<path fill-rule="evenodd" clip-rule="evenodd" d="M2.3643 3.51025C5.47021 3.16312 8.65492 3.16312 11.7608 3.51025C12.6456 3.60914 13.3567 4.30546 13.4609 5.19712C13.8293 8.34667 13.8293 11.5284 13.4609 14.678C13.3567 15.5696 12.6456 16.2659 11.7608 16.3648C8.65492 16.712 5.47021 16.712 2.3643 16.3648C1.47949 16.2659 0.768474 15.5696 0.664185 14.678C0.295819 11.5284 0.295819 8.34667 0.664185 5.19712C0.768474 4.30546 1.47949 3.60914 2.3643 3.51025ZM11.6012 4.93885C8.60137 4.60358 5.52377 4.60358 2.52397 4.93885C2.29651 4.96427 2.11768 5.14416 2.09195 5.36411C1.73656 8.40271 1.73656 11.4724 2.09195 14.511C2.11768 14.7309 2.29651 14.9108 2.52397 14.9362C5.52377 15.2715 8.60137 15.2715 11.6012 14.9362C11.8286 14.9108 12.0075 14.7309 12.0332 14.511C12.3886 11.4724 12.3886 8.40271 12.0332 5.36411C12.0075 5.14416 11.8286 4.96427 11.6012 4.93885Z" fill="#5E6282"/>
</svg>
