<svg width="20" height="26" viewBox="0 0 20 26" fill="none" xmlns="http://www.w3.org/2000/svg">
<path d="M8.17731 18C8.17731 16.9645 9.03935 16.125 10.1027 16.125C11.1661 16.125 12.0282 16.9645 12.0282 18C12.0282 19.0355 11.1661 19.875 10.1027 19.875C9.03935 19.875 8.17731 19.0355 8.17731 18Z" fill="black"/>
<path fill-rule="evenodd" clip-rule="evenodd" d="M4.48261 11.2464L4.0777 7.69772C4.02579 7.24275 4.02579 6.78358 4.0777 6.32861L4.10693 6.07249C4.4169 3.35575 6.6101 1.20618 9.39784 0.886796C9.86614 0.833145 10.3393 0.833145 10.8076 0.886796C13.5953 1.20618 15.7885 3.35575 16.0985 6.07249L16.1277 6.32861C16.1796 6.78358 16.1796 7.24275 16.1277 7.69772L15.7228 11.2464L16.6041 11.315C17.9939 11.423 19.1288 12.4404 19.3541 13.7802C19.824 16.5748 19.824 19.4252 19.3541 22.2198C19.1288 23.5596 17.994 24.577 16.6041 24.6851L14.6837 24.8344C11.6346 25.0714 8.57095 25.0714 5.52186 24.8344L3.6014 24.6851C2.2116 24.577 1.07674 23.5596 0.851446 22.2198C0.381549 19.4252 0.381549 16.5748 0.851446 13.7802C1.07674 12.4404 2.21159 11.423 3.6014 11.315L4.48261 11.2464ZM9.62281 2.74895C9.94164 2.71243 10.2638 2.71243 10.5826 2.74895C12.4806 2.9664 13.9738 4.4299 14.1848 6.27955L14.2141 6.53567C14.2503 6.85302 14.2503 7.17331 14.2141 7.49067L13.8018 11.1037C11.3383 10.9493 8.86712 10.9493 6.4036 11.1037L5.99135 7.49067C5.95514 7.17331 5.95514 6.85302 5.99135 6.53567L6.02058 6.27954C6.23162 4.4299 7.72482 2.9664 9.62281 2.74895ZM14.5305 13.0347C11.5834 12.8056 8.62219 12.8056 5.67509 13.0347L3.75463 13.184C3.24769 13.2234 2.83375 13.5945 2.75157 14.0832C2.31541 16.6771 2.31541 19.3229 2.75157 21.9168C2.83375 22.4055 3.24769 22.7766 3.75463 22.816L5.67509 22.9653C8.62219 23.1944 11.5834 23.1944 14.5305 22.9653L16.4509 22.816C16.9579 22.7766 17.3718 22.4055 17.454 21.9168C17.8901 19.3229 17.8901 16.6771 17.454 14.0832C17.3718 13.5945 16.9579 13.2234 16.4509 13.184L14.5305 13.0347Z" fill="black"/>
</svg>
