<svg width="26" height="18" viewBox="0 0 26 18" fill="none" xmlns="http://www.w3.org/2000/svg">
<path fill-rule="evenodd" clip-rule="evenodd" d="M8.3125 9C8.3125 6.41117 10.4112 4.3125 13 4.3125C15.5888 4.3125 17.6875 6.41117 17.6875 9C17.6875 11.5888 15.5888 13.6875 13 13.6875C10.4112 13.6875 8.3125 11.5888 8.3125 9ZM13 6.1875C11.4467 6.1875 10.1875 7.4467 10.1875 9C10.1875 10.5533 11.4467 11.8125 13 11.8125C14.5533 11.8125 15.8125 10.5533 15.8125 9C15.8125 7.4467 14.5533 6.1875 13 6.1875Z" fill="black"/>
<path fill-rule="evenodd" clip-rule="evenodd" d="M3.40428 7.30794C2.88039 8.06286 2.6875 8.65337 2.6875 9C2.6875 9.34663 2.88039 9.93714 3.40428 10.6921C3.91071 11.4218 4.66347 12.2129 5.61584 12.9438C7.52473 14.4088 10.1418 15.5625 13 15.5625C15.8582 15.5625 18.4753 14.4088 20.3842 12.9438C21.3365 12.2129 22.0893 11.4218 22.5957 10.6921C23.1196 9.93714 23.3125 9.34663 23.3125 9C23.3125 8.65337 23.1196 8.06286 22.5957 7.30794C22.0893 6.57819 21.3365 5.78715 20.3842 5.05621C18.4753 3.59115 15.8582 2.4375 13 2.4375C10.1418 2.4375 7.52473 3.59115 5.61584 5.05621C4.66347 5.78715 3.91071 6.57819 3.40428 7.30794ZM4.47426 3.56879C6.63707 1.90885 9.64498 0.5625 13 0.5625C16.355 0.5625 19.3629 1.90885 21.5257 3.56879C22.6092 4.40035 23.504 5.32806 24.1361 6.23893C24.7508 7.12464 25.1875 8.09663 25.1875 9C25.1875 9.90337 24.7508 10.8754 24.1361 11.7611C23.504 12.6719 22.6092 13.5996 21.5257 14.4312C19.3629 16.0912 16.355 17.4375 13 17.4375C9.64498 17.4375 6.63707 16.0912 4.47426 14.4312C3.39078 13.5996 2.49601 12.6719 1.86388 11.7611C1.24921 10.8754 0.8125 9.90337 0.8125 9C0.8125 8.09663 1.24921 7.12464 1.86388 6.23893C2.49601 5.32806 3.39078 4.40035 4.47426 3.56879Z" fill="black"/>
</svg>
