<svg width="20" height="4" viewBox="0 0 20 4" fill="none" xmlns="http://www.w3.org/2000/svg">
<path d="M1.375 2C1.375 1.37868 1.87868 0.874999 2.5 0.874999C3.12132 0.874999 3.625 1.37868 3.625 2C3.625 2.62132 3.12132 3.125 2.5 3.125C1.87868 3.125 1.375 2.62132 1.375 2ZM8.875 2C8.875 1.37868 9.37868 0.875 10 0.875C10.6213 0.875 11.125 1.37868 11.125 2C11.125 2.62132 10.6213 3.125 10 3.125C9.37868 3.125 8.875 2.62132 8.875 2ZM16.375 2C16.375 1.37868 16.8787 0.875001 17.5 0.875001C18.1213 0.875002 18.625 1.37868 18.625 2C18.625 2.62132 18.1213 3.125 17.5 3.125C16.8787 3.125 16.375 2.62132 16.375 2Z" fill="black" stroke="black" stroke-width="1.5"/>
</svg>
