<svg width="30" height="20" viewBox="0 0 30 20" fill="none" xmlns="http://www.w3.org/2000/svg">
<path d="M30 10.3111C29.8045 11.0115 29.2996 11.4925 28.8598 12.0073C27.2961 13.8639 25.5614 15.5349 23.5824 16.9189C21.6197 18.2944 19.5185 19.3493 17.1648 19.7966C15.0636 20.1932 13.0113 19.9991 10.9916 19.3071C8.18997 18.3366 5.78744 16.6826 3.64553 14.6234C2.52164 13.5432 1.49547 12.3365 0.461168 11.155C-0.157788 10.4545 -0.141499 9.59375 0.436735 8.86799C2.18773 6.67382 4.13418 4.69908 6.41454 3.09565C8.37728 1.71164 10.4785 0.656752 12.8321 0.20948C14.9333 -0.195596 16.9856 -0.00149712 19.0054 0.690508C21.7988 1.65256 24.1932 3.29819 26.327 5.34889C27.4672 6.44597 28.4933 7.66964 29.5521 8.85955C29.7557 9.0874 29.8534 9.41653 30 9.69502C30 9.90599 30 10.1085 30 10.3111ZM15.0148 2.77496C11.1626 2.76652 8.04337 5.98182 8.01894 9.99882C7.99451 13.9821 11.1056 17.2227 14.9822 17.2564C18.8344 17.2902 21.9862 14.0327 21.9862 10.0241C21.9862 6.01557 18.8751 2.7834 15.0148 2.77496Z" fill="black"/>
<path d="M19.8199 10.0151C19.8118 12.7832 17.6536 15.0111 14.9905 15.0026C12.3192 14.9942 10.1691 12.7578 10.1773 9.99827C10.1854 7.23025 12.3436 5.00233 15.0068 5.01077C17.678 5.01921 19.8281 7.25556 19.8199 10.0151ZM14.6403 6.90956C13.1662 6.80829 11.8713 8.32733 11.9934 9.64382C12.5065 9.64382 13.0196 9.64382 13.5245 9.64382C13.6141 9.03621 13.9154 8.64801 14.5018 8.5383C14.5507 8.52987 14.6321 8.43704 14.6321 8.3864C14.6484 7.88849 14.6403 7.39903 14.6403 6.90956Z" fill="black"/>
</svg>
