<svg width="22" height="21" viewBox="0 0 22 21" fill="none" xmlns="http://www.w3.org/2000/svg">
<path fill-rule="evenodd" clip-rule="evenodd" d="M5.55238 13.6778C5.54376 14.0362 5.78023 14.3545 6.1259 14.4497C6.47157 14.545 6.83769 14.3927 7.01385 14.0804L7.95375 12.4142C9.06842 10.4382 11.2874 9.35566 13.5308 9.69331L13.6864 9.71672C13.7143 10.4228 13.754 11.1286 13.8054 11.8337L13.8761 12.8031C13.9335 13.5914 14.8126 14.0321 15.4786 13.6065C17.6637 12.2103 19.5633 10.4113 21.0761 8.30528L21.5512 7.64388C21.7469 7.37151 21.7469 7.00466 21.5512 6.73229L21.0761 6.07089C19.5633 3.9649 17.6637 2.16584 15.4786 0.769635C14.8126 0.344028 13.9335 0.784726 13.8761 1.57308L13.8054 2.54249C13.764 3.11096 13.7301 3.67984 13.7039 4.24899L12.6433 4.24899C8.82589 4.24899 5.70583 7.29493 5.61408 11.1112L5.55238 13.6778ZM13.7634 8.14821C11.2433 7.76892 8.74718 8.78349 7.20104 10.7402C7.47356 7.96609 9.81179 5.81149 12.6433 5.81149L14.4545 5.81149C14.8755 5.81149 15.2208 5.47778 15.2352 5.05695C15.2626 4.25612 15.3055 3.45568 15.3638 2.65609L15.3694 2.57853C17.0814 3.7886 18.5816 5.2765 19.8071 6.98249L19.9548 7.18808L19.8071 7.39368C18.5816 9.09967 17.0814 10.5876 15.3694 11.7976L15.3638 11.7201C15.2982 10.8202 15.2521 9.91925 15.2257 9.01788C15.2146 8.64015 14.9347 8.3245 14.561 8.26826L13.7634 8.14821Z" fill="#8C8C8C"/>
<path d="M18.4598 16.1367C18.5826 15.0864 18.6694 14.0329 18.7199 12.9781C18.7254 12.8639 18.7772 12.757 18.8629 12.6813C19.2414 12.3472 19.6081 12 19.9625 11.6403C20.0957 11.5051 20.3286 11.5996 20.3245 11.7895C20.292 13.3019 20.1877 14.8132 20.0117 16.3182C19.7653 18.425 18.0733 20.0761 15.9774 20.3103C12.3664 20.7139 8.63374 20.7139 5.02272 20.3103C2.92683 20.0761 1.23482 18.425 0.988409 16.3182C0.556598 12.6262 0.556598 8.89652 0.988409 5.20455C1.23482 3.09775 2.92683 1.44669 5.02272 1.21244C7.40916 0.945726 9.84871 0.855275 12.2712 0.941092C12.4751 0.948317 12.6155 1.14798 12.5901 1.35048C12.5848 1.39265 12.5806 1.4353 12.5774 1.47842L12.524 2.21156C12.5117 2.37988 12.3681 2.50795 12.1994 2.50203C9.85869 2.41991 7.50128 2.50766 5.19628 2.76528C3.81075 2.92013 2.70087 4.01348 2.54033 5.38606C2.12262 8.95744 2.12262 12.5653 2.54033 16.1367C2.70087 17.5093 3.81075 18.6026 5.19628 18.7575C8.69195 19.1482 12.3082 19.1482 15.8038 18.7575C17.1894 18.6026 18.2993 17.5093 18.4598 16.1367Z" fill="#8C8C8C"/>
</svg>
