<svg width="40" height="39" viewBox="0 0 40 39" fill="none" xmlns="http://www.w3.org/2000/svg">
<g filter="url(#filter0_d_1383_507)">
<path d="M4.25 15.36C4.25 7.01498 11.015 0.25 19.36 0.25H20.64C28.985 0.25 35.75 7.01498 35.75 15.36C35.75 23.705 28.985 30.47 20.64 30.47H19.36C11.015 30.47 4.25 23.705 4.25 15.36Z" stroke="black" stroke-width="0.5"/>
<path fill-rule="evenodd" clip-rule="evenodd" d="M21.6641 9.34302C21.6641 9.75723 21.9999 10.093 22.4141 10.093L24.9068 10.093V12.5857C24.9068 12.9999 25.2426 13.3357 25.6568 13.3357C26.071 13.3357 26.4068 12.9999 26.4068 12.5857V9.34302C26.4068 8.9288 26.071 8.59302 25.6568 8.59302L22.4141 8.59302C21.9999 8.59302 21.6641 8.9288 21.6641 9.34302Z" fill="black"/>
<path fill-rule="evenodd" clip-rule="evenodd" d="M25.6567 16.6641C25.2425 16.6641 24.9067 16.9999 24.9067 17.4141L24.9067 19.9067L22.4141 19.9067C21.9999 19.9067 21.6641 20.2425 21.6641 20.6567C21.6641 21.071 21.9999 21.4067 22.4141 21.4067L25.6567 21.4067C26.071 21.4067 26.4067 21.071 26.4067 20.6567L26.4067 17.4141C26.4067 16.9999 26.071 16.6641 25.6567 16.6641Z" fill="black"/>
<path fill-rule="evenodd" clip-rule="evenodd" d="M14.343 16.6641C14.7573 16.6641 15.093 16.9999 15.093 17.4141L15.093 19.9067L17.5857 19.9067C17.9999 19.9067 18.3357 20.2425 18.3357 20.6567C18.3357 21.071 17.9999 21.4067 17.5857 21.4067L14.343 21.4067C13.9288 21.4067 13.593 21.071 13.593 20.6567L13.593 17.4141C13.593 16.9999 13.9288 16.6641 14.343 16.6641Z" fill="black"/>
<path fill-rule="evenodd" clip-rule="evenodd" d="M18.3357 9.34302C18.3357 9.75723 17.9999 10.093 17.5857 10.093L15.093 10.093L15.093 12.5857C15.093 12.9999 14.7572 13.3357 14.343 13.3357C13.9288 13.3357 13.593 12.9999 13.593 12.5857L13.593 9.34302C13.593 8.9288 13.9288 8.59302 14.343 8.59302L17.5857 8.59302C17.9999 8.59302 18.3357 8.9288 18.3357 9.34302Z" fill="black"/>
</g>
<defs>
<filter id="filter0_d_1383_507" x="0" y="0" width="40" height="38.72" filterUnits="userSpaceOnUse" color-interpolation-filters="sRGB">
<feFlood flood-opacity="0" result="BackgroundImageFix"/>
<feColorMatrix in="SourceAlpha" type="matrix" values="0 0 0 0 0 0 0 0 0 0 0 0 0 0 0 0 0 0 127 0" result="hardAlpha"/>
<feOffset dy="4"/>
<feGaussianBlur stdDeviation="2"/>
<feComposite in2="hardAlpha" operator="out"/>
<feColorMatrix type="matrix" values="0 0 0 0 0 0 0 0 0 0 0 0 0 0 0 0 0 0 0.25 0"/>
<feBlend mode="normal" in2="BackgroundImageFix" result="effect1_dropShadow_1383_507"/>
<feBlend mode="normal" in="SourceGraphic" in2="effect1_dropShadow_1383_507" result="shape"/>
</filter>
</defs>
</svg>
