<svg width="21" height="20" viewBox="0 0 21 20" fill="none" xmlns="http://www.w3.org/2000/svg">
<path fill-rule="evenodd" clip-rule="evenodd" d="M7.30116 2.47033C5.97698 2.32825 4.60624 2.32825 3.28206 2.47033C2.96029 2.50485 2.70655 2.74944 2.67036 3.0465C2.51222 4.34444 2.51222 5.65565 2.67036 6.95359C2.70655 7.25065 2.96029 7.49524 3.28206 7.52976C4.60624 7.67184 5.97698 7.67184 7.30116 7.52976C7.62292 7.49524 7.87667 7.25065 7.91286 6.95359C8.07099 5.65565 8.07099 4.34444 7.91286 3.0465C7.87667 2.74944 7.62292 2.50485 7.30116 2.47033ZM3.1085 0.979609C4.54803 0.825156 6.03519 0.825156 7.47471 0.979609C8.50684 1.09035 9.34272 1.87034 9.46478 2.87225C9.63702 4.28596 9.63702 5.71413 9.46478 7.12784C9.34272 8.12975 8.50684 8.90974 7.47471 9.02048C6.03519 9.17493 4.54803 9.17493 3.1085 9.02048C2.07638 8.90974 1.2405 8.12975 1.11843 7.12784C0.946199 5.71413 0.946199 4.28596 1.11843 2.87225C1.2405 1.87034 2.07638 1.09035 3.1085 0.979609Z" fill="#5E6282"/>
<path fill-rule="evenodd" clip-rule="evenodd" d="M7.30116 12.4703C5.97698 12.3282 4.60624 12.3282 3.28206 12.4703C2.96029 12.5049 2.70655 12.7494 2.67036 13.0465C2.51222 14.3444 2.51222 15.6557 2.67036 16.9536C2.70655 17.2506 2.96029 17.4952 3.28206 17.5298C4.60624 17.6718 5.97698 17.6718 7.30116 17.5298C7.62292 17.4952 7.87667 17.2506 7.91286 16.9536C8.07099 15.6556 8.07099 14.3444 7.91286 13.0465C7.87667 12.7494 7.62292 12.5049 7.30116 12.4703ZM3.1085 10.9796C4.54803 10.8252 6.03519 10.8252 7.47471 10.9796C8.50684 11.0904 9.34272 11.8703 9.46478 12.8722C9.63702 14.286 9.63702 15.7141 9.46478 17.1278C9.34272 18.1298 8.50684 18.9097 7.47471 19.0205C6.03519 19.1749 4.54803 19.1749 3.1085 19.0205C2.07638 18.9097 1.2405 18.1298 1.11843 17.1278C0.946199 15.7141 0.946199 14.286 1.11843 12.8722C1.2405 11.8703 2.07638 11.0904 3.1085 10.9796Z" fill="#5E6282"/>
<path fill-rule="evenodd" clip-rule="evenodd" d="M17.7178 2.47033C16.3936 2.32825 15.0229 2.32825 13.6987 2.47033C13.377 2.50485 13.1232 2.74944 13.087 3.0465C12.9289 4.34444 12.9289 5.65565 13.087 6.95359C13.1232 7.25065 13.377 7.49524 13.6987 7.52976C15.0229 7.67184 16.3936 7.67184 17.7178 7.52976C18.0396 7.49524 18.2933 7.25065 18.3295 6.95359C18.4877 5.65565 18.4877 4.34444 18.3295 3.0465C18.2933 2.74944 18.0396 2.50485 17.7178 2.47033ZM13.5252 0.979609C14.9647 0.825156 16.4519 0.825156 17.8914 0.979609C18.9235 1.09035 19.7594 1.87034 19.8815 2.87225C20.0537 4.28596 20.0537 5.71413 19.8815 7.12784C19.7594 8.12975 18.9235 8.90974 17.8914 9.02048C16.4519 9.17493 14.9647 9.17493 13.5252 9.02048C12.493 8.90974 11.6572 8.12975 11.5351 7.12784C11.3629 5.71413 11.3629 4.28596 11.5351 2.87225C11.6572 1.87034 12.493 1.09035 13.5252 0.979609Z" fill="#5E6282"/>
<path fill-rule="evenodd" clip-rule="evenodd" d="M17.7178 12.4703C16.3936 12.3282 15.0229 12.3282 13.6987 12.4703C13.377 12.5049 13.1232 12.7494 13.087 13.0465C12.9289 14.3444 12.9289 15.6557 13.087 16.9536C13.1232 17.2506 13.377 17.4952 13.6987 17.5298C15.0229 17.6718 16.3936 17.6718 17.7178 17.5298C18.0396 17.4952 18.2933 17.2506 18.3295 16.9536C18.4877 15.6556 18.4877 14.3444 18.3295 13.0465C18.2933 12.7494 18.0396 12.5049 17.7178 12.4703ZM13.5252 10.9796C14.9647 10.8252 16.4519 10.8252 17.8914 10.9796C18.9235 11.0904 19.7594 11.8703 19.8815 12.8722C20.0537 14.286 20.0537 15.7141 19.8815 17.1278C19.7594 18.1298 18.9235 18.9097 17.8914 19.0205C16.4519 19.1749 14.9647 19.1749 13.5252 19.0205C12.493 18.9097 11.6572 18.1298 11.5351 17.1278C11.3629 15.7141 11.3629 14.286 11.5351 12.8722C11.6572 11.8703 12.493 11.0904 13.5252 10.9796Z" fill="#5E6282"/>
</svg>
