<svg width="18" height="17" viewBox="0 0 18 17" fill="none" xmlns="http://www.w3.org/2000/svg">
<path fill-rule="evenodd" clip-rule="evenodd" d="M4.37283 7.18521C4.37283 6.37937 4.96406 5.70716 5.73471 5.63679C7.346 5.48966 8.96447 5.45243 10.5798 5.5252C10.5854 5.43736 10.5913 5.34953 10.5975 5.26172L10.706 3.7101C10.7754 2.71838 11.837 2.164 12.6414 2.69941C14.3569 3.84127 16.2769 5.93422 17.4647 7.65656C17.8122 8.16053 17.8122 8.83934 17.4647 9.34331C16.2769 11.0657 14.3569 13.1586 12.6414 14.3005C11.837 14.8359 10.7754 14.2815 10.706 13.2898L10.5975 11.7382C10.5913 11.6503 10.5854 11.5625 10.5798 11.4747C8.96447 11.5474 7.346 11.5102 5.73471 11.3631C4.96406 11.2927 4.37283 10.6205 4.37283 9.81466L4.37283 7.18521ZM11.2376 7.12646C9.45034 7.00801 7.65701 7.03013 5.87283 7.19267L5.87283 9.8072C7.65701 9.96974 9.45034 9.99186 11.2376 9.87341C11.4379 9.86013 11.635 9.93108 11.7848 10.0704C11.9345 10.2097 12.0244 10.4058 12.0343 10.6146C12.0502 10.9515 12.0699 11.2881 12.0935 11.6246L12.1723 12.7514C13.5856 11.7519 14.8199 10.5004 15.8177 9.05336L16.1994 8.49994L15.8177 7.94651C14.8199 6.49952 13.5856 5.24797 12.1723 4.24844L12.0935 5.37532C12.0699 5.71176 12.0502 6.04842 12.0343 6.38523C12.0244 6.59411 11.9345 6.79015 11.7848 6.92947C11.635 7.06878 11.4379 7.13974 11.2376 7.12646Z" fill="#5E6282"/>
<path d="M4.00009 1.9895C4.4143 1.9895 4.75009 1.63972 4.75009 1.20825C4.75009 0.776779 4.4143 0.427001 4.00009 0.427001L2.00009 0.427001C1.03359 0.427001 0.250092 1.24315 0.250091 2.24992L0.250091 14.7499C0.250091 15.7567 1.03359 16.5728 2.00009 16.5728L4.00009 16.5728C4.4143 16.5728 4.75009 16.2231 4.75009 15.7916C4.75009 15.3601 4.4143 15.0103 4.00009 15.0103L2.00009 15.0103C1.86202 15.0103 1.75009 14.8937 1.75009 14.7499L1.75009 2.24992C1.75009 2.10609 1.86202 1.9895 2.00009 1.9895L4.00009 1.9895Z" fill="#5E6282"/>
</svg>
