<svg width="19" height="16" viewBox="0 0 19 16" fill="none" xmlns="http://www.w3.org/2000/svg">
<path fill-rule="evenodd" clip-rule="evenodd" d="M0.385498 5.4477C0.385498 2.63469 2.85335 0.46875 5.75008 0.46875C7.24328 0.46875 8.55721 1.16889 9.50008 2.07483C10.443 1.16889 11.7569 0.46875 13.2501 0.46875C16.1468 0.46875 18.6147 2.63469 18.6147 5.4477C18.6147 7.37465 17.7929 9.06921 16.6544 10.5016C15.5179 11.9315 14.0313 13.1451 12.6079 14.1312C12.0642 14.5079 11.5142 14.8553 11.0108 15.1117C10.5381 15.3524 9.99461 15.5729 9.50008 15.5729C9.00556 15.5729 8.46205 15.3524 7.98938 15.1117C7.486 14.8553 6.93598 14.5079 6.3923 14.1312C4.96888 13.1451 3.48224 11.9315 2.34573 10.5016C1.20725 9.06921 0.385498 7.37465 0.385498 5.4477ZM5.75008 2.03125C3.5842 2.03125 1.948 3.62406 1.948 5.4477C1.948 6.90968 2.56861 8.27083 3.56893 9.52939C4.57121 10.7904 5.91979 11.903 7.2821 12.8468C7.7976 13.204 8.28314 13.5078 8.69847 13.7193C9.14451 13.9465 9.40286 14.0104 9.50008 14.0104C9.59731 14.0104 9.85566 13.9465 10.3017 13.7193C10.717 13.5078 11.2026 13.204 11.7181 12.8468C13.0804 11.903 14.429 10.7904 15.4312 9.52939C16.4316 8.27083 17.0522 6.90968 17.0522 5.4477C17.0522 3.62406 15.416 2.03125 13.2501 2.03125C12.0062 2.03125 10.8447 2.7744 10.1194 3.71763C9.97154 3.90996 9.74269 4.02267 9.50008 4.02267C9.25747 4.02267 9.02863 3.90996 8.88074 3.71763C8.1555 2.7744 6.99399 2.03125 5.75008 2.03125Z" fill="#5E6282"/>
</svg>
