<svg width="17" height="18" viewBox="0 0 17 18" fill="none" xmlns="http://www.w3.org/2000/svg">
<path fill-rule="evenodd" clip-rule="evenodd" d="M4.07284 4.5C4.07284 2.15279 6.05491 0.25 8.49992 0.25C10.9449 0.25 12.927 2.15279 12.927 4.5C12.927 6.84721 10.9449 8.75 8.49992 8.75C6.05491 8.75 4.07284 6.84721 4.07284 4.5ZM8.49992 1.75C6.91785 1.75 5.63534 2.98122 5.63534 4.5C5.63534 6.01878 6.91785 7.25 8.49992 7.25C10.082 7.25 11.3645 6.01878 11.3645 4.5C11.3645 2.98122 10.082 1.75 8.49992 1.75Z" fill="#5E6282"/>
<path fill-rule="evenodd" clip-rule="evenodd" d="M4.33325 11.75C3.03884 11.75 1.9895 12.7574 1.9895 14V15.1883C1.9895 15.2064 2.00316 15.2218 2.02176 15.2247C6.31213 15.8972 10.6877 15.8972 14.9781 15.2247C14.9967 15.2218 15.0103 15.2064 15.0103 15.1883V14C15.0103 12.7574 13.961 11.75 12.6666 11.75H12.3115C12.2841 11.75 12.2568 11.7542 12.2307 11.7623L11.3291 12.045C9.49074 12.6212 7.5091 12.6212 5.67074 12.045L4.76916 11.7623C4.74306 11.7542 4.71578 11.75 4.68832 11.75H4.33325ZM0.427002 14C0.427002 11.9289 2.17589 10.25 4.33325 10.25H4.68832C4.8805 10.25 5.07147 10.2792 5.25416 10.3364L6.15574 10.6191C7.67895 11.0965 9.32089 11.0965 10.8441 10.6191L11.7457 10.3364C11.9284 10.2792 12.1193 10.25 12.3115 10.25H12.6666C14.824 10.25 16.5728 11.9289 16.5728 14V15.1883C16.5728 15.9415 16.0042 16.5837 15.2298 16.7051C10.7727 17.4037 6.22711 17.4037 1.76999 16.7051C0.995631 16.5837 0.427002 15.9415 0.427002 15.1883V14Z" fill="#5E6282"/>
</svg>
